<mxfile host="65bd71144e">
    <diagram id="wEePNgUeG74W_Sa0J5v-" name="Page-1">
        <mxGraphModel dx="1370" dy="347" grid="0" gridSize="10" guides="1" tooltips="1" connect="1" arrows="1" fold="1" page="0" pageScale="1" pageWidth="850" pageHeight="1100" math="0" shadow="0">
            <root>
                <mxCell id="0"/>
                <mxCell id="1" parent="0"/>
                <mxCell id="2" value="" style="shape=image;verticalLabelPosition=bottom;labelBackgroundColor=default;verticalAlign=top;aspect=fixed;imageAspect=0;image=data:image/png,iVBORw0KGgoAAAANSUhEUgAAAVsAAAFaCAYAAACwk/5IAAAAAXNSR0IArs4c6QAAAARnQU1BAACxjwv8YQUAAAAJcEhZcwAAEnQAABJ0Ad5mH3gAALwJSURBVHhe7f153DXZVReKf6vO8Azv8049d5LOTGceSEJCCIGEEAIJs4IiXhUQRK8a4YICCooo4V4Q1OtVUZH7E5n86Q+EQEIYZZBAkMyEhE5Id3pIj+/0TOc5VbV/f+yh1l5r7V1V5znnvM/b3d9P9/us9V1r773Wrtqr6tSpqlMYYwwIDg4OMJvNKBVhPB6jrmuwZtjZ2cF4PI64HKqqwu7uLqcDxuMxmqZB0zQRv7Gxga2trYjrwsWLFzkVUJYlAIhxxuMxdnZ2Iq4Lu7u7qKqK0wGj0Qh1XXMa586d41SEpjGYNw3uemgPb3//J/HuOx/B5YM5jqoGtWlg4tABGAQq2kytEm8+ojjRxA2JixWYygdy/bM+PIzo3frKMATvucSwAYPzs2RwiJtLX+sqecDyYpPAoCwKjIoCpzbGeN5t5/FVr3wqnnTdNkZlgbIogMfXEbDCdcSx7lpXDC22SASxaAA5jEYjGGOiDbjsnQQAiqJAWZbRBlzFTgLXL/fRdhIDYF41uOfiAd55x0N4/ycu4o77r+BwXqNufKkIlSNqFwpJXDFaKcEnC1FQo1E1odUyhUhaMoU2JuLoZEeAGFp2rEXggm5FhY8ppQ9YXiu0URdFgQLAqY0RnvfEc/jc59+KlzztekzHJc6cPv34OlriOsph3bXOHo4GoqoqjEajcDRbFeq6RlmWKx/HGANjDEajETctHVVVZTdUYwz2ZhX+5JNX8G9//Q58+395D37ydz+O9951AXuzClWm0FpV41uluxAxBCIalSBmDMQgLdRCq4aRDIiFI5DMLzCSc0G3osLHlNIHLC8LbQwDu781psGVwzl+76MP4vvf+gF8/1s/gI/efxkHRxWaVP8L4rG4jpaFZda6hXuoqgplWaJwH39WhaqqwhFzlWiaZq07Ch+naQzmdYOP3r+Lf/JzH8Tf/6/vxTvefy+uHMxRN7wQOImtyeUUWm2hKxYjGMIrSBVamRUPiLA675HMz6lqM5KHbB63sJTaSzo/0w7c2lvCGGBWNXjnnzyIb//pP8T3//x78MiVQ/vpRe1wMTxW1tEqsKxad6yZ90GsegPWdb22HQXuY9eqUdd1ODIbA3zkk1fwg2//ML7lp96N933iIvaP6sRiEyvXqW6xq214jZBOlhGdSi7D2zEkb6PToBWi1qQSgrfI5heGkbxqSeWhUIAd3KjmlhE2RjSwn2h+5b1342v+1a/gZ3//Yzic5z9KD8WjfR2tEsuodcX+/r7YD4aiKAo0TXPsyt+FsizDR5VVYjQahTOBlaIocGnvCG/74AP4hfd9EkdVg8bYj2OkQgC8JLD004XWtYp40dj90Xk2shPEQI6WPJA6Q9Pyk7znEsMGJHPMFtpWYKrwzx5ItJBJHqwnTtg+WhEFgPGoxEuedh2+8fXPw2037IQv0JaBR9s6Wlf9wTHHKi5cuBDN+CIXzgFgf38fR0dHnE5ikQvnADCbzTCbzcS3njkMvXAOAPP5HLPZTFyEz2HIhfO6MfjA3Zfw73/jo7j7wj6quiFrUCtE6srtLLQIhSLmqNq70CLqzKoJPkD9eK3lJ3nPGWfSIIeVHYsIUvklBrK05NGj0DotlqIGcaGl/HhU4tz2BF/32tvxqttvxrgswdf4Y30deRhjsLe3N2icdde6xc+JGZqmGTxBi8AfVY5zOt8H/gi27I9CBsDerMJ/f/fd+P63fQh3PryHeWeh1RRLCAqIl7fuQNY9c2ArPx4/0VmGl5ZUfmrVspTC65Adiwhy+Smw4ye81JAz+cVErEa8Vaq6wcNXjvBDv/hB/Ohv/AmuHB6hcdfvj4trfR1xFEWBqqowmUy4aelYtNYtdaZ9sqv+eLLOa0/LvNjfGIMrB3P82P/8OH7stz+OC3tH8pvn3EKNsIJ7aQMsn2oeUTx+j6UUWoUk6M6PIRCp/OIWXfnJc0KlPZVYVyE/GYiVjN1nZvMGP/u/7sT3/Mx78OCVQ9QDzkZzuFbXUQ7z+XyhQjgUi9S6pc/yfD5fy9FlXbezLGtHMQaYzRv883d8BG977704qvmCMdHCFhJbkAsX2sBIzlWXVlT4mFL6gOVVCyFJpC1JoBeiFsn8omZaY8Vik6GMRhFkCq0IWxBO1XjSivFNY/CBT1zAP/z//iHufGhvaWe419o66oNqTbeFDa11K5nhdSXrL74vcrF6CI67oxgDXDmc4/t+4UP4X3/6MKqOhdK1ULsKbQyxyjljYcI/SrdxC0upvaR5mVUyP70QteCFSIfoNHCyeezbUlrfBsnN15tfLD/TAHc+tIv/6+fehw/ek3/AYAiulXU0BOu8S6HvOCsptiBBrHoD1nWN0Wi08nEW3VGMAeZ1gx/5zY/hPXc9glpdYKlvriWhF6LYqV2sorFjJK9aCB9BoYB2YGnW8hOEU3Veh2js/ug8E9X8RHwcKj3k8oiLTuGBdKENjAHufHgXb/nZ9+DD914a9DE2h5O+jobCGIO6rgedeS6KvrVuZcUWA6v+cVC5m5u7kj0uFtlR5k2Dn/q9u/A//vh+d6M6XxzagoTKm+RCtTDRlQjR2C9nwQsuw9v+JW+j0yxaoW1NHYSAmD6PMIaWn2JJ5pEexKSu0xJ3K7qZEKGktp8gJEfyaxqDC3tHeMt/fy8+fO+lpV1SOMnraBH4gruuGtQ1zkqLLdZ8wXpdOwp63rBdNwYfuvcy3va+e1E32hrWFqrkLSPKiIPORgguolNd1SuCYySvxWsxhCf5CZtF8qzPiWKGsh1KzqYtecAuXGlJbT+u5NA6JoYm+bVojMH9lw7wL9/2AXzi4StL+9LsJK6j46BpmrUV3K5aV+aMy0Kfqr8MVEt6rK4LtXsxRW5HMQa4sHeEH3zbH+PKwVzedZBcqLIQGWpPrOjuQsTAOoxV4e1oyQNqyIIkkbYk4Vg4At35sYasw1TziErmJ3q3kGFYSXEOPSQC6Zdf3HHTGHz43kfw7f/pt/HI7qGyjy2Gk7SOloGTcoZbnoQglol1XntC5shcG4NffN+9eGRvpqy9TCGSzstfqEG0QjykDMBADNJCLUSpHkNAEVg4At35MbAOZXMlvkx+6jkj8dckCn37tUjmFxjJWcpG9rEHLuH/+cX34KhSI10IJ2UdLQsnoeCWxr16TTMuG6kglo11HpmR2FHuvXCAX/7AJ/Vvrgm32EIlrRK82iyCYklRqUKkloF4YJEfa6Dn16JfflpjxWIE43iFg+V1i8iKB0RYnQ/xyQCTagDJw7hLCr/83rvwX//nR5Z2/RYnZB0tE1e71pUg1zVWnSzINaFVY135+B2F3qdYNwY//rsfx6WDOfF0yJ0RsXXS+KWaWD/ZhRqQXsCGqspAlkr3mzHphAhF5z2S+UXNRKeSy/DJHOTngcAnw04RKT7HuWFEuQ95xJaqbvBjv/5HuPvh/Ltth+JqrqNV4GrWupCZcS+mWPVRDG5i1zGOP7rIOwCWC7+j+HEe2p3hw/ddCa9GbNHqQhJrSucVAoBBUdiXl2xNRtiZjnHD6U084fwmrt/ZwM7GBJuTEcZhR2ZLOCxgTmljOV41aZdH9DzS+VkkC20E0amuKvm1jOThDiTSopIJPnWgbInU9LbdaQkZlTfG4PLBEf7+j/82LuzNlrrPX611tCpcrVpXzOfzKDP/ggV/LaUvptPpoKOSMQZHR0eDJ3Y0Gg2+d253d3f4o3Vliel0yuksDg8PUZYl/vu778NP/8G9mEdPiaXOiPSF2jgT54Pk3g41GhU4tzXBU67fwrNvPYNn3byDJ5zbxOZ0hAKFexl5jbse3sMdDx7gw/ddxp0P7+Hy4Rx1439SRwzk1rXkActLS/9Ci2QhatEOzZxClzrPRvaJeC3A0pJHz0LbiiEgAhId44OU4NvuWAQhD8vL/q0wHY/w9a97Lr7s5U9DWaaLybWwjobWoM3NTU5lse5al/xZnLHysxM5DH1TT+V+KmLoOIu8qefixYsoB75WbrzA25SuXLmC2bzC3/7pP8KVw5p8O5xZqCKcfo/ijsoC01GB1z3nRnzxi27GqY0xRkUh3gpFcWpnByhKPHTlEP/u1/8E7/roQ5hXNE4Lq4rALHoXWsl7Ltc9wviQTk4VETD/yKpsbzu+5AHLy6U3JD8SXxxIKyX47vxsZEGVAgoAG9Mx/t03vBo3ndlKvprxJK+j3d1d1O4xYn+22wdD30q27lqXLM/Vmt6gw69rrAqNe8vRaj86FLjjwX0czJt+hVagX6EtiwIvf+o5fPeXPBtf85lPw9mtCcZlvtDCLcTJqMSt57bxXV/6InzvV74Ez7/tPGgzO5Ie29IKbQbJNez4dA9K5IqrQWaQE1FoGQLBCm1AzDQAZvMKP/nbd6DSH1c8FtazjuzZ4Dq/zFpHrUsWW7jT7HUku65bMoZ+XBiK2jT4yP175FptvLNHCzUmYMJy4s3ihbo1HeGrPv02/PXXPBVPPr+J+XyxbVQUwPOfdA7f+WUvwue/+EkYj0o7UrIQ8WwcWA5capH6aN0iWYgCIzkXdCsqfEwpfcDy6t7ROz8SnwzESgk+bqb1rRTaZH52nN/60H14ZHcmPrUsA6teRx7GGPVb/VVgHbUuW2wL947IVQeBNZ7hGmMGXW8ZAmOAP7pv1y2qeOGRJceJDB87TUYl/ubrn40vfvGtmI7tLTnH2UZlWeDs1gR/43Ofja94xVMxSc2LekYLLatEHkTVO2KQjdUITPhHmbbY31JKH8jkR/yFJELUeY9koY0gOh1caAH7EX93VuGHf+WPVnJ2C6x2HXGs42TsOOuoL3rN1qqD8FjXLRnNCl5mbIxBbYCPPbTfXs8S608QTtWuY1KlwLgs8TWf9Qy85tk3YzoaRR/9cYxtVBQFNiYj/PlXPg1v+tQnYjLiu0SiEKE91RV2JT+Np2iLkWjMGQsyYXLa4hYK1cIVWmluGSGJEHVeISQXmmq85SIL4SOKS8bg3X/6EO566Erv66tDsYp1pMEYg/l8vpaxFl1HfcBXVhL1mt6gs85xlntkLnD3I4fYn9V24Yj9W1+QeqFtYdyXYa+6/UZ8yUtuwyhzbXbRuSsAbE/H+OpXPQPPuPk0+VIldS9tqtBm8s5AH4N2JyYtcJElNZEp3s29tGh5OIhQHCH8WyJ3ILF/NF6PTOeiQQIOjub4w489qNyCuDwsfx3pKIpibWMtuo660Dtyf3RZVdWnWNc4TdMsbeM1xuCP7rtsKxfZt62oL8h0oW2JAsBNZzbxdZ/9TIxH6UKLJWyj86c28H+88fk4tenai7hgyd48KSPCZpH8eJ1qqE9Yko8u6URY4BYv4SwIB9KqwyVXaO2/1CY7s+6SB+y7E972nk9gVvX/Rn8RLHMddWEdYx13HaUwOOpVnmZTrGucZX3jWTcNPnL/Lgw5i4gXClUsIShALNTxqMSbXvQE3Hh6I/LK4Thz9+QbdvC5z3sCCvU65pBCRCjFhqhGmNjJiSKClGoiLcAykgdSIWfyE0gdSEirBO9FkZ9j1fFSVKLQ+ssj91/ax3vvvMCtS8ey1lEfrKPg4pjrSMNCES87iBSupXGq2uCRvfbx3GihKuuhz50HAPCk67bx+S96wuBbbRbNqSyAz3nerdja4B+jhhQiUkh0c7JGJJsFwgqxXXhbJjWIeudBqkc9IBaOUBYqtNKNKEp8mfy8paoNfueP70VZXtvXOzn8LWirxjJzWqjYYslB5FCt6R44n8+iG3BWNdifuccNA6stBoPwW7pyRVnJiUUBfPozb8DWZLF5XmQbFUWBp910Gi988vnYoBYCV4BZmsMKrezY/tEaKxal4JgEb5EptCJsQThV40mrBK8284SBOwSzMmzCP4wSvViwTySNMfj4g1ewPzu6JtbRUFxLZ7jHirRa0+1aq7h+osHns8iOMqtqzCr2k+Tkj4d+RtuCrqHJqMDzn3QOo8xjl11YZBtNxyW+4MVPaueBBKVJFHohapEsRBHDeKNwOUrhLVJf+LVtRH4iFI0nrRJ83EwLQrEYwRBeg3q+jHsv7OLKwfyaWEdD4J9kW1fBHbqOOMS7Eebz+aBH5ODOhqbT6aDJbZomPJvcF35SF3nWeghGoxHquh70rPXdjxzgW376Pdg/8nMnLx/oZ7Qx0S5Wg9NbE/zLr34pbjoTx7GObXT3hX28+T/9HnYP56xQEInloReiFslCRFRRLsh8SDX2bW1aAKkfatQuj6TycNEpPMSwzKnzzgpm1QdyY0geyQOJwXQ8wpvf+CK86aVPBU74OoJ7wGDIgxP+HtlTp05xUxbrWEcgta64cOFCtIkWeWYaAPb29jCfK68UTGC8wDPTcBt86MYY+sw03IY4ODjoPc6djxzgu37uT9zLZ2ShNYMWquWffuMp/MMvvB2bk/iIuo5t9MjeEb7zZz6AT160CywOT+ZnMxSOEeiBJDb4Pzof5ihSRUQqH5C6Tkvco1FEKDofWkW8aOz+6Lx4cCGRh6Ulj0yhhQFGZYlXPfuJ+MG/+tpgOanrCAu8ewCwZ7l7e3uoBrzjYB3rCKTWLe382xgzeIIWgVnTq9EK93RW348oVd2gWmKhBYAnndvMvrlpKIZso+mowKmp5ivzsxnmIXN0cLzoIahujiJV6SzFu7zlUtcKraYQIsXnuM78lCfEuG9IT/KA6h7l1xiD99/1UPQWupO6jhaFP7vtu38fB0PWEcVSZ2AZ1zX6wD++t+oNWLt3UXblZADsJR5mMGGhxLxCOLT8zuZYPCl2XPTdRuPRKFwrbiPSYiZlRDOLGkEUJ6YLkRU6+yf/CizzFrYIpJXukM4vQCm0SmcmwQP98muMweF8jgtXDqNuTto6WgZ8TqtG33VEsfRZXmey5Qn5yQ5jDPaOanVVagU4vVCJ4t5Xuwr02UZ+CZNIoz+MFbxHLj/7J9+h7D/2NxCDtFDPaNUwRL+eC/El8kjmFxjJWUortFQhVCY/adEPJPbnzw/FTnWS1tEyYNb4W2NDx1l6scWCVX8RrOtbT39kTp0BGAMchi/GCK8shV4L1YlXDiu1h2WgaxvVjUHF317GgtELUYuu/ESzQFhB2BljIAZpoRYiRH0IiTVg4Qgk83OqGoENuhUVPqaUPmB51ULIVrQHjUuJX3A4KetoWTDu9Yy5/XtZ6FpHFCvLul7TS2WGJHscVFWV/SjEX6503N8PMwDuvRh/7Fs2ctvoqGpwcFS3sYk4UrxFMr+omdZYsRjBEF5B7uUyImxBOFXnFUJy2ocZ0DxYoQw8p9Re0rw6quWMAfZn6S91Tso6WhaaplnbU225dUSxsmILF8Q6b6Re9REzdWQ2xrgvxyy6bvFKFqJINbj/8ozcSrYapLbR4VGNK4ducSp5KPUhIJtfOwsKKX013oQxFH8Xm7RohbY1dRB+1FYLIvMNw0je9xFZAs+gUEA7sDTrlw+CYoz99CUbBlztdbRs+DPcdRVcbR1RrDbbq/BAwqrhr3FFO0pRwNfa454R2T9WOKxq3Htp2L3Ii4BvI2OA+6/MsDerRIghOsFr0PNL80zNDqTx/V4u00IjSTHUzG5+VKQahjw0XiJ3IGn/ZTwhW5HyBaoet19d1XW0AqzzDJevI45yXRObC2JZ8Mmu+tqT/yhEdxR7GSFxHY3u/rpDcKE9zOsGH77vMlCsdocE20ZHdYNf+9ADaJSnAJJ1wCF3xmf/6LwXYqscyI4vecAapSVTiGIijo7xQUrwbXcsAtah7D/2Z14ENg9p6ciPYN7z7V9Xcx2tAr7gXu1aVy56z9hQ5IJYJtY1Dv8oZHr+fpjGe5EvVNMAv/+nFzCrhn3ruSj83N1z4QDvEW+KMiI+jlQNTOXXqlaIp0d2ZhI8YHl53pYpRIYPKMIRytDt16rKnQdKAAZikBapQqtqIaCFcbXW0arQNM3C98cORWruynVX/a7rGstA1+n8skB3lLBfJxbk4IXqcPcj+/itDz+Eul7PNjqYHeF3P/oIDufxWZCeX4vu/FKwllTziEoWokShVTW9D/3yD2mV4NVmEZRCqzjb/DjroN55EA8s8mMNtB66cDXW0SpxtWtdCVL11xHEujagT1a71WWZ8DtKgSK5ogYvVNOuvnnT4K3v+yQuuNt2VrmNDIBHdo/wqx/8ZPR2f70QtUjmF5iQECUDJ5vHvpaS/QKWl4XWQYQtCKfqvEcyv6iZ6DRTaGPfltIC0MpkHK+wdxO9se51tI6Cu+p15MFrXcjMB7HqZEEujq8a8/l8rTtKi3a8hRYq4Rr3ZdVPvese1HW90m10cFTjX/7Kn+DSAX0vb2pFWyTzc6razIR/YjvhY0rtJXHGh2jg1i4Ip+p8iE8GqEB0KrkEL+KLkHrngeZu7P8iFJehMy+Cda6jsixXPs7VqnXF/v5+lFnhnmVuenxzeRz4ZFc9sVjDWFVj8LN/eC9+/J13xcsnGk6sAsdIni/BAsC4LPG1r34aPv+Ft2I8sk/8LHMbVXWDH/vtj+G//+Hd5Bl6UswSU9fmqOUR9RDxwsLyDnSChytE0qIV2phvGdUxIhbLzwSHuLmIyAkiAAv1YNJxHTpCW2inoxG++Ytfgje97GkLv29j1euIYuTeGLZKrLvWFYbN3MHBAebzOQr3A2t9MfRNPVVVYX9/f/A4i7yp5+LFi4M33njAW8mqxuC//v5d+H9/66PtIotmle2cThVLqV19Qi1gMJ2M8Pe+8AV40ZN2gMaeTQ/JSdtGxtgnxX78t+/AT/7OR1HV/i5hckaUQDLHAQeShGC1ZADHL7RIHkhIfAm+HYN1GlTt8oEIwNoVHrC8tGiFNgQjYLy/AabjEf7WF7wAX/CSp6AsixO5jjx2d3dDQR8y1tC3kq271qnn0eu6rtE0DeqBzxcvirrnUx7Hg7LHc65zoUZLyK9IGACzeY0fevsH8XPvvgd7szma5njbqGkMLh3M8W/e8Uf4L7/7sf6F1vAaQRSWh+SZKgWiaQF0F9oYGr+qQmtkoTV8jJY+fqHVFE+FQJeK9ayjtsiueqx11jq12GLNt0o0a7rpeLWFvd2rU2sov1BbIbbG2pWDOX7inXfiR37z47jrkT3M5sN3fuMex/3QvRfxfT/3Xrz13Z/A4bwOI6XC90jGl1rf2fwkY4D0JGq1E2oYol8PFo5QBhdaBmkdkl+idxmG6Ncj9BB9OjZJ/6FY7TpqservKDzWVeuyWazrVol1nuGm7oFbFhZfqJZPNafU0bzG//jIg/jOn/kgfvydd2L3cI7GFKgbd9bH2hljz2KrusG8bnBhd4Z/8fYP4O/9xO/jXXc8ED1q3HVG1J2fzisWp8QDWSo9uLy6ZqI+hMS60vMjrRK82swTBq6ysa1rwj+MEr1YJAstiY9LrIFeaJePVa8jj8b9sOM6Cu6qa11nBj6IVU+sWeOr0aoVPZKYXKiBkRxdkLJ5eqEaA+weVnjre+7D3/zxd+P73/YhvP0D9+OOB3ZxMG/fVm+MweWDI3zoviv46d/7OL7jp/8Af/nf/A+8/T2fwP6simLWC1GLZH5RM62xYknmF1EEqUIr/rRIETIQKyX4uJnoVLekklEowA6um0h8XGIN0oVW7/m4WNU64vCXFNZVcFdVg9QvyGazGaUA983daDRClfjZiUUuGu/u7nIacBfVU+MsemFfQ26c8YAL+/YLsjvxo7/5UceIVaAtx2hBRhbCx5S+aAr3f1kW8HegTUclNsYFDo8aVE2DxtiXSDf+mid7FHfhQktUUS6CynJM5QcxkCcH/H6Y5D2nDNvGluC9yDIIvP2HWfWB3BiS9wNIS0vGNs3Z5ZcotBP3BdkbX/LUY31BpmFZ68hjd3dX7c8X2yZx98AiX5Cts9b1PlSs88yzaRrx9MUqsJqPQnJBsqUYeNWSWpAKBcCeERmD2hjM6wZHlf1/dzbHI3tH2DuqcFg1OKpd0W3M4EIbQ8uD9MF4byGq6KO1JQJQ6VUV2ihaHniSj1UxEPciWOIXfgrv/01N7TKwmnUk4a+trvoMd1W1blDUPohVf3RomkY8fbEqLO2jkLYz9yi0ffjsGZFqcWdK+rrUCcG3SC7U0FTLT7WkB0oMYlLXaYl7K+oJG2fivISeh8giqMotXtzXM4n8FHeRR+/8IptVTGboZWJp66gDxp1cxA8RLR+rqHWDii1cEKu8rkFR93hH5DKwvEnVVgjb01NqYkG0S4bDFVRO62SCF2VEQJ71xWK6B4VPUalqoF7HHFKIVCpupTuQ/HReLbRKZ0vNT4Htn5vVDlaO5a2jPHzBXccZ7jJr3ULRrqLqazDGrO0Md6kfGzoXqhViu1gxbiGJXizU2jJkoZKFrpnF0LJjrVS4oFtR4WNK6QOWl2e0ahhWUrrRL4+QVgk+bqZ0rBZaqhAqk5+0xEyUX0w4VeNbpYmmZfX3kmLZ66gHrqUz3IWKLVwQy6z6OVTKG3RWgaV8FEot1CAKi7ogTYIHLC8tMUMXGSNiVXYEiKFlHloELuhWVPiYUvqA5VUL8dckCr0QtUjmFzGMN8gU2gH56bNnIcIWhFMdIe6ldbQMcG2fFJeyjnrA3xa2joK7jFq3cLGFC2JdF8ePjo7WMs6xjszRutCWk8KlKIW30BZqvCBbuyA6eIt+hYiBBC2bKy0UCrCDG9UsskrmkS60gpBcUDXecpGF8DGljeWgmrSzcz0PvdC20AqtxzWxjgYgdWfCsrGMWldcuHAh2hqL3BJijMGlS5c4ncV4gVtCjDE4ODjA0dGwn4oZeksIAMxmMxwcHHBaRdUYvPW99+Mnf/9ugC4Gj6Ayy+CFmnoLlHb5oGOhqv3woUWncd+RreWCxPhAJ3i4/KSlJWOb5uwyVPggxQG2CN1J3v7Tvf0Q+pe8H1hatPwE4VRHiBrTOrbFtuWm4xG+7c98Or70lbejKOxtTydtHXkMvbUKHbeSprDuWnesM1uPoigwmUxWfsHaP0myjo8o4/F48AaHXI5kf9f4mJOLkEF1WEOhjSA61VUlP4QxJI8ehTaGxovZd2hZ/WAlAme8yfCMTvAe0qLl4SB4RyR4I85qCQh/LayjoRi7n/FZ9SWF49S64S0SWOc3hMu6YJ2D/9gwZByx1IPaLoYWiVWRqgbqdUyt0GoKQYqPoOchIkjlZyItgHnFUGtOKj/pGUUXmUmrBO9FPT8jI9eGl14xBm0/bTKOnx/FSV5Hi8K4W8JWXXAXrXXDvDvgg1h1sljjNSE/zuCc2MqIVHXnF6ulxVIWqiAj5D5a2z86L/JTtMBk8hOfirvyy4cjlK5C1Ds/KbRaJj/VIsMQ/XousAO+EKNiIoKTv44Gwn9pNrQQDsUitW7pES1a9RfBcS9Y90Xl3rbee2LZgpTrM97xmVeMZS5UzWyH0NGxUNXIFVeDzCCLFFqGEF8ikO5CyxAI5c4DhenKT7dEWcUSa2D754W2RXehzePErqMF4Z80W/U4Q2tdP68F0Kz4DToe6/qIUruf7Oic2LBnW0Hu6DFjF5L0AiyvWoi/kFgDFo5AshAFRnIu6FZU+JhS+oDl1fqhuqvkkgqt1rcSWTK/iCJQZ8820MLOESIPF7ngY9F5tXwCJ24dHRPGTcyqx8GAWrfSSPzErhrr/CiUvSYU9mllFzeC0agWqUJLWCGxBnohapFcqE5VIyBBy+axv6WUPmB51cIOJNFIIkSd98jmFyA6jUYNVsJLSuu7350jLTTeZZjIw0RNiJMT7R/RaRInZh0tCYt81F8UfWpd3roENE3TGcQysK6PQv5LhXROys4tV0ye18tctCCFnRFdhSiGaMwZC0JGdiUPhWrhCq00SyaVcDo/S2QLbWiq8UpkgWcUk1pkJpDwUR/CnxRaYeOFNoVuD46Ts46Wg3Wf4ebGKddR9Zfx9EUfrOujkHrtiS3IIDE+ohUeSzoj6oI+Bu2OOcQJMV7pLMW7IiItqULEFUKk+BwXmuq8F2Kr1i/Sk6htkmR+qrOlDB+6jS0ZnxPT+XXjqq6jFcAX3FWPg45aV67j+gmuwhFz1fA7pDZ3yYVAF0pmoUpkFqoAWWaaWQytdcwaMj5W5SDMi6DfvbStqDmLMuJAWukOwUXvwehfiCmuNm3FAMtLy5D8XHyGj63lx5ycKLqM/PvhJKyjZcKfda56HGRqXemvn1zNIJaNdV17qqqKHC3tjhyvj8TOneGlJWbIkuNErMqOADE0UUJ3+Q4T3QYYiEFaqLUlU4gEUgcS0irBt4zkXNCtqPAxpfQBy0tLJj/pnLg80ipdDy0oWThoXB5XZx2tDle71pUgQazjSLbODbjOfIqiYOtD7twLL1Sx/gThVJ33SBaiVLNAWEE2j1tYSvRiod55oLSnEuuKhSOUZH5O1WaY5iGbK/Fl8lMthCSRtiRB6EFOFCAKrexDyULNYwjWvY5WXQivZq0LmdVr+ulgs6YnV6AkuypUVYXwezTQ9+2lLlQjx1hOodUaKxabDGU0qoWaXxxvaxeEUzWetErwMPZ/OT4NmsUX+CzVQs0PcXxcYg3Shdbyyfyc6rwETy16jN1Y5zpadbHFVax1xZUrV6JtUJYlJpPJ4NP6o6OjwW/g2djYGDzOfD4Pk9UXk8kE4/E4XCjvg6Zper+oo2oMfu7d9+Enfu9OdVVaKjF2aqESfyGJNaXzHsddqJHE+JjSAui+Tit6MzZmE+bG/Y0cWas4QGLwjOTtP92FFqF/yfuBpUXLTxBOdYRYPm3fufzsH533lul4hL/3Z16BL37Fp2BUFidyHXmMRqOFXgV5eHjIqSzWXuu0H3ys6xqN+6XJvhj6pp6qqrC/v4+iKAZt9EXe1HPx4kWMMz9Kp2E84K1kdWPwe3c8iF9+39125+aFsv1HwBi7EzOW6YQz9sjs7yFMrUFKeGk8Hil3UCjwQ5kGc3fW3uYUN9LGL+lLTtSFKfuYz+f2UoyrzEd1g/fe+QgOjirrLbqxxPEOJMyqD5QutO5AIqEV2pinHAsn8IFWeCp2FVq4YvvmN70Ib3zp0zA6xg8+rnIdefi3dw2tQUPfSrb2WqcV29lshtFoBONemtsHiwSwu7sbbv3oW3AX3Ungjph9x1lkJ7ly5Uq4MO4LYh8sspM82rfRxf0jfOtP/AHuubCvFqggkcISobMQsTsPTKQFWFrygOWlJS6oJFKl+9UWWqouq9hiDevI/7ruo24dcYNHvaZv7nyCq75+gjVceyrcUzH+Os1oZM8kV/W/v51l1eMY9xTOmLzGblX/N+6XlQukPtqR8sUKS2vwf3ReFFpFC0xqoacKrapJT4T+uZm0SvDd+Vkh1fy4WPU68vDXcFddg9ZV67K9rysIf5Rcxwb0hXDVqN3je8XA60FD8ajfRomKkaqByUIUoBRapTOT4AHLS4s7cw3jEz4mnBr7e9YjeeeB3h0hrCCbixbHwuPraDg6e15HEHDjND1f6HAc+I8Lqx4H5Mj8aNhRcBW2EWNbSVaSSNRKoaW0QksVQg0qtGoYNKAIeg9D8mN8gGKxyVBmKXh8HQ1Hr15XHYSHX2CrPnvyXy6tY0fxZwDX+o7isc5tpNWIZCHKgRQc2Tzuw1KpfvUyyfuIOGYKPTTSBjd0S0sHJQs1jyy/JDy+joahd48+iFVPrD97WvVi9t9ArnocXIVrT4+WbdRCKxiy4BhazAivWpRCZCltLMerJu0LMUeIUBzBT9odz396PEJQUzxTbTKRbRV4fB31x6Coa3fdbtXJ+g247GQ5/EehdewofgOu48iMR9E2ispPqnb0vMVL8gwKZaH2Tgf2WkIhRIrPcaGpzuvx5bTl4vF11A+De1pV1edo3NvW1zFOvaZvV+s1X+xfx9ytYxsBvNBqFU4rREYWokTV0cqVhS2o0pIqtJqzK5NtOIH36H7nAXNgCcXdJjpL0MvA4+uoG4OLLUjVX1YQKaxrMa/zYr/fUVaNR8c2coUkUaAGFyIptJpaoBYotAIkukQe3XceaP1C5icUQg34+ZZF8fg6yiP5UEMf+ADqul74Rt8+8Eexuq4xnU6xubVlr28Z8iioulgshvzO+8jdsD0ajRa6GdtvnC74cQDg7Nmz3JzFwcFBr0cgDdtGp06dGryN9vb2OK2Cb6OhN8zzbXR5/wh/9yffhfsuHBBWK0Q6n77zIN5PsvuOeudBR6FlDY5/i5eMgOYhm8f+ljKYjkf45i9+Kd70aU8HTJN/qME0bv7ivvg2yuHY66ipyRwUQPR/C7qOFn2ooQ+WUeuOVWxBrmlsb28vFIAGA6BpDBpjH4U9mNeYN0BVGxw1wOUZ8NDuDLuHcxxWDWbzBofzCnVtoh3ES2phUnZMAChQhHfKjDL5hJZk+qqqQkNuWZK9xwu1LEs0TYPp1D2uS2yyrYd9uUVd18ka4eEXqv+4NR75XzdVGipUYwzmc2XuWB4eRWEfRfAfvRLfA8ltZOg2srajqsF777qA/Zl/NFROjv3DAjEYWGglDyBRaGF9o/GJJEJxRDQRpFU0jaKxYySvWpQ8LGW56XiEv/OFn4ovfPkzMBnbB26SxbbZBXZ/CTD0QJdYRwnQ66pD6gL8OjIjACOYYgMNTqEpzqDBWaDYgMEEBhswxRjACOPxGFVVr7TYYgm1TryIZrTASyCMMYOChgt8Op0C7f4AA3umenH/CO+/+zLe94mLuOOBK9g9rHA4r3FUNZhXDQwA+y/fv8ium+DjZpJXLJ07ssAyF6reUTq/oCoxBILZnL+kRA8W6usSYVuJsAXhVJ33RFd+zkvwtLIFq00m8DElArDRCTqOV/Sm+Ifu40CC1I7BGmfzUyyEj2jCT8cjfNuffSW++NM/BWVhC0DqU1hpLmDr8EdRmCvcdJVRAMUUKKYw2ADGt6GZvgCY3o6qbjCf+wNzv2u56651xYULF6KtlP14kcH+/j7m87m9P7IHxu6ZaWMM7rlwgPd94iI+eM9FfOyBPdx36QB1077QxTQmehmKoTtyQKskF6oTld31WDsyNyis9Y3GJ5IIRecpcgvV/tF5YUnkkduORs1xGflZIrn9iCoiCHm4PgTforWJAGzPGo3M5QPhrxVaTzg6DrBFj0IbSYwPNOOn4xG+4ytfhS/9jGdhVBY4OjrCbDZTC25pLmBn/p9QQv/kefVR2HpqCvtq02ILmDwVM/NUHJpnwhSneAMV6651Syu2u7u74QJ5VxBV3eDKHLj3So1ffN99+PC9l1DVDRpjr2E1xrQ7itjntELbEl0L1XkJ/jg7covuhRqbMwvViiqSOYYxWEPSoWwqB0nn111onUaDidBVaBHGjzmqigiCql0+iH3brkUAFr3zk7znjDOxQMK/i+fX9tEKIgBHxzwvtgcHB6jc27t4wT35xZbDnskalADGOBp9Ko7KF6EuzgNIf7G1jloHUmyX+nWevyCewqxqcMeD+/g3v3kX/vHPfwQ/8LY/xnvvuoCDoxrz2qBuzEoLbZ5nqj6QH4nTNjqNhrYgkeBTC7VFMkfXXddClXyMdKFlr3QkvCdF2MJZEA4tr89h6yIiCPF2F9qADC8tQwotCScOpJWCqOWRyq8VYqsMwI4veQ2+yK7jW/3Vwn6hV6BCgRk2qnfi1NGPYXv+cyjNBcDIs/fjoqvWaVj6LPtXo/mL43VjMKsa/OFdl/Fvf/MTeMvbP4rfv/MyHrgyw1FV20sEDon9M6YELwjJrWNHVunMQhUQ0QnkCq3gFF66xf7MK4JRa4tKJniSXyKPrvz0GTJ65IqrgRikxVIKbQg0Yj2676XVeT0/4Z3PLwFfcIcWjpMDtoHcnRQldjFtPoid+X/GRvN7KEy/u2qGgNe6Liy92MIFURQlDuc1Pv7wAb737R/Dv/i1j+Ndd17E4bxB0xixw7aiviOHL8QikFaaGXRHzjsca0ceulBjIlZlR4AYWnYsmrEOhZ0xBmKQFmp+ahiiX88tnF9gJKePH5KhzIrzI/El7jzovsWL8QGKRXHL5tcB/3H42jvDpfNo2MQYW3TNBWzVv46d6j9jZB50Z7mLzZOGyv1GW5/LCSuZXWOA+y8d4F//5t343rd9FHc8sIeqYR+z5f6WmASzhDsPlH5N+CfVbUylJlNdqJlCa+QY+hlRi+78GB+gWGwylNGoFrk7D1IS6yuoIhAXn+CJqB17Q1MryOZxC0uJXix68EJiTfRC2yJZaAMTEqJk4GTz2NdSst8h8LcsXhsFl82XyJ3PZYVRcz92jn4UG/UfLP2ygj/D7cJSZ9YYYO+oxs+9/wF818/fgffcdQmzWtkDB+zIoTWfT4fkQg2M5Ja2I6uFVnThoJKLF9qIYbySR4pvKcVfnz3rmwo7RQjeIplf1ExrbGR8qTwUCmgHl+aWERJzThdarW/RWAfhu/KzVKqjYfAFt+/H4qsDNjlR7obND9FNg8LsY7N6B7bqX136ZYW6xxNteesAzOsG91+Z4f/8pT/Fz7z7fuwezlG7J7xitISQmK9+RqsSktPOiODdrCWyEz6m1F5689FIIkSd90gWokhN8Uy1yeg23shxRp1DlUzwLkORhyWy+bVeCtn2IXlGJ/hE75ZxpLCliARvwvgtFxCa6rywmMjI+OWhaZoTXGxJssaw5LkcJpj4GhSosFH/Hrarty694Dbul1NSKPuc/nbhcF7jVz70ML7nFz6KP334AFXTyAM9YBMmc8BNsao5xhOc25EtI3nVQvgICgW0A0sziY3bRSiOkJ0oEI3dH533FqKKPlpbIgCtdjKyFTVnrdC2yBbaOPAkH6tyIOZFsOQDiZKLAc+RIFxNYg5xQoyXnaUPJMcDfQryZIBMsphYYgs6FRtpNxUmzYcx3f8JoLm01DnMFdyy7/UGDQb2aa8f/vU78JPvugeXDisY0yRi13ZYqLyRu6FAbkdmgqoGJPj0jmw5aZF5WGi8IARyBxL7R+eFf5KLBomhXqcdUmgdJXhBSHTmx27x0gdytOQB1V3kEeUnMLTQah2zfhmfcvNgXo9i8LmjOfP8qa9h13YMs89RVh8DLv0XoLmi9LU4/KcD/gmhBPlGbQiMAR68fIhv+an34Nc+9ACOKpeYuvYW2JGtGPFBSvBeTC9UK8j+Y3/mRWDzkJZl5NciVSO8v8gvQIlccTXIDLKUQquQtFUqwJAfQyBYoVW0wGTyk5ZUj3pAtn/Ok1YJPtEdIawg7Fp8qfweNWATbPiEc5lMbtaX6KYGDt8PXP5vgJkrfovDuB9JpQU3nO/W7l2UvBprMAb4yP1X8A/+2/vxwOUZav91a2pHpnPGJWbTvxAjrRJ82x2LIKhWiK1GZZI7slpb+ucXqbIjQAwtOxb5WTI4yOaxv6WUPmB5WWjVMES/HiE+GYiVEnzcTOtbKbSKWzY/dfbieEmknHCqxrdK8s6DqJnkFYtT4gAsxYJ61IHOj2H5GjYnfC7pZQPN163XMLcNcPBuYPcXAePfrbAc8DPc6OKCf2tV7p6xujH4o3sv4S1v/SPcd+nQPfFlJ0W2iplW821aW5onrRK82iwirJBqHlEKD9jBpSlmSKSccKrOeyTzC4zkaNCyuRJfatuq+cX+QmINjpufheg0U2iV/JLQvqx1EHwqD41vlWR+UTPRqc6l8lNcH12g88aTTejG+/LLBhTRRmD2Gtj7H8Dhe1kfx0fTNKiqyp7paq9YrOs6PDdNURuDD923h3/xax/H4Zw8ZrCEhdp158FCO7KJuTbemI8pEQCgLtRoYDmK4p/sHsfPTzaXA9kxJO+3n7S0Z+2tTRBO1fmoZRBFY/dH421kkSXwnBKDOwy5/BOCiRAiEGvR8skzWqLq+bVCrMa+rY310RP+FYtvfNnTMCqL/HsB6oeBC/8aaC5zywrB54bqPGeiGygbRWnL5rqF1wuYYgO7069DXdxqX3CTwCLvsz08PNRv/aqqSrx6rDHAH927i//4P+8RhVZHywuJz2uC90SyEEUQnWojCz6mtL61QusgeD0Ps+JC24dPFloXm7RohbY1qUSKD+PHHFX1QmQjiyyBZ1AowA28rEIrOolaRRxX9fxaIVYTPSZ3xGsdJC+jXTagCBPq/PjZrNI2zCm3Ub1BYWbYmv8SikKeaB4XVVXpxRYA5vN5qN4GwL2XZvh/f/cePHhlRkK0Ep8OQFuognBqqhAJQnKhS50XqjKQiI9DpbWFqimEELyGlFMqIaYq+bWM5OEOJNKikglezL5DyyZrRJgaLSGTjJkjnZ+FtAzZfg4inOPm1wqxNdFZcpBrHXRD8BypTjaAAbs2G0ipcxpQSH8dt8Go/hg2qt9Z+lNm4NdsOaqqwmg8xuWDCt/39o/igd0jEmb3GYOwKYSggMhRzL9HGIM5BNUKsTXRWWoQ9fKItlCN4D1M+EfHYmd8rdCVnx1f8kAqZC2/WGpBoovMpFWC92Lv/Awfo6XT+YnebQsZhuA9p5/Vtkry8kFoJjp1sHyqeUSl8rumYdh80RyZTcxr12UDXzyJHtmJHJ1tuIcejn4Do+aepc97ttgCwOHRHP/hd+7B5cMqLgzavqmTCZ588x3ZWuXaWahcsYTWA0Vq6MH5Qe+sKz++y6bzoztvCxaOUBbffsoXYgrTlZ9qkWGIfj3HwhFYqNDaoFtR4WNK6eOahmFz5QpeZKcIk+n8lnHZwMnBHPsWOMJW9ctAkdjwCyJbbGdVg5/+g0/iffdcdj+65qDVTsS5taLqub5CGxAzBmKQFsdeqCIcgcH5BSj5Ka5d+cndKPbtzi8EGrFBSvBqswhKobXJUIbwClLbT81KDyioYqKsJXaXo0kmzqMrP0upvVzDIPkYLT+qm1YPRZbbKfjZLLNxBIrbbCfj+mOYzt+z1MsJyWJbNwZ3PLCP3/jIw9FP1Og7MpkYTWIN9DsPSKsErzaLCCvI5nELS4leLNT8Yn8hsQZ6IWqRzC8wkqN5yOaxv6WUPmB5UT/gGomwBeFUjSetEnzcTHSqVbZkfnYM1gcsp7FAe4Yg7ClC5OEij07GZB7OS/CqhfARFOraBknItHPZ2rhORW5T9EApNqqbPr4GMDU2qt92X5ZRv8WhFlsD4J5LM/yH/3k3Dufxabsc1jHxH41wqsaTVgk+biajUC1GMIRXkCq0MiseEGF13iOZn1PVZiQP2TxuYSm1l3R+qr+ex7Hy07MQeQSJ8TEl+wZSd45kJlbwLkMjArFS1IQ0dv6WYZ2m4k3w6QPJtYhoItkOwmyB8yajXDagMj+b5XYq8yLL7VS19pH5JKbV8l7JqBbbed3gF9//AB7apT9dnNqRZawBPAe6IytI9u9gzaJTyWX49I6scbC8MwmPFCF4DVoeOZ5ZUnkolIWde2mOGavpeaQLrSAkF1SNbyOL3bR+keZVOi6ordi30FKrSjMwj5Sa6Ci9f16LYBMvCi2Fm93gRy8b8Jl3cnIyj+FLYzQ1No9+GSMs535jUWyNAd75p5fwrjsvkXG1HROCb0Xpny60lpBnRFrHolNd1QfyI3HaRidDVvOw0PjEWSNB8mASDtBaQtYieYn0Qu2XX2QXzoJwaPlof6Fwqp5fK8RWOZ5NT/KA5aUllZ82GalCS1oleC+KCIJqhVgVA3GvpSP1Nqrlg+VmeK5cDhMo24r5oL6RoLcNlGKjulggVinMAabmIyjTzzj0hpj9iwdzvPV9D+KoooHIlDnZitI5yldYOJTGwAI7cgxLSx5Q3UUerag5k+g0sxha65g1TKlSIJo2+NBCKz2RzI+00pqhdRHbz7H6F2LS1yR4wPLSkslPOnfm133nAQPrUNgZsvktEasvuCyHKCfD7Hwec1+CubahC9qX0m+007OYuJ6NscH48HcwKg56vTcmh2jmjQF+6QP344Fd8uDCUnZkjSethM3B8cLMJjG2C2/LpAZJ5adqekAsHIGuQisiYB3K/pX4kvlxwkGGQQMiGFpo5YAiP0sG347mHfmpvafzU5xDD9H3c61jv0KrdKxZbDKU0aiVwL8YZXUFl82NKGIUZPKMUa7NKm0Dxfui4NuY98P0HjGO8BDK2btQluWx5q48ODjAwcEB9vcP8Mf3PIK3feAB1LVP7vg78rAfapQd2wjSfaSaR9SghUqPniy/mHCqznt058cQCCsIO2OMpFq4Ow9ki5YREuuLhSOUZH5O1WaYBi2by2iHbb/YX5Mo9ELbIlloI4bxC+Un+142JpMJxuMxNjY2UBQF/Nrn/x8eHmZfRiXB4o/y4bkRPcwHt1OkzmYTelAVG5UNr1fc1+kGQFNho/kgxqMa0+kUR0dHYs5y/8/nc2xsbKCczWaYzWbYPzzEL7z3PswqVx6XsCPrt3i1yC5UlfGktcjmcQufh4pUfgQiP9ZgOYVWa6xYbDKUIZTSh5pfHK+wM0LPT7RyEI05YxHiZfEpeShUi9R2JQ2EJEJ0hCi0lk9uv0hN8cyiJJPKYFWYTCbY2toKxXY+n8Ovf/r/0dHRgGLLEo7a8T6or+nxJRgvnhSK3suX75jauF70NoOy/iS2xpewubkJAGLOcv/XdY2trS17GcEYg0f25vjdjz1iX5moLlREgQiJNUgXWkFILqgpXpkv5mspbSwI3xZ8QziO/GlZnffILtQA0ankEnxLKf6ZzwNJUvCCEMhNrzWl8usutFle7z3KQ9hEKI5IFNqURFWxSoLanV/rKiJdC5ZzSYHEHgqTYqO6AWD4562Mbyz4DmLdpAqt5puxUZ1vl2Yf2P0FwDRommbQW788SgCY1wY/9Qf3YVbZhxd46hYL7MgZxzYX0dilLXkvRBYTGRmvwG0YaY7zs6KeRzo/DaKx+6PzQlXya7VEAB35Oc39qzm76JyZ8kGKAhQd84ZOFR0SXqEVHuj3hV8LjXdEgjfi8gFBaKrlEQlETXTGF/SaUdf1ggXXxDmJs9mEHs5mKRTf0ETri8pdxZPIyYLMdINEPg1w8AGgfgiACW9G7P8JwBXbB/fm+NAn9wC3I0toOyxU3sjd0KFl9TGoi+iUC0SVndn+Je8hLXGh5SaVEHyL3IHE/tF5L8TWxECpSVSfENMKraYkqYhdWn4m0gIsLXlAdbck4UmkLUm4MGxkbmOLh5Yd984vATt+l9d64H+Cu3/BZfMhChNFmDDnx325HiZHsTE9UNzmOSJH5oSvQSJGigqY/XHg5/O5eBVtDmVVG/yvOy9hd1bJvgERbCtqzmQ3TCS4tB1ZGz70nzaqlhQp+ER7guQaSuUXwPKD3plNT/KA5fsXWi0/El8cSCspbQCan86rt3hJ7878pCXVox6Q7Z/zpFWCb7vTOmwF2VyJL5XfVUJVVeL3siTIpBmfA82Dy8RXfE3L86e+CRvVA6XYKGe4L4+h77jO1zTA/h9EtiE/mFtemVX45Q89BNOI3YglRkV6ZGltjReijkirBO9FEUFQrcBUPhD3ipFaqCQoTWqROpC0WCg/0zqkmkdUaqGqhVYNw0pKN8MKrezYtlc61gqtkkdXftISx0si5YRT5X5LleSdB3p3hLCCbB63sJTo5USgrmuMRqNEwaVzwSdQ071oFrhswGxUF8WTyopvZKfgMXJfrnu6AWYfRtlciHx8wdXnrkX57ruvYHdWi3BswJEmJAptKUStIrPsWLQOhBWEnTEGYpAW6kKNIfJjDVg4Asn8koyHkp9NhjKd+fFdGoj9NYlCL7QtkvnlmhkkCi1VCJXKL7F3Adr4gnCq1gNplQow6i7dh2yu+CrUSYL/le24aNC54AkkdON9qV3T6Vzxvij4yYHSD9WzvkQfko9va+YYH71LvC+hzxlu+b67L7c/Q05BY+ISi0lfqKRVgo+b8UQTXEg8SxHoywxoNwqJlBNO1XmPZH5OVfMjQcvmsa+l0oPrlpYVkghF50N8MkAFotO2fYKPqXS/uokvKseRPy3rCP5p1sFEXUkHJQs1jxxvc5D8SYMvuDZWMp9iI1Cd+WZv6fJcaq64Pz+b5eMSOdqQGV+DgfnEttH8j1FA/nQO/XUbDeUdD+xzTgkEbHDKul1ZayK6kk6WEZ1GlmBVBmop2TcGLVQHwTtC8BbJ/FzgbRYEqXizvIbUB3ftQNKaVCLF5zg3jCj3IQ9mCTyDQgHgVZBA+9Sl5xEVWmbJSbGa4pmayC+K7xqAv4YLwO3gNHaqM5tp2ETznJ1/aJbq1+mieFKZjsv3E21cLyrjBJ3IJu1b1vejwIzwLXJnuOXujL8+LA7UaiSAyJYqtK5VxIvGXFDVAGWgVtMa9Su0UR/CP5Wfhd4/Rz6/eBpkh3YMyfv8pEUlE7wokw5kVnQHHjjjTYZndIL3kJbU9uMKIVJ8dJ1Wixdyhph/bBUDWSY5ietG/ziMccUuZpnuYOAKLSepzIsst1PwIpvxzcbI2mZ9CUKMggQAFGYXo/rj4lKCR6rgllX0rcCwHVmNSRKSc+pxduTWVRtPuDuk8tMKkaMUHuqwsuPe+SUGYl4E/QptK0rPKLrITFoleC/q+RkZuTZ86D9tlJZMfsK5O7/B99IGsPwQkolg05P81cJ4POJUAoYVT8Oydbrx+XX5UorPB/ONduwevpHN6yyGEGdESD3Qio3p0/nvosj8bI5WcMv2ptxhO7I+DGkl2jg4XuzIQbVCZE32lTAce6G6+BRewsQBLpIf9/VMMr9ECxkGDSgCC0coixXaVpD9x/7MK8bQ7SdA2kc7auvbfeeB0q8J/8TWpKtiuIoY9X1PoDFovyOjORg6QbHeklJP+jI9qIqN6uJMg/sS0Wh9RQ6E7uHr/oyrO1E0+ffctte/LdydzMN25LD/RmbSKsG3eWn9IjjI5rG/pRJ9DF2o0jkTn0Vq6Da/FFL5xVBSbqHeeaDMD5VYXyG/RCDd248hEMqdBwpj85NegOVViwwjGRALRyBZaAMjORd0Kyp8TCl9XEUUBTCdjEkRTaMojPuITHPgG4B/28jl1JliQg+UYotUZZxIp8jpRO6M0ck0RjPDqLmP+OjwT+nBFtt4kFbjA1gsXGgDIzmarGyuxJfakRdZqAx6IWrRnZ/Ckzxk89i3pWTfSH6iaN3bVoJwqsaTVgk+bqbFphRaJQ+FapHafjKrFowIPYgzWi1y0ZgzFiToyK4kYym1l6uMAkUzx+7uLnZ3dwEAOzs76v/b2xsoCno90uVjfG6LXjZQfKOz1B6+kZ3KRDdQfLlO/biNj+up1lagxtboQezsnBLzx/+fTqfY29tzZ7Zk7EiiYwLHW6hL25EjqsWgheok1kDPr0Uyv0hN8X3zM4K36P7CrzULwqk675HNL0B0yisb4bX8JG+R2X5q2NoOpTm2igHNUeZhGcmrFsJHUKiTAYOtyQhVVaGq7G1L4/FY/X9UAoA/s/VzajrOZp0empC23haBF9mULy/IjtNk4+P0nNYvj5HZuB6oKAAADcrqTzEeGTF//H//hrXS98G74oTxiyHiRSsHyVtGdKpb5EAd/JCFKgin6rwO0dj90XlhUfLoGlbsb5ZVyFQeeT5baLP5tVyQGB9rIgDLafQgnuyfwuZohQdE4IxXGiV427/kTwIKAGe2pyjQ4zpCsw805D5ScQKQ0FPzyH2jnbnLl6jquF7M2Dr1hE2NkYxz9HGgOSC2PNjbJ1xHbGy90LYwbv6cxoyekbzgMnx6RxYlwEErtK2pgxDoWqgiiqB2F9rAJwbR38QWbyc5BlVT208QkuuRX6TmtER+LBWVbEXV2VKGD93GljyYODGdH1PDQDHakU4myrLA+VMbPa7ZNkD9gK3OBit4HWLGRnVRkDt8IyR8jffldiq7cQ3RIztBswccfTTmMrDvs0X7L+9vGQs1zTNVHyiOj0Ol9QWpk2SZaWbwbUkUJ6YXaoqPkT2QDCq0Wt6CcCCtOlxEBCFe7TptorMMLy1D8nPxGRFIKwWROTlRRBD58yFlAAbRICcOZVHghjNb2NmacpOEqYHqAZcPvzxEc3RzGaaUzS2XRfGkUHxVG9MNn/dEDMGP27hOqcy4PsZmDhx+UPHVUUZuShuFith4RybgsTPeC7FdeFsmtSMPXagxAayh0MpuYyblBYhUWsgwkn3o+ZFWCd6LIr8AJXLF1UAM0mKR7ccQekgE0n0vrc4Py4+zJwtlWeBTn35znwsINpnqEywpo+g0eT4BzDc7iQv6qsWTgsbIwUnqq/WbirEGZh8FjHx0V4N665eH/msLrZJaQ20zHqiH5eJupZ9J8IDlpaVjobIGQZUdAWJo2bFoxjqUzeMWlhK9WKi3eCHqQ0isK70QtUjmFxjJ0Txk82H5qRZCtqKeR+hBn6j0LV5Rd1oUisUmQxmSn9bHyUFZAK9+7hM4rcMcAtX9lGAynTyeN58Lfjab6AtuHvv4GucbIeOr9kVlfnbObBQiRgD1ZXs5oQfErV8WZmChJUpopvRLEko1jygxqQ5DF6qRYyxciKJmWmPFYpOhjEa1SOXnc4maCsKpGm/a+ARPRP3YS4Jm8QWeU2ovaZ70ISTWJF1oLZ8stBFEp4GTzWNfS6X6PVk4vTXFs55wntM6qgfJmRrNj2wHMR+BbHWtMAWZ6Mb5RnYK5pvrK4pRszE9UIotQibG5ootuD0Q3frlod9L2yK5UAMjOUrJ5rG/pZQ+YHndorEaR+LTzen8omassZLHQnzy84BWaFuTSgi+H/L5dRfallfgJleatfwE4VRHJApt7C4auz86L6Dkl3I9qXjS9aexvSGf1VdR3QOYOctyaGFiuip36WwcUQ8SeohRsVE9UIotkrkvs5sZMPsw4dIIt3556Ge0KiE5Ps8eYQK6F6ql1F7SPBvYinoeCxfaCKJTXU3kF8UXod87D1povMtQ4eHyU3N0gamxhQ5TPKMTfKJ3OrC0pYgEb8L4CkJTLY/WQlRtoI5BThbKssBTbz6DzY0eX46hAar7SM5uNuIJIaC65svtRI529IyvmGvN1+km/CNtVI/GZTaqRxS1Ud0Ah+9jNh3RrV/pQtQSbd7MqXOhMgvhIyiUhdKHZwgpx6CqI2QnCkRj90fn9fgSWmqharUzmZ/m3F1oNT7LpfLTB+JeBDZeaVHJBE/yi2ztqOqBhIhd20/yMdIHkpOJyajEZz7niWjquvv3sswcmN8dT7A6P8Tu9YjK+IqzCT6XzFf0RWWnm56+wSXn6/RAab5eN/aSy+GH3aeBPEixFbuhQ8vKxeoQBabxDAne0pqx30IlkSrOghDoyk/MEMs7sqY6y/DiU/Gg/BwleEE4yI6FZyCUW7wU2PETXmrImfwE8oUWYmjZ8aDtpzApr5OMW8/v4AVPvh7o8XJrNJeA+n6bY5hnPuF8DvmG7fBtFcWX6FlfghCjIGM5UB2+UT59fI39UnH+Sb4DCoRiq1+nbZWl7chSaDU12AUKrQCJTjOLoWXHIr8Alp9QCKXmZ/njF1qFpK1SAYb8GB+gFFpjONOZn7Qo7anEGtj+Od8qyS/E9O4IYQXZXIkvld8Jxpte9nTsbG+ER0cBYDqdwhj7c9z0/2bvnYA5EnPTguqu0EQ2r1PZ6cKXykQ3fJ61GPjBgNkinfpxG9OjoTK+poljNA3qwztR1XMxp1VVoWkajMdje5+tfp22VfotVIJAWEHYGWMgBmnB50AhSaSciFXZESCGlk5aqXBBt6LCx5TSBywvC23chciPQb88Qlol+LgZ69sgUWipQiiFt9BmL46XRMqJDE9aJfi4mehUtxjBaNQ1gVObE3zmC56KM6dPsxfNbKMsS+zv74cX0+ztPgyz/16gYe9EAHRdTpoiw26cIb5JO7EZpmvxIVWQE3qgtL6IrL7nt8F8/6PYvXIlzCf9/+joCDs7O+TWr2j8Vhm8I0dBa91GjEa1UM+IYpBIOeFUndchGnPGggTdLz+1l3R+xF9IIkSd90huvwii08DJ5rGviC9C6uU5mnsqD3L5gHBBirYRcYq6Y53KDhfjTzie9+Qb8Yxbzqu/+mqMIbxB2TyMErtKnnzu+hYm59sqaV+jnflynYo8Rgpni2KkMtNFPhSKr2YzBqP6HqDg7WPYJ8gSPsmFGuWjNVYsykAtpfchWWP/j8ZnZo0QvEW8jZlTGEbyqiWVh0IBdnCXDTekJRGKziuE5EJTjbeRRZbAc4rvhB6ZIxXhrajnYXwM/PF8b08V2giiU11N5BfFd42gKApsTMb4tq/4DGxM0r/OUNe1/XhbjjCp/xiFOSTWNvugp4oN9xX7BJeZb4SEbrxvpi+4HcIkbBH4/sl9iR5dNtD6bTBq7ut8Qk/c+uU7ShbaCIzPusXGVtMaDTkjgiUFr50RpSDzcLMgeMFleJuD5H1s0rLAgUSg5XMHEvtH421ksnfJZKFtEkZGduEcgtT5hERVkUVQrRCrYiCL5I54clEA+PRnPxFPvvksyo5fZ6iqOUblEabVHwDhZ154znxjUoXPsdJWlbmvUXydrm4fRQ+UYotk7svtRBa/rUbhfQ3K+iH7tjQxdgvlrV8cjAv567wXYmtCExvGQaVTC5XvCJYTFENqaJ6H5JlqIi3AMpKHO5BIi0omeJJfZGuVrvzEDIU8lIYpKjWIenlkyPYjVCK/x9YPNfZHURSYjkf4C695HiYlW94qDIrZB1BiTzlzdHMQzR21M7mzeHpR86VweuiC+yp6oBQb1aM+E+MCiRi57kUDoMa4vkvps0V061eQUv6OH7QjpzrL8NKiLVQjeA9DzBraoZmTE0UEkT/vVg5ix5c8kApZyy+WWgwttLLj3vkZr8T+ltJis7xqkWGIfj0XeohOKlrf7pfL5B0iq+Kaze+EoyyAN7z06XjFs57YeVYLAAUaTKs/JC8L96DFxkhbtEF5sevwjZDwNUxvSSLniicbR8RIQdsa9lpJrV+i+3yMwai6I3sm3L6IxmHwQg2wfKp5RIkJd1AXaqoQccVTCkmQGrrNT+f1/IR3Z35yU8S+raYHxMIRyuDtF1TlzgOF6cpPtRB/IeXDEUje4hUYybmgW1HhY0rp4xrB6e0NfO3nvRil8qWYhL3WODZ3knkw9v8wBXwu+Aaj+lBfrlOa27hO/XLjcnvOl93SlfM1EL6T5uPZX9yNXkQzeKFaMjjI5rG/pZQ+YHnVIsMQ/XqEHnRzj/wYH6BYFLdsfurvh8XxivxYV3p+pFWCV5tFhFJobTKUIbyC1PaTWSUD0s9oraX9N+aoqkZA8ujKz1JKH9cINqdjfO3rX4Sn3HS2x0vCgQJH2Jq/NX7xjKHTQuciMjhfbqcy0U3Ol+hhmwzx5TYeY65fopuGdZfwNXC5cDuA6hGMS/rbbTHCZYSFFqppLbJ53MJSoheL1EIl/kJiDfRC1CKZX2CM5EkesnnsaynZL2D57o++ScKpGk9aJfi4mRZEv0JrwhhaH4nth/YMSdhTRKrQRuuVNVYvzcR5RPZUHgp1rWBUlnjFs56Ir3z1c3v+ZHmDUf0JlI1/nSI/m6WTwWTT09eA75iKr9PFNtH65cWT2aguYqQgujGJe2ep7kXN1uoF9lFXe8mn9OwvNUSx8MA8I3nVYgRDeAViY3i0vJBYE70QpSAa6yB8V36WSnXEvT20CqHn0ZVf1/azEJ1KbhEeqTtHtPyQ4F2GCu//FSaPYNDyU6APlDmQnHwURYGbz23jb7zppTi12fH+A4cCM2xWv4kCR/0Lk1Azvh2FKfZluoCzqTHydnz/4r5U5/cUKn0FMWNzemEOUOAIVVWpBbcUfVCEuJmTUbgMn96R1d7pwNLWTQi0OWp5QJ6XEf/IkspDoQLUs/Z4h7CinnC60ApCcj3yk6rsl3nFUGktP8l7Lgwb2dpRkwcTJw7LT4J5XXPYGI/wnV/1ajz7NvsOhE4Yg9HsXRg3H1fnvJWZHm0ILtPtkrEFzpu4XdEDpdgimR80uJ2qQy8bKDamF80hivoKAPsoNH/xD7sbgXQSBU2QUk2kBVhG8oCdGGlRyQRPlpmwWSQPJmEbZhNivOwsdyAxqS/EiHvUUnQjCIeWz+Vn/2h5QL98wH1D2pIHLC8tqfy07ef750On8pMdiwiCagU5ZMzY8aXXtYRvfNNL8Gm339rzSzEAZh/jo98j12z4BmCySRUx1s7wueTz6vxDM+6r6NG4zEb1iNLG9WKTuWzA+lUPBFR2ehANRvUn7O+4KS/+0W/EC32woFkyscp8Ay15wBqlJbNQBYYWWq1j1pDxKTcP5hUh2j8ptDCgOafyI60SvBfF9nOsWmiV7WQSPGB5aclsP+mcOGtvleSdB1qziLCCbB63sJTo5ZrBqCzxZa+8HV/92udjOpEfW1WYCrj0X1DUDyrFBGye+XbjvgSiLy47PWwHbqegvpGg+yZjpOMY5bYs3heB2C94v1RsxxnVd0VfTlZVhdLd7+zuRuCNlTACYYXYLrxdDJIHLC8tqR71gFg4AoMLEetQ9q/ENyi/2F+TWhyj0AZGci7oVoz4GIvlp4l8MXjWkdH+3zr2K7RKx5rFJkMZjbqmMBmVeMWzbsWbv+glaKo5Dg8OcND5/z6OrrwfOHyvuwOBToBh85yxcb3Tl4p80rkvP/PldiJHB4MevpEtoRv08PWitI2buzGdjLCxsRH+B4DDw0N2ZkvGizvxUCyKmwEPmEBdqNHAxC4Ip+q8R7IQpZoFwgrCzhgDMUgLNT9oWSUDYuEIJZmfU9XxbdCtqPAxpfaSzq/3gQSJQtsiWWgjhvGD85P8tYLJqMRnPOdJ+Cd/6bU4u7ONam5f7TebzTL/H2J+8EmM938GAH3RtWHzoBUmKhPdIONL9ODHffm4nlJsXI+Gyvjy1yFmfZVxItnpxvtSWL1sHsbW5ghbW1vh/+l0iqOjI3kZwTZhHZmEhfAZiiCxUKG1IYn14i2ShShqpjVWuFQyCmVh85PmducQthQheA3MKQwjefsPm38lP0slBk/xfDzKiVAcIQqti1wGqKgpniGVH5OuJUzGI7zuxU/DW77mc3Dj2W0AQNM04aUyOgwKVNiqfgll8xD5OM3nsauIUdVk7MSmbIO8nrM5PVAdMWQvGxDZgO94eV8tpiDOgfoiNQJuG7XFNkqAgI8TKbGvpYzgLfiG9Ih5KzpChOKWqtoPn6+EE+dTqjJQm5nWt72XVlpUMsFrB6N2VIgcCXoUWp1nUCgLtfcoDzGKcHYEXwPEUZOoKmYoqNqBTgRgkZzEk42yKPBnX/VsfM//9tk4vSV/U8y/pFrA1JjO34lJ9T4yJ3weqc5nkshGO/PlOhW5TdEDrdioHh0MqI3rQ2LUbFz3ombj49ZAdYFwLaJf1+3akWOe+SaoAK22ELINmxAEXZcOYojG7o/Os5GdEPu2Ni0ANTnBt6LmTw4kwmbRDs2c4sCTfKzKQZgXwRJfnqPw/t/uBz+YQ5xQDGU72fElfy1gczrGd/z5V+GbvuwV2Eh8Gaaf4RpMmj/B5vwdQY/nixYmxUZ1MXcJ3Xhf3hcFL7IpX2eLmiv2oHa9DpH6ZmxUN9zXk0w3sMW2SRXb0B9rHFSN5wN5RvKADVRa+AQSDOWjudDi7c4vtiYGEhPuYJSTNZZfK+p9dLGpobvzY3cemEgLsLTkAdV9YH6pA4lVjBhadizyC2j7YFQEO75iOOEYjUo87eZz+KFveD3+zGc8G5uTcfZRXGNMVHBHzd3YOvo5FOBfiLn5SE6J4tsqzE50O9HExnXnG6guX0pp4xJZXDagIL4GSj4UZFzD7VoMJB9TAXWq2AJyRw6qFZgqYOPRjPaoKS2ZhSqcjYyPQR0abcfp9iw/oRAqNcige2np0byFUXnSKsF7UUQWCOUWL+ltmUx+0pLqUQ/I9s950irBt90pHYZOtW5jf0uxPq4BbG1M8LoXPhX/4c1fiFc99zaMR2W20Hr43xebjA6xPftvKHGJzYldl5HO7UHUfCmczrYJI4lO/biN6VGfiXGBxJdgXmdtDe+Ly05Xx03EEPkaoLqs+AKluiMTQTaJGTuO9AKsUbUQshU1TxKdZhZDy45FfpbU8yN8TCl9wPKy0KphWEnpRo2PtpIBRqKShYNSaBW3rvykJRo4zi8mnKrxpFWCV5tFhBVk87iFpUQvJxqTUYlPecJ1+Ed/4dX4p3/5Nbjp3HbnrwBEMAaleRibez+CkXkgPuMz/KySzg3RjTZvGV+1Lyrz4knBfEWMFHQck3lAwetU5TauU1Ebl8qZfJpd9Sxb3I1gYRtHXSidWooH5aAuVER9CIk1CKreEYN0kkxMHjc/OZ2xvyZR6IWoRbIQRQzjDbRvoDL5RRRBavu1bUR+ooHGk1bR8Uc0dozkVUsqGYU6iSgKYFQWuOX8Dr7qNc/Df/qWL8EXvOyZ2Jzq12fTMChxGduzn8XI3BvvC6LYUOR0o+he5DbovoHq8I3MOV/tbJaCxujjVGxUD37cl+uUUvqqd9U1qNxnyxvrvEIRpBZqO5mtXRBO1XkPE326IU6GDiM6DQ6RJfAMCgXYwXVTywpJhKLzCiG5oGq85Yxwi30tFXkR8J3eQ+MdIUJxGTbSBjd0S4vGXCCq1pnO2/1D8icRm5MxvvJVz8JPfOsX41u+/JXY2Zz0umTAUZhDnJr9Z4ybO8Jjo3a70XngMtHjhaXMn9NNmGBmU9qG7cBtTA+qYqP64PcacDuViW/KFnHUN+HfXOkotmywIIkgKMWDsZzYBoD1VXmtG0cI3kLvnzdjTiTeyJLII71QbRGRFu1A0ppUIsWH8WOOqqLch3iPfyAhqVBDRFpRz6PPgUSTqKrnp6gm0gKi+E4oiqLA0285i7/1pk/Fj/6tz8PXv/55OHdqc6EiCwCj5pPYmf0IRuYel7srnNFk0TkhsoGysLiv08Wca/26cfv4ihgpiG5M/8sGapHlOhX5uBSubeiC98P0xGWE4vXf9w6yX1shVmUQlpY8YHlp0Raq5D2XGNZCNIk7ZhkEngqxKgfKFloxvuU9KWITzmK6hRJPLVHCGKzTEK/l4/5FAI6WPGB5aVlw+0W2Vlnq74cpedjxJX8SsDUd45bzp/C8267H57zgNjz3yddhYzzCxnSCuq6xs7Oj3yubQFVV2N29gnFzN7Zm/wUjPGLPaEX+GX0VvmybSdnp8cZMyFCKl9JXEDM2qpuMjcp9Y/T5TG4BnvTPgdEpIGyjXRSvf8s7oh7jfnlnPj7JA5aXliELFXahKbzHYoWoFWJVDtSVH9/kPI8ov5iIo0vksVh+JjjI/mP/9IHEGlULCSqShDNpH01U65h8FNeJagQk5ri59LWukl83RmWBUVlgMh5hYzzCM249h5c94ya89Bk344YzWzi7PcWojO8uGI/H2NzcHFBsDar5EWaX/xBbRz+D0tjX+8X587lgetaXcGQbCBuVA7UsXyhnsxREFzEuwbdXjMx3dBZ48r8BRqcBWWytV9SdCMZTfFAHdaFmCpF0znz8tFisELVC3FwO0pXf8QptKj/SKsH3y8+gKAqUBTAejVAWwHRc4tTmBKc2JtiaTmBMnf9Wm3VfFMBoNAp6V34+wrqqYZR5TOYHYDwaO0a204u9vYm/adhWUcalGI1GKAZ+Tvf3rqYwKgsUhb3uujUd4dTmBDed28GTbjyHJ990Fk+56SzObE9RlmV2/o0xuHTpEqd1mAYFZthq3onp/NeBZm5nR+RPdSKbjI3qgV7Ul+t87Xf5psZl7QznEv2qMR7TN6IMTLGFK+d/AE15FnAH0Z2dHRSvf8sviTBl4J7iAzmohTb2jyTFWS9ELZILNWrGGpM8ZPPYt6WUAFKFVv7RCKdqPGmV4ONmLV+4xzdHJbC9Mcb2xgQ3nt3G82+7Hs+97Xo845azeNL1p1GWRVjge3t7eoFKwO8kQ3F4eIj5fB4VKGVWI5w7d45TnajrGgcHB6gq/xta3Rj6Md3DF0HtIBJvlwKAwebmJra2tiKvPtjb20Nd1/ltZGqU5hFsz38W4/qjjuNxZfSsL7NlfYke6ExfoGtfsVG577joipH6cRvXeS5cUdoq+RhsYPf896AePQHgxVb2HXdqKT6Qw9BCGxNO1XkPJcBItYzkVQvhJaUFkPr9sHaiW7MgnKrxpFWCj5vFnd54ZgtvePFT8DkvuA03n9vGqY0JNiYjFGURcuFncLu7u6jrGkVR5Bezw6LF9uDgALPZDKPRKHtGSLFIsfUfz4aMs2ixvXjxIsqyhDH2pfBd2NjYWKjYdm8jg2n1v7A1/yUUZtfthzQeHhvfGXv6un0ohtI2UIqN6hHV5dthj8S+vhkb1ZeQjyk2sHf221CNbwfIOiplm7hjS/HBHFKFlrBCYg30QtQiWYgiNcVrcxL7ivgiDLmzIpVHirfI5hcYg1FZ4DlPOIevec3t+H++7rPwU//HG/GNn/9CPOe263D96S1sbYzDWWxR2G+6NfhikbIvE/I5/dXAj7PqnJqmsZdq3MugV4XUNho1n8Cp2U9g6+hnURh3e1GyMJlYNz2LmPE7JfdlekRxXwq+VjK+6pNgVCa6GiOVnW68L4Wihya5fp0eUZqvQdHsEt4ieetXzGtIGbQzvtYUqylHDaKx+6PzwqLk17omAuDzqpBWTOXhYlB4iGFlHmVZ4MbTG/js59yCf/6XPh3f++dfhq94xdPw3Cedx87mBJNRibKw1wuHwC/mVRcNuLPPdRRc/0Z8XqCWjaZp1EK4bIRtVBiU5go257+KndmPYFJ/0L7nwPCdkypsBxX7N/el+2/O1+mBIm2DTtHX13TcbUBkgx75UJHbFD2KkULRI1/elxcNYA6JzYK89Yt37BnJw53xSYtKJnhBCIg59XB8rtBKXunMpAcxqeu0xD1qKbrJF9oUVxTAuCxx89lN/NXX3o63fNXL8K1f9EJ8yi1nsb0xDl/GLANN00RfgK0KVVWtZZy6rlGW5coPIv4ywkrHMQ0Ks4/J/J3YOfoRbM5/FYU5BMBv6zJsn6I7qGbjOhW5TdEDpdioHhWIjK9xvik79xU2rns6YeN6oLkv0wfmUxj5PYJ76xcPxDGJQqS4u4AiTUgtSJnUzGJo2XFXoU10G5DzMurlkUx+0lmj4lbMoSjsM/FPOHcKX/UZT8e//CuvxJe//Km47fodTHq+gGQR+AK1aqzzkkJRFGs781z6OKZCaS5jo34Xdmb/EVtHP4+y/mR7L11qXXCd72ApX+N9qT3jGwu6bzJG7tsQTouB6EPySdmoHrrXxqUYkA+N0RxRC9D+BlkMG4PkActLS8y0mpN4TEKIsdRCa5OhzAL5qWGIfj30yyOkFePLssCpjTG+8FNvw7/+2lfiqz/zGTi7PV3L9UG4M9x1jLOuSwp1XWM0Gq08p+Wc4Rp3rXIO1JcwPfoNnD74QWwd/SxGzd2kyNIzQMN2LqIbvoN1+Ip9WNFDE60vKvOzP273cL9wG/lSEN2gXz6BVmxcD36ZcSNfokd2IpMYi6Jxr7SMIfYSGwcPwkEtRDRRGoIgnKrzHrwQcVE0C4QVZPO4haVELxbqpQNEfQiJdTU0v6IAPuvZN+MHvvoV+PrXPQvTMbmM7pyXfvakIPmW/yVjXZcU1nUN99jbyBwB+78BPPxDwIP/GNOjX0aBGdmB4oUc71gm1g3TxU5I9k3D7VrbVGFS9KjPjO9K32vA7RTcl9tY20ApNqobWpAbcnCkv/NmERVb2zcPxEEttDFaO02sxdBCxEX7R2usWGwylCG8gmR+7WS2dkE4VecVAmUJPOXG0/iOP/Np+OY3vgBPuWHHfdkVL1p/1nm8s6d+WPeZ56rhC/uq567/NnLPzc8+DOy+A3jk3wD3/33g8s8ARx8Hmj338hi/H/X8CGucbwTuS/dNorckkbkvhaIHSrFRWTwJxselYkdfkdjly4snBdOjOe/h2ypEti995wiMjYN37tFdiCKO/GlZnfdYqNDaoGMuw9sxJO+jkxat0LYmlUjxYXxgczLCC59yA/7F13423vSSp2E6zl+T9dchuxfz8bHOgruOcaqqEgewVaCu7dN5ZWlQYI7C7Nsf/qsfBGYfAa68DXj4XwEP/GPgkX8LXP7vwOH7XYGt2jMiD7GQue5FzcZ1L3IbdN/g1uGbLEx8nNwtXUwXMWq6pzUb0wOl2LiejDHna9Rrz3VdiP27+NzvfbsNJVVoHS+tcaGNvJjzwoWWqKLcB5XFZyKN2bQA+t1Z0Yqas4tO4UGGLQrg1MYYX//65+MLX/Y0nNqYAO6G+T7wZ4Pj8Vi/Yd40ACq7eM0+0Fy0P9FR7wI4xPxoD02Pm//pF0yTiY1xCKqq6v2QQVEUMMZgY2ODmzrRNA3mc/lxrUW7QcqyhGkMxuMxOWjpF40s4o05m8lbebxLUVTu5S8VyrJGYWYoiiOUZt8V00O3bQrXiPbNdxq+f2V8xf6c0NWdU9EDpdi43MsXw27p4m17+/J2jusV45B8tG0j+zKY4HDnL+Fo+w1hze7s7Nhia7cZH8RB/Xi9jELUot1nmJNTRQTMP7KKHdDZFR6wPN8deB698rNixAfJ2Edrbzm3hW/5kpfgFbffghE5S+1bbOEK7sbGBqbTaXuNqNkFqoeA+n7g6E+B6h6gfsTG4Nc3wAN8lINvQJo7nwenR378rwffBxQ715Pzz3SxjyZijuKMSCkv1dfpgVJsVE6eKTK9c9wFfNUYeTsMiJHbeNVo7QZjHOx8DY62PhdFUWA6nWJrawvF6/7p2/neE5q4/1SeaCrvOTVnguRZrRNFobVkcIibS1/rKnnA8nzKeB75/Fx8gietDFAWwFNvOoN//fWfjVMb8qXQh4fKWVMS9mGEyaREWd2D8vBXUMw/xmfiMQ66AbV5oRzf2Py6IoXTA53ox+sRpdiDmLFxfRW+x86H+WbPZpk+KMaEjcpqLgm9dz7cxnWqGqCY4vDsN6Da/pxAb2xsoHjdP30bj8Ji6BltTABrL7SCcZTSByzPdwkg9o8kpRv98ghpZYDxqMQrP+Um/LXX3Y7rdjZQ8ko79L0A80+g3v1NFNXHUeKK27GV4B6TYPMgtj3ViWyQPVMJcqBy/Q4YF9w3126Ar2F6S8Zyr3z4vq/0Q/WFY0z4qjEO8eX60HyYnvI3RC82gFv+LnD61YC7rLa/vy9v/QKQKLRK31RiDYKqdsT3R+mkRkASks1jf0spfcDyfGkBsb8mUfQptJNRiVd+yo3431//LFy/s6kW2l4wR8DRh4FL/xm4+MMYzd+H0lyKv7l+zIPNg1j0XPeiWWKh1cbhOlUztijGnr5hOO7LdUol+hKyplPkvgRjMagxUuRiHOrL9Kg574vAUF+jfgkW+fJxRvELnJqmUYptqtASVkisgV6IWmQLLZ8PDxP+ie2Ejym1l7XlNx2X+Ozn3oJvfuPzcO7Uhrh00A8VUH0SuPQfgUv/CZi9DzAztuEf6zDxXJieZ1fG7yPcl+v+j2ZjeqC4zXNezMVI2hrnK+xUJr5i3EQMSV+mB0qxBd30uHeWiEvLx9mCS87X6YHSfIkebRu+1qgf93VkUYYXh1OwYpspRM4g7ClC8BqYUxhG8qqF8BEUCkAotNLcP790oW2JcVngs59zM77hdc/BtrvjYBiMvYvgys8DF/8dcPQx9/ifGPQxDjIfxm7fGFQnW94gv4i8b2ii2CjEWRAF8xdFlute1Gxcp6I2LpX75uMOBIHq4ZuzB1Gzcd3Tmo3rlOI2pi+UD7d5zovczvQyW2xpQBRD+FSxbiHWg0fgmYNRuAxv+5e8j01atDyQ4AXh0PIFCrzoKdfh617zLJzZtDfUD7vPswaOPgJc/GHg4HfdL3Wmxn0sg88J1fmWJrIxx7xsQKEVGyozPenLdG4SBImxa9FT31hQwPd5pZ+AoZcNKDhBY0zYqB66Z+OkfKmuylAKMu2bjSOKGOu3GAGlvDWTPBsqhhdkK2rOQ74Q48H7P6xhSjWRFmAZyQML3EsrkMqvVQoUeOqNO/jOL38xzp2aAuRpqV4F18yAy/8NuPgfgfphPtDjANyc0I1GixizBc6buF3RA6XYuB5UxUYhdj7u63TjfINd65f48nE0PTTJ9OX1oCo2Kov3GiR8DY6RT8I3GpdC0SNf3heRo+KZ+cQT7WvexnUAxZa9lMBgGfU6ZqYQSWdL8bEJ4kJLDf6PznshtspB7PiSB1IhZ/KLiViN+LiD63Y28G1f/MLo/QYgz+lnnwCr7rVF9vAPlTOvx2HBNpjY8SlMu42NyX/BQX2DzmwUUfHUxiWyiJHrXszYqB7cuK+iB0qxUT3ko9iorhYbCuYr+qJwuhnoGwsyRgzNh9r4bX/MN0JCN3DXa+Xj6OVyCq1CEog4PUh8Gu+FyK50ZsI/CtQ7D2LnKL+YcKrGk1YGOL09xbd+0Qtw2w2n1LsOkq/+M8Zek730Y8D84/YywuNQQCa/7+IMMtcp+Lbt8E0WGzZOtJC9PaGLfTqhG/8PH5fK1FezU/AYKVi76BZDLQaiD85HsQXZxRh8uZ3KffPhMeb67ePrdB/j6LR+ZqvGRshWVD0ThahFPO+yY/tHa6xYFDebn9GNyBRaEbYgnKrxpJUBpuMRvupVt+NFT7kh++up/t2xbcE1mJgPA5f/P+6ygYz2cbBtO2THF/cgc3nAQo6KZ84XA2NM2Lhuwj/MzuTQROuLyL3zyV2bZbqB4qvogVZskU79MuNGfXqb0peXoxgzBxHDfRMxhGZOL3bkvQcqQzoUEhtLL0QtkoU2gug0cLJ57GupdL/6DzWKbo6V36gs8apn34o/95m3YzzKlVqL9mXdDabN+7FdvRVoDtKDPKZB5sTwbc3ni2wrY/IfCaPtqtmYHg2VGNfLfWKEjzHlS2xBTNiDTv24jelBVWxU77yli4w7JB8+TjyI4sttrG1QFRvVxQGG7yNEFHUl0a9hOgCMz6ilVdz6FfVBJTZ2VyGKIRq7PzovEBJiVA6qQ7xwrJjKI8/7bXH+1BRf97rnYXuj/xus6voIG8XHsVW9nb279HG0oBvKsDniMt1WOV+iB1/FRvVAaf0SPVrI3q7oxvlqNi6HGBN2agu+FIoeKMVG5RP/OkR3YAtUzhdszjOfeNR9jetUZOMUAMoz+mWEVtQKbWvqIATE/uQRxmAOQWW3aGkJeSo1SOo6LXG3op6w8dGJ7mOiKID/44s/FU+/+UzE52Ewae7A5uy/okDujVWPVZCtb7QzRa5TMbOIfNvQhWKj+sILWenL64MWMrdB9w1u3Mb0ZD7cd8hlA95W0z2t2ZgeKMXGdapyG9dDPkY5myW+op4kdON9tXFLYHKDq7oxXLHlwXtofOoWqBZxzDQZ/4c1THWY7V8z2t+F6ldoNUUlHFreGPtqwJc/4yY859bT2N/fw+7uLqbTKXZ2drL/n954AKeaX1F/NuOxDcP2Fb4dErrxvplFRH1TNqpHFPdlMSYLk+IbIeFrUr7MP1CKLZJ5keV2qg69bECR8eXjaHoUI4XSb+TL7UQ2PX0NjpEP77fEYbWD3d3d8P/R0RF2dnZgf4OMjculFqsvtLL/2J95xeDrxEOGkXBO5UdaubcWntoY4Wtf80xMS4OqqsLtXePxOP1/sYvRwS8AzWU+wGMcfJ/gc0N10+qG6S0Z68FFsUVyz8UJXmQdp8kGw3yFTdGjGCm4L6U6fBe+bHBc31Q+im9EURvToyKL/Cceo4wjdCombE43GGFuzoaaUFVV+Mmp6MJC29RJrK+g8jEcugstA+tQ2Bljc5VegOXlGW3sr0kt+hVauJ+8eOOLn4Qnnt9GWcqPCxLGvkD68k8A9QOP33UQge4nvIgZtjGcbPzGyHyT7HV1oyq+geI2z3mRL2Tuz3yFzetENilfCuIbC3oMgVJsVDf0sgH39ZwXuZ3LTjc9fYNLztfpgdJ8iS72n8xBRNQS3tbpxvtyO5V9jCOY0Q3E1sL9lDltKgin6rxHv0KrNVYsRjCEV6DeKwwtKx4QZwXv4fMrAGxPS3zBi57Us9DC7tD7vwPM73Jv6nocFmSyh+z4uTMVqqsbVfHlVAAZFzxGZgucFzO2yI/buO7GCcPxcVlbcTCgYO3E2SwFGyebO/VjekvGcqA6fKN8cr40Rh+fMm4wcxvXqchtXG//NKPrYQr5qC7k3QgOtC9KCN5ioUIrksjzdgzJg3+hRvhk2CkixROMxwX+7CuehlvPb6sPL0gYoLoP2PuVxx9YCGBbbNCOzz8VcN++hUlbyB2+qs3rjjNQfLlOaW7jOqW0cYncZ1yg40sw1s4g40v00Iz7cp1S3Mb0aKjEuHDxiRi9zvo1yjiR7PQgcjsF8XVCPXmWfTeCghLB1/XO+kt/M2+RLLQRRKe6qgzkohK8Rb93HrTQeO2suB0VLMebzmzh9S94Ykt0oTkAdn/Wvi7xMY94XvVFQuF04zcCPxNT2pqUjelBVWxUFztYwtc4X2GnMvHl48SD9PBlelAVW9DNMd5rwOy0rWG62m/fg6DTA6X5Ej3afxplH/Ei39eg9EtFOk4ihkC39mpyO4zRz2HdE2SuIx6LR4qPwJxClzrvhViNfVtbIgC+DhSyFaVnFJ1mZkOPRwVe/owbcXa772sTa2D2HmB+Nzc8BsH3Az7hVDetbtBx2YD75vp14yY3uuLbKsq4FDmdyJ0xunHCcIqN6sl8Er6RnSIXo9JXJPK+KJxtSIxDfIONF1keI4XSVxAzNq9HLsRejFGPn6zeY4voMgLvE5CFkqHddszPqaI984+tibHEonRQvxDrKLT5cIQSD21wajrCl77sKZj0/Qnu+hFg9+2PXz6INoq26LlORb6VFd/QBbcxXYxL5b6+TO+bj3G+wsbHpRT3pYj39bzvkMsGSkwRnG5SvkwPlGKLMCAfUZA7fAOn+TrdeF8KRc+Ma4ptmOKUeo8tbLHlHcI2pEEoEHF5hGZ5h8iquBpkBhlaaPm80PgSgfBCWwB45e0347qdKYwx4SeKkzA1cPAu98sKj1WwiRcLnm9fsk2M9pGQtQ+UYovk/CKJEC1kKL5ON85Xs3HdhH+YnemB0vpitr6+gy8bRITUA63YuB6NS8F8exdP5xvZuO5FzZfC6aEL7qvogVJsAJpiBwX7ORwKe2bL4lD7JOCFiEMttCQh2Tz2t5TSBywvC22MtqXex9BCC9gfbnz5M27EZFSiaRo0TZMvuM0jwOzdypnZYwVkEg2fVL5dTMsZ01FkHRcoxcbRy1dbnFynYsLGddVX0dUYuS+nMuNCy4eCxsjHyfgKPWFTY1TGiZon+oKLMeozc2lJ1I6crsQUwenR2JoMNKOb0GAj+SrVcOuXh16IUhCNM4VWiE6J/S2l9AHL65Z2Q7R2QThV5z20QgsApzbHeM4T21/BNcZkCq4B9n4dqC9xw2MEdIMbNtl84sn2MNyu+fJFx2xUDwtUsVE9WsjentAH5ZPzdbbIhdspaPHU+iV69t5Z7quMo+nG+/K+qEzz6elLdW4PasbG9b6+hvt6ksoD8jEG1caLYYoRmqZRX6fKHmoggSgw0cGSOfH91YMEGtkDz6BQgB2cp+sMgWxtgnCqziuE4D7v+U/EqY24sBpjwi8xRKgvA/OPiT4e/WBbaMiOn/sm2fuGJlpfRI6KJ7Up+pAYe/tmbEGnVMLu5d75mB73zhKxTz7BT7FFuv/DbcTu5cily9frvhHXvRoVp3S/xvnycbgeKMXGdWNflFJtfGp7scAYUXDjF9GQP4MQ9gXWONVXSILRCR6uTEqLVmhbk0qk+DB+zAHAdFTi8170JIxH+seDuq4xHo/biT36k8fgWS2ZMxNNppjPaFsYoxRZpW1i2wjfyNzlq4wTZKIbzU5BYuQmQRBf0UDRo+Y53xV9CSbASeqr2dg4QVVsPEbh6wnq53wjJPo13Nal52xONwBQoCnOohnfGpVUfoYbXkSjxkEQ58OS5VxQ20RjNzkQ8yJY1b20iMYT28uhAHDLuS2c3ZpkH2Kwz0HP3RdjvwYUj5Vrte02tirThex0g/x1N6ob/w/3ZXpQFRvVxQ7FfYk4KJ8evsElCkDXA9XRb+8vwfgBBoqv00OM3E7lVD5KO1E8KZgexZjZR9Rtw3Uq5sZ1bUMXio3qbB+qJ5+i3l/bNA2qqoIxhjzUwOMgaHNngzpRlLKsKgey40secHlxjpGtKD2j6CIzaZXgYeyPOD7z1vO46YbrcO7cuez/8/kcB1c+AlM9wj7OPVpB54ovZMMmnG+wrrPZRXd8amP6oBg1G9e9qNm4TiluY3oyH+ar5kPBY6RQxg20ZuMxekqxReALmPsSPcrH5PcRkbcybjBxO9WdHCjNl8p82xigKDE5+6k4d/68qAnnzp3DqVOnsLe3h1IUSgaxjTwcL8xRIMyudGbzkzxgeVmyYt9W0wNi4QglHpoooTuDlz79Joz6vAfBNCjmf5K4y+7RBjpXfPsldON9+SKi4NuR2ykGLGTRD7cRfXA+io3qofseMUVUzjdzxsfH6RNj+JOwUT1Qii2SuS+3U5XbuE5NfFwKMq7xOrNxRDFS8LYJ36IENp/LvwKLUFWVfuuXR3chYnyAYlEmyCR4wPLJQsvzloRTNZ60SvBRswJ46TNv7vnSGYNxc+ej/HYvw+aKTiKzUT0UWW6n4IuE+3rdycGs+RLZ9PQ16JdPoBUb16NxKbp8ud2jOcZlA813kXwSNqpHFLUxXcSY2UeMMk7QiayOq8WwSD6KDSWw9Zzkwwwe4tYvj2QhCgwflAbDLLK5c1UMsLxarsiQbUtBOFXjSasET5sVMLjh9CaeeN1O9nqthUGBGUbmPj7oowRk8uEmUCxkCjKR2UVCdJOxUT1Q3OY5L9ICxmy0rXG+wk5l4ivGTcSQ9GV6oBRb0N18B3PG14Dv4HlftS8q8xgpmN43RjjfyMY/8Ti7uq9xnYoZu7cFF2rjujbnFMa+dObUy4FSf9MXhXremyxEihrA842UuJGl0h3pFo11nAhR5z2y+QXGoCgLPPOWc+isswAAg1Hzp4+NX2AQ247qhm2XzJkK1TkNKGTHjk+5vouzU6d9chvX3ThhuJyvizFQOV9fbDyX8+U6bcdsnTE6eVCMCRtvG3y9jftLUSdIjNEcBZLplEr05eXIzPtxejEBzrye2NJQi20LFkyIVeeFxURGxifAc1RIK4ZgIqQLrSAkR/IAgLIo8Mxbz4mbk1WYGqPqjq5PEtcgTDxPYkFx3YtGuZzCfXlh4nYiJwuT0k7ESEFj9HFGBNOpH7dxnVKZcbMx8n4H3tKV9CW6cb65vqivamN6NBT3paoWo9dZv2qMVHa64baMHnwTfXk9qIqNyuVpYOvZhEtDFNtoHijCumAOUVCcl53Z/iUPLPH3w1J8lJ8Wb5xfWRR44nU7PetnjREeykzgtQYTz5G6SCjI3KuLhOmBUmxcD6piozBdi97pxvkKO5WJb8pGuUBzO9WdHMyaL5F7X5uFst9xX6ebjI3qge7oN5pzrS8ii/2HXzbwoubLdSpym6IHWrFRXeRDQcd1fuObgdF56pRE/ARZ1DdPiHEKn3LzYF4RxDqxrB4G4z0nKCBupTsEF62H609v9juzbWZAs8fZaxRs0sXEUd3QCex/2UDICT1Qio3KCy9Ornf5Urhx1Bh5DJzi/bK2Ih8KGiMfR9OpyPuicDY1RqXfqKuMryhgmX0ku68R3XjfRD9Uj8bWZKdHFPelMbr4izGw8wqg3CC+aYRi21VoRSFiCch8Yn8DMUiL1DsPZBiiX8/pw5JWCb5lJFcWBc5sb6g2iSMUj4o3fNFJN2yuNN2LjXKmwn2XcYbBfMVROlKkb64vL5suXydHLtyXIlc82Thrfa8BGydQmi+Rs3POYhB5Z/S+vib8w+xUXjSfnK+7E8SjmAJnP5fY87APNURxE4XmRhEFptgZY/OVXoDlpSVOWEisAQtHKMn8nKpFYENocGqDPIabg5mjwBFnryHEcz5oxxfbVvENTbS+iNx7x+fjar5ONwN9U7agUyph93LvfMyK3mvgdWaLdOqXGdf3SXVup3IyRtbOaL4UJEbD7YkYgh+3MT2o3OY5Lyq5bz8fGN9IySzKZCGiMYsgWk42V3wVCrAJaCkCfHzJt2rKUYNozBkLl0dRANsbk4QTQ7N/Db8knCRo7HZRbVQPfvQjoWH+fNsk+hJyl95zcQaxh28IvadvLNAOWj1qnujLy73zUcaJ0BUjBfelUMaJ+uT9shgjX37ZgCAuQOl+DdNbUuqcBhSSx0hBx/EHQaLD2PPUU59mz257Qr6IRoDxIWkGhTfwc6n4uzIpLe0kiN6Es+YY99puS9Y4dCf50EdhfwqnGw3QXOHkNQC2BbILmdgMlAXE5jHy1fpleqAUG9W1M4xIZr7CTmWnJ8elMo1Rs1Pwhcx9ve4WcthJc75YYmFytuDS4SuKJwXToxi1fYTo4gDDdSrmxnVtQxe0L6XfZD7cN3MnSLkBbL0w+RM4GsKLaCI4VXy8TqkhQcXGG3mOrxnCS2i8iE4gV2jTvGl5A9TzOQ4O9nFwcJD9f350Oe7rxIPnTnUyB0GnIr9nhPvyHZ9CGTdQPXxbRRmXmriN617UbFynFLUrvr3zcb6qjekGii/XqR+3cd3/0WxMpyq3cT3EyG2e82LP3I3z5eNwPVCKLQLfNhnf6E4QCHszeQoOzC2iDmj/z+dzbGxsQP4sjlNFKYuC5K14Ug7RhBIYuVzjiaCi3gcLRyipoYfk1xiD+fwIs9ks///hIar5Ie3thINN9KAdn19XVNqyuWzBfJPjKv329TWanYLEKHYSRQ/dKzFFGFKYMmdM3FctNhRODzEqNqqH7hQb1wPVEYPRcvcEkY3zjcD7Jb4pG+UCpdi43svXKNfOuX+Bw+0vxGxeyFqg/F/XNba2tlBG72gNebLOWZCRVUyesys8YPlBhVbJ1ag8aRXFKztO52cjo1bxYnANBVAU18L1WjIfxk+Uz5ZPKPNVPxJS8IXMfZkeVMVGZXUhK7JBv3wCrdi4HqgoAF2PfHlfRO5976zLPbIpeqAVG9ejcZmN6tGcUxvTRYzaHSleVMYROhUTtqCnYlT6Dfkotmjc3EGwhRmdh9l+CYAetYGgnPha6/oVhSjA8pFVcbU5KQZYfnChZdDjI600M2h+KchCCwMYk/rpG4bkwCcFdJINy5THzn35AuJtF9nxvZ2CjRuZlb6CmLEJvaevGqPSNpkP840KE+/Hc17M2Khu/D98XCq7+Dp9nR5R3Jfooihl9hHhq4wbTNzO5b75EF9hU/TOs1mPAs3kmaiaLUwmExixrdIon3B+OyhqIQtJseEJH1NKH7C8LLRxF62o99F150E8tOxYycKpSmQuv6Zp+v2a7okGnQs+eQndgH0LS2xcD3SHb0Rx31SMzMb1QfkkbFQP3WvjUnTlQ2TxbTYFGyebu+dojIpNpbhNGSfy5XaqchvXqSlhCzqfc2bjCBS38bYDfEWhzaHA/NTnwGCC+XyOyWTCHZIon3XLaRSpIcgERHYxMZ5SewHUe2kR9SEk1iBdaF18MkAFotO2PbUSHrBvW782Cy7JyvBJijJmvkY5ACm+oYnWF5X7LmR69sdtTDdQfBU90IqN68EvM27kS/TI7pH7WMramT65LyMfRY8obVwv8hj5QYT58nEi2emG6S3J9EXyUWxBd0U2O+ccBTC+HvXWK8NdCFVVYTwec0cV5Yuect79thYbKATLLISPoFAWQ2/xyhApPseFphqvRBb4GNdewSU5ZHd8opuUL9cz88d9I5cevlSPQHQ1RopcjF2+3KbEqPbrOffXdOXjYMDPFOSYXlfHTbQNvoqN6oHS+iW6KEr8YOxguK8nFbkzRhdDCKWnr7BxnR80wgB5FCPgzGthyo3o3bW+4HY9/FS+4IlncctZ9mxvatwEb+PWjN2/HxbbNGdRJh1aVmxbjzAGcwiqFWI11dm1VHDJ5IrJobqJfbNfgnFfrV/mH1TFRvVoJ8n4GucbIeMb2bjufEOTnK8bN1Car+f8Qia6Ni5cnylb0KmojUvlvvnwg4HSD0W2MBG9bz5moG8sKDrNW7FF+tCzWYJiBJz+bPUl4X3OcMuNSYkvfPETWoYFHKs8cOFF0F1oY2gkKZORuVXitUeUMP+s35AH+0JMG15B09h2J7Pg2oytSGRuC7oX2/kgpJRDF9zG9N4L2RcmaqfgMXJfrntas/FxPaXYuJ6MkfvmFjLzjXdc5kt0430zfaFvPk6OhuK+VKW5mx6XDSh4v0433JbQQxM2TqQ7OZg1XyJ33DubRVEC45vsI7ryZYkAgPl8ni245XQywXOfeA5nt+ljqVaIQ5GB2bmQPMDmIEG2opNYAxaOUHKFVnA5VQpZ1HV9As9waf48j4RuvC+1K3qgFFsEvtEzvlFBhuJL9CH5pGxUD5Ri43rky2MkcnYh01zQkQ8Zx3BbQo9ipOD9UoqMExtcn1TPfOIx6JEPFblN0aMYKbgvpTp8xUGQ+3egmAA3/JXOx3NzZ7hl0zR4wnU7eNoNpxxlg4hCUeIygDLJDuqdB7Fvq/FJ86rGk1YJXm0WEXbHEXY1PunlcXLOcE2ctNgmVGe+uTMVrwcq16/TI1/eF5GzOz6RDQbmk7BRPVCKjSI6GGRiMEPy0WxcpyK3KXqgFBvVIyrjKw6CfCUz31xfXjYpXwriGwt6vxGV8c0+Dj0A45uB05/BWRWpglsaYzAqDP7yq5+J8ahAURRxOCb8w6hU0JlCG//RCKdqPGmV4ONmWnyKxQimpbQuCOraPshw9QouzZ0HrOleNGwR8USdHmjeD9OThYn5ioWcGBc+xlRfRDYpXyrTxZnzdboonlQmurilK+erjBPJTjfel9up3Dcf4htxmuzHDYqyjxC78E3oJvzD7FQekI/Y13K+PP4FUYyAUy+1v8rQE1rBdb+ua/Dk67fwgiedjX9vS5mofMj2Oq2K3rwjBG+RLLQRw/iQR4pnSPEKfMHt+iZy+SDxiUlP6Mb7UjuX++74rq+I6vCNCSYTPbuQCUKMgozlQHX4LryQOWgu6MiH+XbFGFEdvtFQmXHBDzBDLhskYgjDcV+uUyrRl5C7dJ4P9x2I0Wng/JfaojsAVVVFJ2LhSm8Bg895/q3sV2TjINs5SQTP155CWtEI3ltN6xTxEMMypza4LB+rsa+LSvBd8AV3PWijtCKNldioHvy6zsQoxeeA+XaOS+SkL2tnoPhSOP/QjPtynfpxG9OjobRxvah9CeZ11q9RxolkpwcxYQ869eM2pgdVsVE9OsCgx9ks74vKTjdMb0mpJ32ZHijFFnR3EAzbh/suiJ3PBDaextleqOs6nIgV8/ncpmAMZlWDv/Ejv407H9xVH0OzlOTh2ktLqtDKbvRLBzHRhiQauz86r995EPu2tpbfno7x//u2L8KZrWnHmWuN8uA3UR68gxuWCBKvEn+sa74JO9U7+3V6O1mxietiH0rE0DluzjfRrm+M6JuPdtCgoDFyG2RfkZiwUV2NUfGNKMUeqVTnZ+q5fDJ6X99j56P55uwLopji4IZ/hHrrZeGWr+l0irLU70jQYIzB0dERyvF4jPF4jMlkgp2tDXz9a2/H1kSeLtvQ9QT6F1pNyaF1FNvQw/EigqCyQqtoAcogfn66/h8y+cPB48rpfNIzHwlh7P/uT75fNz+B6uHbKsq4VOQ2rlORj0vhbL1idItziK9qYzo3IZcPt3Hk8uHtugoT00M+pqPQUl4jSIxi/Sh6CEWJKUJXPhTap43loJo8A0ej21FVNaqqQlVVKMtSrP/c/0VRYD6fyxvGnvekc7jt+u3ocoKdm0QCaqGN821F1TNxVktaJfi2md6vWmgV12x+Vx00X23Rc93TJv+RUMw5tzFdjEvlBX1FsaEy0U3Kl4/rKcXG9WiojK962YDK1FcZJ5KdbrwvhdI2UIotAj9oZHxNl6/TjfMN9g7flI1y0bgUih758r6JnH2L2jFQFDCY4ODsm2HKLW5dCKLYbk3H+Euf+XRsuteB2XlMJJAqtIQVEmugF9oWyUIbGMlZKlVoY/9cfmrfa4OJ50zESHXmS/WWjPXgkvN1tkB1+EYL2XGabKAUsIRuwj/SRvVARQH08OV2IotvsxO+RjvAcJ3S3KbogVJsVBfFk4LoIsbMJ57sQYPopq9vKkalbTIf5ivy4eMeE6ZAvfkiNONbtDK5ENRenn3rGbz6WTfbOxNSOSR/P6ydrNYmCKfqvEJIjq9rDxP+ie2Ejym1l8AnrCsGGVXEbRTdi6bHl2CpnVnRo+Y5X74xtHG9mLFx3TA95avGqIwTUYm+4GLMLmTmGyGnKzFFcLoao+IbUdw3FaPpuGygjKPpJmMLMp1zFpPWNqJSvqbjlrsloChgijFmp74Upuj/Vq8uqMV2Mi7x5Z92G3Y2xolEhhTa1qQSCV7s7xRhGOZg/D/snDTwDAoFuMGvGsjYfQuTQcfrEEk/gU7YvR7mQLFR3fDi3eEbIaEb78v7ovKiC1nzJXp2IXPfjI3qhvt6ksp98yG+VI/sVOW2hG56+gY/xRbplKI2rpN+qR7ZPXKXdJaJEvOtV2M+fVGqRC6EZE83ndnEN77udkzG3GWBdx4I3hVDhQeU/dI7RtuFOYUOUzyjE3yi9zWAxG5CgNLGdWPyZypRn5EQ270siieF4qvamG58nBEh9eCn2CLd/+E2Yvdy73wa5bIBlYlueuZunG+uL+qr2pgeKG7znBd5jImDiHG+fJxIJr65MakefBN9eT1Qii3opuNx6OXCYIr67FcOvq+2C7ySBozKAi996nV40W3n43fcaLWTka2oOaeuhOqszjMuqFZgqgDzIrDxapbVgk8ejYBH43SDxCLhOu2T25geDZUY18tJX9avGiMFjZGDk9RXs6Vi5DbPub/ZhUxkA1bAPEnlrhgVva9voBRbFCePKXEQ6Rx3qC8vnhRM730Q5AeNMMBqUExwtP15mOFJGI+XdwkBuWILAJuTEd78hmfj5rNb7vpt4lFcvk0UnrDKfJFWCd6LostAKF+IKYwdX3oByZBXCDIRxsdFI+AynYQhlw14VooeKC0GootFwn2pSRknkp1umN6SRE4tZKWdiJGC+nctZCKr24brVNTGpfIy8uG+YPlk9pG++ZiBvrGg+4o5pzLV13XZwKEoUU+ehsPTfxEoSvWR2+MgW2zLssCZ7Qn+6mufiemIvTMBcBMXaSrfsgpJW0Vm2bH9o/WhFFojGEdp7S2fsKwIND/DYtV0L5oFLhtQG9P7LmSTWyRM75uP6ekbKMUWge933Jfog2/pokjoxvtm+vIxmoQtAt82Gd9o+xjlbNbZjPPVbFw34R9mZ3poovVF5b75mI5PG6uBwRSHp/4cTLkTuGUW3GyxBYCyKPCKZ9yAL3vZUzAds2sYav4qmbjzoFUWKrQGAwttRBEkCq1YZMsCzY+PkdCN96V2RQ+UYovQVZgocjobZ0g+KRvVA6XYIpn7cjtVexysvJjNh4xjMjbKRTFSKG37+kYx5s5mmS6Q83Uxcb13jJTq8lXGWTlKHJ36Isw3P40bllZwO4utx1e+4in4jE+5ASP/pBSZkHY6HMfmRi+0LZKFNoLolI8q+IhiUovUy3NU8pgwbb+GJ05sXDdIf8FB9UDx2Lt8uZ3IpqevwcB8EjaqR+MyG9UjitqYbozyJRjv24uazevMZsI/lGD6Ivkotmhc2ifyn3j65mNSvlQmvjm71yO/jO8q3mvQE834FsxOfQlQ6EWVv1RmEZT+ETT/PxKPqG5tTvG/v+G5+Mxn3YiSfGPWTgffAF7VeU9kC21oqvF2Y8jmsW/Q1IrKd1aPlufzk/rfv982DTJQ350Z3pcXCAqnt4kyG9MDpdj4uFGfiXHhfEVfVHa66ekbXHK+Tg+U5ut1X2SJnvSFsq9wXyIuLR+jzDkF06MYjbKPOLvRfLlOxdy4tM9IiO1eTuajtBMHwXWhgBnfjMMbvxvlxo0Yjyei9tHHbv3Pl/P1n/u/aRrb/sKFC1FmGxsb2NrSH08zAB68dIDv+PHfxR/fc4EdR7XClb/FC6D7AXNyql5okbh8IAZy40sesLy0tHlsTkf48Te/Hmc2J50votms34nN+je4wYGMImJJ6Ab5M5XIj9sSejxZCZnHqPQTqTlfwhkicxuVe+Uz0DcbI9FFjEvw7R0jUQf5ZvaRY8WY8+U2zvEYuT/V139ttkUBlJvALd8KnPs8AP3OXPf29jCfzzmdxHg8xs7OTv/LCHDvvLnhzBbe8hdfiec9+TqU4RSXT67lBAVEkynqjkfYrswhbGit0FKFUKlBOgqtx/FeMGNoMsqiV/Tgx4/03JdSPBPmK84wvKL0K2KkMtENMr5e9/lwuzJu+KPZmB5RGd/BX4JxO5WdHkRupyC+fBxND6pio3q0HZHeR4zzFX1RmfjycYTMfSmUtkFVbEE3q3uvQS8U9idubvr6QYUWAIwxC13DHVxJygK4/vQmvvvPvQKveOZNGJVAIX5tkhSyaP5aJa6BRHGiVgotLC+bx/6WSvShFlo1DBRFscC1GsM6Y7oYPSQt2w72ZXpQFRtFsiB7nZoydtrWML0lYz24KDauByrXr1vIkS3ha6DsJxnfqC+t3+PkQ8F0cdDg+XkxEVOke1GzcZ3S3MZ0sQ9RKL6qbT0wGKM68+XA+T8zqNB6VAtcwx1cbOHuULjl3Da+589/Oj7tGTdhMoq70ee7VRYqtGRjy+axv6WUPmB51UL8qTT8p29YPiIOqptWN8h/k+x9QxPFRtF7x+cxZnz7Ls4gZvrybdUYlX5759O1kGmMyjhC92LGRnU1RqVtMp+Eb7Bl9pHsvkZ009M3hKLEFIHm4vRIpnru08a6MMLRqTdifv5rOn/AMYe6rged4S5UbD22piO85as/A1/z2mdj6h7r1b8Qa5XuQssQtpXdyWTzuIVCtUgVWhofl0z7tvXuSwo0nxA4sXHd041yppLwjQUmOz25Myv9Rgs549tncfo/fXIPlGKL5AELOfttNvfN2KhuuK8nmR6aaH1RmRdZbqdql6/TjfPVbFQPtGLjejQuRZcvtxP5ql42cCjGODzzv+HwzF9ZyuO4Q85wu6pHFkVRYGMywle9+nb8gy97MZ5ywyl7QSGaw1bpV2i1DaBYjGDyPC/UAe3OIuyEqKqq3yUFwxM1rGeii6Lk7UwPbtyfy0N2fO5LQXSDfvkEWrFxvc+4Xo58FbuXxWUDCqIbl7tmo3oYjvsqehQjs1E96jMxLqDE2HU2m7BRXR035xsJettAKbag+32N29eNAqY8i4Mz3+je5rURfnnhuKjrursuHLfYekzHI3zaM27E9/+FT8Prnncrtqdj9ltmmUIbgfHqhqQ8oxM8cvfSOj420wXUovMMV4zPOyG6yI3KRA+UYqN6RGXGjfp0egSi913Iqp6wqTEq40RUoi+4GLMLmflGyOlKTBGcrsao+Kp+Xk/FaDruNtD6UnSTsQW5q3hSdOVDVdoX73dNKCZoxk/E3vlvw2z7DUsttB51XWMyyb9LIVE1hmNUFtjZHONvv+G5+I4vfSGecfMOpuNCFF0x2U4V551sY8aq3GDMK4ZK86LjkeItKvezGHrBpQ25HBJ1O2DqTMz5kibSTsF3fO5LdDPQN0LC13hfbqdy34XsCmegNF+vm2PcO5vxNdzXk1Q+Tj5UZuMsHGPCN9CKLdIpRW1cH5KP3z7UvmYUJUy5haNTb8TBTf8nqo0XJx9aWAbm83n2Gm7Z5/R3CCbjEi992vX4ga9+Ob7hc56FZ9x8GuNR6Youm/CwnXVevcWL+3pGLBAH9TptXFBbMV9oPfwlBb3gQo0R8DFmPhK2E0J0xU5tkS8F08XipCC60Xy57kVug+7bK8acjetdX7LQGH2cio3qwY/7cp1Sib6ErOkUroh5OdpHWAxqjBQ0xuP6Mj1qzvvycEU2O+crRlHCFBuopi/E/vnvwP7pb0Bd3tDro/5xUWUe7S0XvWesC9NxiTd96m34wb/4cvz9L3kRnnh+C9Nx2T4cELZzakMohVYpqHY/kTxgeWk5XqH10C8pKDuo71ddJFwPCSk2pkcUtXGdLmTFRnU1RgqnG+/LbUpbk7IxPVDc5jkv5m6CJ20NOvJhvrkxqR58E315PVCKLej8TDFzIDZIzDmVnR7GpVB8Q5Ocrxs3UGQcoWv7Gu97xSimaEZPwP5134nd6/4J5hsvA4oSTdMsfH/sUKQKbnHhwgVTlrYI1nWdfYIsh93dXVTucV8KY+z10sOqxicvHuAPPvYw3vG+T+C+C4eojZ2AuAEShVYwjkpsTLXQxv6RpDhvTkv8xJvfgDNb6SfIRqMRjKkwnf8ONqtfcyzpjOQjbFQPdMJO9V6+PKeMr2F6S0pZ+CbaqTEqvr1jNN19BTFj47pheso30B2+EZXxFTGu69osFxN2r/fOJxP/qlGUwOg8ZpufhaPN16AZPxGm2HIPLsTrdpW1jmMymYRLCzs7O+3juj6I8Xi80gCOqhoNSnz0k5fxJw/u4Y77LuJP77+Mex/ZxeG8tkXSNDBF0RZiZSeyVGKD9ii0CD3SMajNYGs66iy2ADAaAdP572Bj/qtxR6JAgOl8bMVG9YhS7JHa0VcQMzauC1/oMR87H+6bO5tluogxoZuMjerJcZfla/K+K8tHsXE5clHsXu6McRmghXMEjM8D06cCm88Etl8AbD0fl3YNDMadX36tq9bBPaoLIC62cEFsbGxgY2OD+vfCkAAAYDqdYmt7G/Oqxmxe4/Cowh2fvISP3HMBdz54Gfdc2MXDVw5Q1waNMTCNDdMYq8c7DoXzc1pRFLZQDiq09t9JUeJf/dVX4/RW143PNbbN72F69MtWNf4ftlNG6LvjOz2i+vbrdFVGR0EmXMhHsVG9Vz60T26j+ggY7bCne6RveAFQjxj9WrVPPHJfCmJz/cYvGurOJ+x3fJwoTh6DcZ8EfZ/KOExPjqPpNK0wTt4vPw4vtLwvi+6XNLXwJzVFUboCWwLFNjC9GZg8Edh8BrD5bGB8I1Bu2P/d9/wXL15kvaWx7lq3vb2NYn9/P5ohP6lDJmgRGGNQlqW8jEBgjD0TruoGjbFtFkGfsSi8V1kU2NmadBwnAaDGePZbmBy+g7Tmfz2cHuiEncp9fSNzxlfMQ0JXxz2mb88YTXEKR+e+CWZ0k7AdF2Vpr+EtDzK2k7SOFkfcpxhrFUM6lKMx6qawdw8s8RduKda9jQrDttLBwQHm8zkKd12jL3Z2dtSLwilUVYX9/f3B4yxyneXixYsYjUaDxvHXWfqhBnZ/Hdh9a3exiegO356FqXfxRJcvs2V9iX7sfJhsDExxGld2vhVNKLYSw7aRxe7ubigWQ/aHc+fOcSqLx9eRxePbqN1G6r1L/pu7Vd8q0TQN6oHPFy+Kvk95LA4jiwa3BZecL2yRC5TmS3TxMS6jd/pSE4tJ+PbNx33UDBT15e20cZcPv7BWuz88vo6Og0fjNlKLLUgQ69iA/uW6q8Z6dkheQGhR8nYqc19up/KCvibnS3TjfHN9oavIKr5UV2W4W7pW+3GOoq7r8PFulXh8HS2OR9s2ymbRNA2apllL1V/XBkzdA7ccJIpYkLlOkTr78zpVexYx43wjcF+nG27r0nM2pweKjBN0Iosiy/taDZqmQSHulV4+Hl9Hi+PRtI06M/BBrHpijbGvM1z1OBj4pp7F4IpLqDG80LBiIj5mUyi+raL07UXNxnUqcpuiB1qxUT2ZT8JXtRuM2Ks7VwH/cXVdi3nV+/ejax1ZPFq2Ua/o17UBjfttn1WPg5V+FOq6bEChFRsqEz17KUDxjZDQjfflfVHwIpvydbaoObdTtet1iKvcRjEa9230qhfz4+tocTwatlHvyFcZBEfTNJ1v0FkGlrtD8mKjF5DI1ssXHcWTyIb7av063YR/mJ3pUYwUvF9KaeMSWVw2oIjHWe42SqNx1+2u5cXMcW2uozSu9W00KGofxKo/OjRN0/kGnWVhqR+FQgHjhYYXG16YKLhvR19BzNioHty4r6IHP8VG9ajPjK/6ghKu074slrqNMjDuRn9/Y/2q8Pg6WhzX8jYaVGzhgljldQ2Kusc7IpeB5U0qLRwJPVBaoaGFqaevuLzg7VT2vkxvSSLz4knBfEWMFNyXP4GljAsoBw2L5W2jPPxiXsfZ0+PraDFcq9tIfahhNptRSoX/hrB2F68XudF3d3eX0yrG4zEq93jcojdj9wEdZzzoZuwa2P1V4MrPEY4XG6KKYsJ0cfZHQXTD9EG+XHdyoDp8I3POd8h7DVrdYAOH218KU56J/Ery9FdZltjc3FT6dFDow8OD0D6HIrybw3ayvb3dGrP5WBwdHYV9yUL3A4DSvZUKbv+2BSvtT211XXesVzefpkCx9WwcmRuAwj6qevLWkUXfx2FL9zSbL2GLPNSQnzuLZdW6hYstXBCj0QhVVS0cQF/4N+iscieBu4naX6/pv5PUwO6vAFd+XlkkucJ0DN/s2SzRTcbG9b6+gVJskcqLWiKfznFzvrwd4YRvQu+VD982mdw6x835JtqpMXJfpA/UxQT7Z74B5sybMK8We+PV6teRRd9iC1ZwV1VssaRad6zzcLPGbz2Pjo7WMs7xLozznZ8v5MRCgFskEZXwNXxBeZLKTjcZG9UDrdiovtTLBlTkNq5TMWEL+jLyYb5i2+QKrTKO0KmYsHk9at7lm7K3nVwb66g/+nxKWQaWUeuit35hwY/pxhhcunSJ01kscsQzxuDg4ABHR0fclMXQIx4AzGYzHBwccDqBGpvVb2Nz/g6n88WpLIwgZmxcP5YvlAVIKcVG9WQ+zDd7Nst0EWNCNxkbldVcEnrvfLiN61RVxtF0k7FROVBDfLni5GIC3PJNwNkvhEFxQteRxdAzRyzwSRlXodYd68zWoygKTCaTlV+w9tdO1nERfjweD97ggFtw2R2f6J0Lua+v57xJs3nOyYHifTFZnP2lfNHjbNbpBh35OD3Qii3SKUVtXB+SDz9TbKSdimvJR/GNKMVOZadeE+toIMbjMYrwGsjV4Ti1bniLBNb5DeE6vvX0HxuGjcN3dK4TWSxOKhPd5Hy9vsKFTPUIPEZeaKnMfIWdyl0xUnT5Mj3yy/iKAybPjfmKvqjsdMP0liSyVjw12emRH/f1Oj/AOPZEr6PFYNwtYasuuIvWumHeHfBBrDpZrPGakB+nM6ewf/Md33Ne5Ds+9yVQz1Cp7HR13ETbQHf4Rn7cl+iGnvFxX4bOfKjI++IyP8BwOwXPh4Lp4sDGCy1Vc30ROcRIofhGMSp2L4uzcwrFV/TX4sSto2OiWdO7FBapdUuPaNGqvwiOe8G6Lyr38+XdE8t3aLaTi4Wc0Tt9qaiNS+W+hSm3kJV2ybNZrzvOoF8+wY/buE4pbmP6oHy8bthlA+ZrsKJ8NBvTqcptkc4fIAGztzh56+h48E+arXqcobWun9cCaFb8Bh2PdX1EqesaZVlmJja349OF7O0URDfo5xv8uC/XKcVtTI+G4r4UfCFzmehGs1PQGBM2qofu2TgpXy/nfEVB7vBN2onNcFtCD00UG9d7xegOgklfHSdnHS0Hxu2fqx4HA2rdSiPxE7tqrPOjUPc1IbZjRwsZcmF43ThfYacy8eXjaHpokuvX6YHK+XYtZCIbHCMfrR2PkULR+/pGB43cl2D8gImMr2ZTdDVGxVccDCgUX9XWjZO1jo6PRT7qL4o+tS5vXQKapukMYhlY10ch/6WCnlPXjs91L2o2rlOR2xQ9UIqN6mEhK7ZoXC0fCuab68vLJuVLQXxjQe93oXyMcm2W+UbQ+vZ0wtY6kOY5X6cHSvMlevYtav1xMtbR8rDuM9zcOOU6qv4yny/OYV0fhTqvPUVnIlB2fLpIMjaqG+/LFxwF8Y0F3ZdTAcyQ/RKM6UPySdmoHrrXxqUyL0wUTBcHDa5TldsSugn/MDuTe8Xo+u3rm712PhwnZh0tCb7grnocdNS6ch3XT3AVjpirht8hxdwNWZxDfMUiUvTQROuLynwhc7sH/6kaZUwq9skn0IqN64HKjOvlvr5RjEMuGyT6DaFzX66nYlR8oz4T4wKJt6gtB1d9HS0Z/qxz1eMgU+tKf/3kagaxbKzr2lNVVeRomVucbNFkz1CJLVp0ip3qwU+xUT3qM+ObPTtXfIWdyk5PjkvR5cv0QCk2qkf5mPRlA+N8IyT6TY5L5a4YqcpjpKBttbNZ7n98XJ11tDpc7VpXggSxjiPZOjfgOvMpQHeWxI5v3IISpCJ3Lk5iC74Uih4oxUblzssG1NTRVyR2+fLCRMFj7JsPjzEMQHQvajauUzE3rpN7xTjgQJ31XT7WvY5WXQivZq0LmdVr+ulgs6YnV6Akuyq0R2ZlYYRFl7EF3YvcBt03uHX4JgsTH6frY2kuRk33tGbjuv/DbcTu5cjM++G+VM8cRLIHDaIb79sxbvij2ZgeVMVGscLLBjmscx2tutjiKta64sqVK9EWK8sSk8lk8Gn90dHR4DfwbGxsDB5nPp+HyeqLyWSC8XgcLpT3QdM0A17UUWN6+BuYzn7B6XyR8HETC8ZwW0KPFieF0m8vX3S8QGZIjDlf3s5xvWIcko9WkJW+gtjRVyQmbFRXY1R8RYwpnR80uG8PFFM0N/0dNGfeBBTlCV1HFqPRaKGXnR8eHnIqi7XXOu19tnVdo3G/NNkXQ9/UU1UV9vf3URTFoI2+yJt6Ll68iDF5oXEfjAe9lawGLr8DuPIzHYuT6znfRLtAJ+xU7+XbtZBzMXI955top8ao+EaUYg8it/F9OOeb0deWD/NVz6IXQDHF/plvxNH2G4718vDVriML//auoTVo6FvJ1l3r1HN2/7F41af0jXusbtWn81jbtSe6OLVFwnUvZmxUDzT3ZbpJFVrm23lvZleMXPd0wtY6kOY5X6dHFPclujhoZL5E6ltojfflfVO5bz7El+qRnaqZyx5XCetZR+0lhaFnnUOxzlqXHMFfSF5HEFjD9ROs8dqTXPQJ3XBfT1J5wEIWRTblC+XbbIpcjFq/PEZmi3RKaeMSuXc+2tm511k7g4wv0QOt2CKd+nEb0yOK2rhuOrbP1cW61pEvuKuuQeuqddne1xWEv4ywjg240i/nDJSFTEEWZ1ig1Mb1AYszQk7PLWQWgxojRS7Gob48RqKm+gJYQYbyJRhBnzPUiOZ2Cu5Lwcmug4bX/QGG208eVrqOCGr3GOyqz3DXUes6e15HEHDjND1f6HAcGPeLmcsfR1tEis0wvSWlnvRleqAUW9BdkQ0LWfOlas5ObMlxqdwVI0XfwgRWlBrlsgFVlXE0uTNGZwsuxLcAUBQARkAxBorSk0o/XPdF1nM8hpOF1a0jiXVdUlh1revV66qD8PCXFFZ9hutfULGaHYUvEiKHxUnBfflCZjaqi4/ZVFZ8IzsFjVHz5bqnNRvXKcVtTF8oH8VG9WXnEyjHF2Ng8gTg/JcDt34ncNs/A57yrzC75Ydw5fz3Yff8d2P/7Ddjtv0mNKNbrH/o2+Pq3NJ1XKx2HcXwZ9LXcsHt3aMPYtUT689wV11w/TeQyx2HL5JFF7K3p0CLktNVGR0LmcXAmwrC6SZjo3rono2T8qW6KkMpyLRvxTcmmOz0ECOFolOq3Aa2Xwrc+u3AU38YuOkbgTOfA2y/BNh6Lprpp6CePgvVxotwtPVZODz7tbhyww9i/+ybUW++GKZwdwJEb1GDMu7JxmrWkY51X8Nddq0bFLW/trrqZP0GXHayHP6j0HJ2lGUtZNI2pWd9iRwt5IyvATsYaL5ON+EfaaN6NC4F09XiSXUiR8WTXpt19iBy30y/humqr4uxKIBiBExuBp74ncCTvscW2NFpoJiSywUcBQwmMOVpHG19NnbP/X0cXvf30JQ3sDNdOu61g+Wuozx8IVzHGS6WXOsG97Sqqs+xrtvCmqZBvdRvV92CCWtHWbhcD5Rio7ooTFQmulpsKJiv6IvC6abLl9gCnbB7PcSo2Kgu8ubXZplvhIRuvC8fl8pu3ECPgNOvAW77QWD7FUC5lSmwKRQwxSZm05fi4ObvR7X9Knd9d2g/JwvLX0dp1Gv+0mxZNWhwsQWp+ssKIoV1FdzlXewnC5kXASHzhcztFLTYOF2V0XFvJtOHFKaUjcqhe21cKvN8KJhBHDS4TlVuS+ghRgquU8rYM9qznwfc+neB6RPcl1/HQYE5bsTB+W/FfPtzF12Kg7DMszQNy1tH3fAFd9VYZq1bONplBpHDugru0o7M6tkS19lC1uzU1st3Va9DTNgi3f/hNmL3cuTC/bkv1TMHkb5n8sb58nE03VBbAZz9QuDmvwUUwx8jzaFuCszOfyPmpz5/CQW8G9fMOuqBeo23n2EJc3esrVvXNcyAHzxbFL7grmMDHuva0+AzRWWRUz1Qio3q0cdsb6cyGVctNlQmvnGnC/gy/6AqNqp3XjYgYnbOSb+G27jufEOT1lZPng7c8NVAsbHAZYMuFKjqMWan/wLq8dO5cam4ZtbRAKyzsB+31okX0YwWeAmEMQaz2YzTWZRliel0yuksjPsNen+k6YvNzU1OdWLYizpqTA9/FdODnyccX8iUyi16p/fy7XlGF8SMfRHf3jESNesLJR+uUzFh47rw5bqTA+WFAhidwdGt/xxH5jp7KaEnBq8jUwPzuzG666+jaHaVeI8J8iIag+KEriOL6XQ6qKgVhc1nPp9zUxaDtxGOV+uKCxcuRFt1kRdUAMD+/j7m8zmMONPQMV7gBRVwb9yZzWaDNuDQF1TA3WZyeHjY86UbNTaPfh2bs19QFklqIXPZ6RGV8+26ZYjoYpskdJOxUV3NJaEnY8z5mryvKMgcS8qnKIFzXwzc+Dewu3/Uc1+wWGgdmTmqe34A48tvZWfzS0AxBW75ZuDcFwFFeULXkcXQF7147O7uDhpnoW10jFrX//DRgcb97MQ6viHEEq6f9MHwj0J88vnH0lyRGFCYsvdmsnHEDpHwDTEqNqoHqke/kS+3U7Wnr3G+SZC2JvwjbVSPxmVyuQ1c9+eAwr7pati+sACKEY5OfTFMuYrLFTFO9jpaDGvZRseodUsrtrgKF6yHfNRYBP5i//CccguZ65ovtxNZfAmW8DX8EgMyvhkb1aMYqcxjTPkyXcTYce+ssHmd2Uz4hxJSV2P0cgmc/kxgfFP44qpa+RuvSjTj21BtvGwtX5ad/HU0HKvfRhaL5LP0WfZHl6FVfyjWdWQ27pHE7BHTAAY+jq6FzPRAKTaqZ99r4DkvajalrfG+fFwqd8VI1a6DBtHFpYDMQUT4cp2aMnbfNrhkfIsSOPVKUfTqNXwhc7T1Whiz7P3akAcoWpyodbQkrGMbYYFat/RiC3J06XtNY1H4b1ev+pG5KABM+i9kuDO6QPF54r68EFGQcQz6FaYoRmrjOqW0cYksxqVI+foxuU7VHv2GZtyX65TiNq6XwMbTCNdipR9XiwLN6AlAOfzLqE4oxRYnaR0tESvdRgRDat3KZnddyTbu5TWr3lFM7pFEA/usu7qQuU6LrNMjUH3Iew20gkHhdDXGnK/WL9Oj5om+4GIUvp5g7bL5EFuguZ2C+ub6dbqBfVpsfFPy2unqPq4WaEbXwWDYt+TdKOyXZImzsBOxjpaM1W2jGH1r3Upntl7TUx5+R+l7Or8oTOrHKosCTXnWrUu+kJkeFYeUrzubzfpSk1IwItnphuktSWR+dk7BdHF2rvQVVG5LnK0b7SyZ61Skds03lY/iS/OZ3NR5drmqj6um3AFGw78lz6IogNE2yznGVV9HK8CqthFHn1qXty4B/pu7VaNpmrW8oMJfe4p3lAIGW/ZsyHrJnVoUJgpl0au2Lp2PS2TD9JSvGqPim4yR+4L4ehv3l6JOkBizZ75ED3SHL6WKAhidJ0Qaqzl7KmCK08mz6sVQAOWOTJ3h6q6j1WA120iiq9aV66j6XUEsC/7IvGo0ylvJTDF1Lybhe/OQwjTwskHSl+jG+Yq+KPjZXw9fqqsyj9H3y3Xim7JR3YR/mJ3poYnWFwU/CDp9wAMMqzh7MhglP/IvhgIYn+/V59VcR6vCKraRhlytK/tebzgu1nnELNfwzkt/7SnsKMUGTLFNPfSFHNmJvPBlA82XFxtm43o0LgXzFWfnvC8iRzF23NIl8qFwehiO+yp6FCOzUT3ko9iay0TvxrLXUWGusHk5LkbA+PreZ8tXbR2tEMveRimkal2JNZ5mG2PUIJaNZk3frtJrT6bYAMoz3sLWL180yqJXbUzvc4Ya0cfx5TESldt4jFGf/CyJ+UZI6Mb/w8eloL6RoPuqfl43wPw+wPR/GglLXEeFOUTR7CuxLYiiBDZvd+926I+rsY5WjWVtoy5otS7Moj/NXkch5EGsAv6a0KrHgb/Bebxhd2jwBc8XPdGz985yX77wErrx//C+qMzPfLmdyrwwcTtVuS2j9/U14R9mp/Jx8qHwugGaQ6B6RPHJ4/jryKBoLqIww57zz2MEnP4MTvbCutfR8eauH9Y1Dq910SGrqqpwNFslmqZBVVUrH8fvKNWA56UXRTVvUI1f2GMhO7nz3lki9ilMwU+xRbr/o9mYHlHUxnV+dk4vG7B+DfdN9GucLx9H6P6PZmN6oLjNc15sgKYG5p9Q/Lpx3HVUVvcD5pDTi6PcBM68hrO9sdZ1VFVrG+c426gvaK0rDBvt4OAAdV0PTnjoyyOqBV5QgQVfHnHx4kUURTFoYscLvChn98oFbF/6bpT1Q3Khh79dH8mpyuNN+Bpuy+h9fQOl2CKVx8R1Kub6GuJL9L6+gVJsVPb5FBMc7nwlDk9/FYBy8EtYFl9HpzB++N8BD/8UgGFtU6gnT8fuDT/Q/u7ZSV9Hu7uAqxFDsL5ttFitUy/GVFU1+NVji6Aa+LjbcbHqa09AgfnoWeQDgyGL2S3kaNGzhR5EfvaHjC+3cd2NE4ZTbFQXMVLkYuz4EkzYuO5FboPiu4x8mG90SQcAKkwPfhWF6f9WLI7h68gAzQy49DYAi48bo0A9fgpMkb9neAhWv47W92XW8G20GKqq0ost3Hso15XsaA0/Uew/Cq12RylRTV7gvvFlBUScAVIw3whKAQm0ZvO6kwOl+VJ0nXETXeTCL4nkfJVxg0mzec7JgeJ9cZkXWW6nqvIlnmlQ1g9gevCOwV+UUQxaR6ZGeenngfqSjHFBGEww33xl77sQurCedWTha8OqMWgbHQPZGVvXmaef1FVvQP/xZ2X5FAWq8aegKc+Qgps54+NFQC02VHa64TZNpxS3Kf1GvtxOVW7jOjXxcSlIWxP+kTaKKEYK3naAr7h2TuymwXT351GY490Z0GsdmQaF2Udx6eeUOzgWRzN+AqrNl3D6WFj5OiJY1/2xvbbRMdFZ3dZ15llVVfTN3arQrPSRxAIGGzjceBMMSuUjrFIUgMSZL9epyG2KHo3LbFSPKGpjuogxcxDpc8YdTJovhbOrMSptA6XYonH5ZQM+ruVG9SeweeU/A80RNw5C1zoqigpbl/89iqM7lTPtRVHi6NTnw2DYLV99sNp1FGOdlxRy2+i46Cy2IMmu+szT32u36nGMcg/cMlFNnoumuI6c3fJFTRc9X+QJX+N9uZ3KXcWGqryAcV+ii6KUOxvkvlynJhaT8O2bjzsQBKqj39zZLIdpMN3/JeDyrx7rcgJy68hUmOz/Bib7v5mPZSBMuY1q4yXJt30dF6teRxTruqSQ3EZLQO8e5/M5ygXeTj4UVVWt5cmVVR6Zm+IM5hufLt6FKhbSkMLE22q+vYuN0jbIqRi9jftTc8JG9dAF9+U6pRJ9eTky836o3udsVqIwR8D9/zew93vH/ogv1pFpMJn9vj2rxfHOnjmq02+EmTyB00vFKtcRx7ouKYhttCTwapDFqk+zPdZVcP2ReRXjzDZei3r0ZKexRW9yBY/oxvlmC0jX2Z/iS3VVduOKGL3O+lVjpLLTDdNbMtaDi+bL9KAqNipnf0qoB+rLwL3fA1z5nWN/zA/rCAaTw9/F9sUfcteFl4UCzfgW7G99JcrRsB9PXASrXEcc6zzDXXatGzw7qwhCg7+Gu+oN6G9sXvYGNJjicONzYUCOxAb9PjoHOmGjelRsmI1CfMzm/kSOYmyUywZe5L6Zfg3TVV8eI7NRXeRDMSTGvmiA6jJwzz8E7v8h+3TZokXXNGiOHsD2lR/G9sXvt4/mLtqXihKz7S+CKTZQVfU1vY40rOsMd9m1bqEt4INY9Qas3TsiVz2Ov51luTtKiWr8Asynn2qv3apnf1ynYq4gOJtabHg7rdhQmflHffICQGNUxtF04335uBTENxZ034jivlTPfIm3ENxjvBd+BrjrbwGXfw2oHnDXcjv6Ng1g5ijrBzGd/RZOPfTtmOy+1V6iEPN8DBQjVJNn4+jUG8Oby67tdaRj3V+aLWPuFu7Bf9RfVtVP4Vo+wzXFBIdbX4Gm5G/85wuTFBu1MDE9UIotkrsKE1VpUdb6Jboo3gndhH+YnemhidYXlfnZLLcTOfsWtePAAKYGDj9mLyv86V8H7v/XwOxjQLMLNAe2IDczFGZmXypj9jCqPo6tKz+KnYe+FdsX/hlG1V22n6XFBaAoYYptHJz9evtiJLLPXcvrKIV1XlJYRq1TH9edzWaUymLkfn9ne3t70JGmqqrwWF4f+HEmk8lCjxn2hd94RVEs9JhhxR/9MzUm1R9je++HUZgDWRQikS88xTcqIBS82BB1kC8/y6Ix5vohuhpjzpfbOJfrl+nqwWodKIDJzcDkFmB0BnUzQlMfomiuoKzvR9k8vORLBRKm2MDh6b+M2akvUb6ctbhm11EG47H9qflFHtddZ60r9vf3j703FkUR3nCzSpRlGT6qrBKj0SicCSwFpsb44DcwufLjQHibU66A8PwG+qp+ip49Q/WcFzM2qpuMjetqnIqv6qfo4pauq4Xcp5hVoUS983oc3fDNQJF//PSaXUcJrKv+4JhjFRcuXIhmfJEXVADA/v4+jo7637oyXuAFFQAwm80wm83CLSd9MPSIB3f7x2w2G3SETb+gwtgie+GngMu/2BbczsKUK0pc52eoOV90FFoiixgz/aqLV2kbKO7PfCOz0k/AMe80uOZRANsvBJ70vfbXGHo8mnttrqM0jDHY29sbNM66a53+WWMBNGv6xUx/VFn1tSd/BFvONSH3y6bnvgLYfjmAceLjLtf9H802pDBxX68b9iUS81VjpHC68b7cprQ1KRvTg6rYKI57S9e1jqIANp4O3PrtwPhcr0KLa3YdpVEUBao1vVRm0Vq31Jn2ya7640ldX6O3s5RbwA1/DTj1MvZUD58vXpgUG9V7F6auokxEsQ2578AYw5+EjeqBUmxUFpcNuP+jHEWJZnwbcNv3AdMnDV7O1+w6ymBdL5VZpNYtfZbn8/laji7rup1l6TtKeQq4/q8B2y91t+YoRSzUDcVG9ah48o2u+AZ03DvL2wrdi5pN0QOt2KiezIf59nqvwaMcxQjN6BYc3vBdwPQJg36gkuKaXUcZVGu6LWxorVvJDK8rWX/xfZGL1UOw9B1ldAa48c3A6c8mZ7iuYCSLDUXXGSotTLyA8SLLfCMkdNPl6/oN3bNxtH4jKuMrvtHnfT0WUKIePxV71303mslTjr2Mr9l1lME6H3zoO87xtlIGPohVb0D/8ppVj7P0HaXcAK7/68C5P2t/Br1XYSJFjOqRnarcxnVq4raEbsI/0hZ0SlEb113byJfbifxYv2wAAChQbbwYu9f9U9TjJ3Ljwrhm11ECxv2I5JAzz0XRt9atrNhiYNU/DqolP1aXwnJ3lMLeC3nuy7B/6hthwi/zevBikjtT9JwXtcsGXmdt1UsBVHa66fIleqC5L9MDpdiC7oqsOBg8BuF+qmfv/N+FGfl3Ji8P1+Y6SsMX3HXVoK5xVlpsseYL1uvaUUBu2j4e7F0K88kLsHf6b6AaP0u5jou2MHk5AitUoijxs0Gqan0psuE2rrsYQigsJt5WXNqgYO1EPtz/MYCiRDO6EbNz34jZ6T/vDsyr2c+vzXWURtM0ayu4XbWuzBmXhT5VfxmolvRYXRfqul7ukbkYoxo/C3un/yaOpp/ufpivaIuNWpiUwpMtTEQ2PX0DzW1cpxS1cV0rnlSm+uNns0ABU0zd9dnvwsHmGzCa7Kys0Hpcs+sogZNyhluehCCWiXVee8JSj8wFTHka+6e+Fvun/iqa0Y32ftzkC8ipSouYSV82MM432Rfz7RoXXWezTA+qYqPyY/3eWQCAfc/B7PRXY/f6t6CePNO+ZObxdbQQTkLBLY0xC9+kOxSpIJaNdR6ZsewdpRhjvvFpuHL6uzDbfB1MeYqdybDCk7w2i1gOBZGir69WHHnxpFBi7OWrnfly/0c73KWljZdg7/rvxuHOV4jr+Y+vo8VwtWtdCXJdY9XJglwTWjXWlY/fUZZ9n6IZncbB9ldh98zfRT16in4tVxRaCmJTz2a57umEjeuB5r5MF8WTylSnlw247TGCooQZ34C9838Pe9d9F6rpc5KXDB5fR4vhata6kJlxL6ZY9VEM5MmVVcMfXUy04JcPv6Msd5wCKEaoR0/G7rnvwN7pb0I9eUZ787q4bOBBCpWhfszGdRP+YXYqd102oDI/m+V2IovXIT7GUIzsG8Nu/ibs3/TPMd94hbv/Ol94Hl9Hi+Fq1bpiPp9HmfkXLPhrKX0xnQ77+Q1jDI6OjgZP7Gg0Gnzv3O7u7vBH68oS0+mU01kcHh6iLMvBc7e5uckpBQ1QX0a591vAld9AWd0JmCPl3lMqpgoc0dUiN8SX67TIOj0C982N+2iGPZg241tQbb0a1ek3oSmvw3Tj1OPraKXrqMW6a13yfbZj947Ivhj6pp7KveNx6DiLvKnn4sWLKAe+Vm68wFvJdnd3UbvHH/1Rug8GvU3JNDjYv4Bm9w+wvffjQH0RRVHFH8NFjomCZriN69yXcVpb1Y/rj+EiW5QwGMMUOzg69QWYnfpSmGIzPEn4+Dpa0zq6CrUuWZ6rNb1Bh1/XWBUa95ajVX90MKu+CF+UQLmN+cbLcfn8W3B03Zsxn7wQBhMAI1a3jCxyQeQ26L7BjfsrxTNQ3E/xjeyPdtizWIMJqslzcHD+72D3pn+Fw9NfDVPuLOWnxh9fR4tjXbUuWWzhTrPXkWy9plsyhn5cWBTGmHCda3UoYIpT2C9fgtn1/wC7596C2cZr0Yxusq/dE0WMFk/NphRAo9mI3cuRmftSPAbvnS1KNOUNqLZfg73rvwe7N/xfONp8LZqy33tnh+DxdbQ41lHrssW2cO+IXHUQWOOR2Rgz6HrLcbCOnd9vo2LzKTg4/TW4ct0/w+7Zf4Rq8iwYTN2C5sXTgxdSogtfZvd6UBVb0LUvwXjfjyaUQLmBevIM7J37dly55T9g98ybgVMv6Vpyx8bj62gxrKPW9ZqtVQfhsa5bMpo1vMwYboecz+drGauqaownm+6j6u3YO/cPsHvdW7B/+q9hPn0ZTHGKvYaPFztSZEWh5cVxwGUD81i4bFDYSwGj08DpzwKe8G2Y3fp/Y/eGH8B865X2oFdM7DZ6fB0NxnrX0epqXa9iC7cB13FdY53jrOPIXBTF2saq6xqT6dReHyw2UY+fjKOt12L/3DfhyvnvQ3PDNwI7r7Ivmi427DVewBVPWmRzxTF32YD5msxDFtc0XHEtt+yvJJz+LODmvw089d8DT/xHwLk3oZk+037xFebYYp3797rGWce+vfZ1tIK5S96NkMI48c3dot/QpZAaZ9FvUVNI3WIyXvBbVC1mj9RYi36LmkJq7nZ2TmE8AtDsAfOHgN1fAy79ClDvAqYiP63tY1QKZaB44aT6o+1x29L9Wm0JlBOgPAuc/Vzg7BuA8fVAuS1+ZHHxbfT4Ojr562ixbTS42CIRxKIB5KCNs+ydBIlxVrGTILGjLHsnQSIndRuZGTC7E5h91P6//15gdheAipyZ0ksBvHCygmwox32vBbgvrVxxNcUE9fjJGJ9+EbD5XGDzdmB6W+cvIyx1G2Xw+DpqcVXXUQbHKrZQglg0gC7wcVaxk0AZZ1U7CdxHIjrtq9hJoOSU30b+zNUA9UPA3rtgdv8XmsO7UNQPo2wukZ9hZ228fI1fmzXFJszoPJryOjTTZ2K+8VJU0+fDYAPnzp93Xv3uIFjNNpJ4fB2dtHUkcexiCxbEogH0wWQywXxuF/qqdhK4fGr32rdV7ySF+9VRrHAnwaLbyJ3RVtUR9nYvAmaOotnD+OgDGB+9B+OjP0LRXEaBBkANNDznk1xoC3vGihIoxmjGT0C1+RLMpy9BM3kKDMb2kkAxRlGO0TQGQHHytpHD4+voBK8jh6UUW7jH/uq6XjiAvvDJrnInAdlRRqPRynYSsB1llTsJlraNDGBqFEUDmApFfRFl8zDK+iH7f/VJjMz9KI7uRWkuuuu+BmjqVl45CvfllbvGakpgtA1MbgTGNwPT2zAzN6LCWTTldTDj62CKHRiM3BdZhbtH2fV2zW2jbjy+jlqsexv9/wF1Wy4tOB2h0QAAAABJRU5ErkJggg==;" parent="1" vertex="1">
                    <mxGeometry x="-169" y="191.3" width="55.16" height="55" as="geometry"/>
                </mxCell>
                <mxCell id="3" value="&lt;b&gt;Python Code&lt;/b&gt;" style="text;html=1;align=center;verticalAlign=middle;whiteSpace=wrap;rounded=0;" parent="1" vertex="1">
                    <mxGeometry x="-176.92" y="254.5" width="71" height="30" as="geometry"/>
                </mxCell>
                <mxCell id="19" value="" style="shape=image;verticalLabelPosition=bottom;labelBackgroundColor=default;verticalAlign=top;aspect=fixed;imageAspect=0;image=data:image/png,iVBORw0KGgoAAAANSUhEUgAAAQQAAADeCAYAAADb2n73AAAAAXNSR0IArs4c6QAAAARnQU1BAACxjwv8YQUAAAAJcEhZcwAAEnQAABJ0Ad5mH3gAAHCZSURBVHhe7f13mF3Xed+Lf9Zup0/vBTPoAAGQINhJSZREqliSRSmSUpzIdlziOHGU56Y7sX/Rvb6J7ehaSeQSN9mSrE5VUhIpVrETrACJ3gbT+5w5/ey21u+PfWYwFZgZzGAGwPk8z2Awe5+699rf/a53vUUopRRlypQpA2hzN5QpU+b6pSwIZcqUmaYsCGXKlJmmLAhlypSZpiwIZcqUmaYsCGXKlJmmLAhlrghSStLpJMODvZRXujcuZUEoc0Vw7Dxf/eLnyGbTc3eV2UCUBaHMmqOUorfrKMnRftpaNyHE3EeU2SiUBaHMmiN9j7feeJ6W+gRWJA6UFWGjUhaEMmtOLpPk7MnDbNt5Y1kKNjhlQSizpiilOH3sZWynSHPb1rJxsMEpC0KZNcX3HN5881WqKxJU13eUpwsbnLIglFlTctkUXWeO0NLYQCiSmLu7zAajLAhl1gylFL1n3sQwDBqaWghFK+c+pMwGoywIZdYQRdfJ16mOh6lu6MQwQ3MfUGaDURaEMmuCUopcepyzXWepSMSoadqCWMMABCl9fM+du7nMMikLwgZCKVX6kaWfqzjEV0kGzh1maGiYxuZ2EtUtcx+xakjfY3zoXFkQVoGyIKwTSimkkvjSx/c9XNcmnU0yONrD2Z7jnO0+RjqbxPM9fN9DyqtLIJRSTI71ksvnaOncQyQan/uQVUEpSdexF/E9Fyscnbu7zDIR5ZqKVx7XcxgdH+R830lGxvpJpsbI5lMoKZl5MgSg6waVFTW0Nm2ms3UnjQ1tRMOxDb9853kuP/zq/6D7/Ck++U/+Fe1bb1mTKcPkWB+p8QHatt6Mphtr8h7XE2VBuIJ4nktX70lef/tZUplxdM3EcQu4nnPRu78QAiE0dF0nGo6zrXMPN+95B5FwHF3XNpw4SOlz7swxvvqX/zc3bN/C/X/vt6ip3zT3YZeFUgq7kOHIyw+z764HcO0cscqGsiBcJmVBuAJIKSkW8zz/6uP09p+l4OQwDQvbzSKlP/fhl0TTdOLRClqbNtPRtoMtm3ZjGtaGuRhsu8hf/elnGeo+xnvfeQ93f+g3CUcr5j5s5SiF53u8+MQ3ad9yI/F4hOr6jvIqxipQ9iGsIUopXM/l3PnT/MkX/5AzXccpOGl8v0jBTq1IDCjdgdPZJCfOvsnTL/6Anz79bSZT49h2Ed9f2WuuJtnMJJYmqamto7K2Fd2w5j7ksvA8lxNvPE53z3mKqV4SVU1lMVglyoKwRiilyOdzPPzod3nk6QeJVei4MoPnO6hZnoKVo5TCdoqc7TnKX3/1D/jmt/+cJ5/8IY5jX3QKspYopejtOYPhZ7E0Say2FaHpcx+2YpSS9HUd5Ztf/yKbOzaxaedd5QjIVaQsCGuAUorBoT6+/8jXGE6ewieL6xXX7iIVYEYMJp1h3jz+PH/8Z/+V1157lmIxv3bvuQi+73Hy2Jsksw5hyyC6yvP60aEevv/tv+CmvbvZd8t7iSZqVvX1r3fKgrDKSCnp7e/iZy89TCrXj+3k5z5kzVAoQjELPQ4/O/gwf/ulz3P8+CG8K7g+Pzk5RteZY5zrOkt7x1bMUIzVqYiiyKaTfPWLn8PUFLfc+3FiVU1lMVhlyoKwSiilcF2Ht469whPPf4exyT5cz5n7sMtGXGpFQVywGGwjy0+e/DqPP/k9evvO4XnemloMSklS6SSpyVEqK6upb9mMEMEQ830fpeTcpywJpRTFQp7vf/vPyWfGuOW2u4lW1OL5V07orhfKgrAKKKVwHJuDbzzNc6/9iHQuiVzh4L8YphkitpwEIQFGVOdk7yG+9uAf8+ij3yaXS69ZoJPv+5w8+iae67C9s5lwvAZd11FS0dt9ZkXvp5QKYhq+8ze88uJj3HbzTbTvugNNN9A1Y+7Dy1wmZUFYBXL5DE+/9EPeOPoMvu/BKjkN5+K6NoViHtdd5usLRbgixOmBt/jbr/0RT//sYQYGekmlJpFy9YTLtoscfOFxBIpExMKKVGCYId4+fBDPc9FW4Fz0fY+fPfkQbxx8jA/fdy/bb74fMxwjHIphmqu7elGmLAiXTTaf5rHnHuRU1+E1sQrm4ksHTQhWsmIpdPANl2Pdr/LFr/wBjz/xQ44ePUw+f/nOR6UUPT1nGB8bJhwKEYvFCcVrcG2H0eEBOrfsnPuUSyKl5K03X+KbX/6f3H7jLho79hCpakATGqZ2ialTmRVRFoQVopQimRrjsWcepG/w3KreaS+FbgTBSUqt5KIIcigqGyrpGz/OE889yI9+/HXOnDmBba98JaRYLPCTH38LKX2iYYuWbbeg6RYvPfc4LW2d6PryrAMpJSePv8kPHvwrPvLBD9DWuZOGLTdTTI2SGjxVdiauEWVBWAFSSTK5SX728kP0Dp5dcYDRZSGC93RdtbIZigBhCIQlGUyf5ZEnv86TTz1M17lTOI6DWobASSkZGOihmM8xNjJIXW018bpNTE6MceLYm2zeumvaubgQhXx2lqBK6XP65Fv8+Rf+K9u3bqYyotOw5WayY30UkgO0b7uNUGQVIx/LTLP4WSqzIEopUulxHnr8y3T3nVqx53w1ECJIlfbcy7hbimC5UpouJ3pf48/+4vf42tf+lJGxodLKwKXVRkqfl19+isHecwgB7Zs2o5thfvrwt/jYJ3+ZSGTxLESlFMODPdOpy1L6nD11hC/8f/+Rd7zzPtobKtl0430Mdx+l59xJtu9/P6FIvGwhrBFlQVgmYxNDPPXCDxibGJq7a12wLB2Ji1MEx/ZXZi2U0HRB2852hpLd/M///Z959NHvMDDQc0knqe/7jAwPkE0n2b5tB7WN7YyOjlBd08DW7Xsv6kz0fY/Tx1+nWMihpGRooIf/84X/ys0H7qApoaEJwcuPP8jxU13c875/hGGF575EmVWkLAhLRCnFeHKYh5/4Cv1DXXN3ryuWZWCFwfN9UpNFLs9oCVYkmjY3cWbgMP/rC7/DD3/wVYrFwiyz3vd9stkMvu/j+z411TXksml2bKonnGjge9/8a95x788BqrTyMh8pJd3njnH+3AnGx4cZHx3gD/6ff8mefQfYv/cGspPDHDt5Gj3Rzoc/+gu4dm51YpzKLEpZEJaAL326+07xk6e/TjaXuiKrCSshErGIxg2KBR+74COlYgkW/zyEEMFUQkhatrXSNXScP/4//5XnnnuUQiGHlJKenrM89th3SaeTjI4O0tdzlkg4RCQSZXB4hP0H7qFj83Zef/U5CoX50ZpT8QUnj75OTW0jkXCYr/7tH7F122727NxK14nXOds/Rsfmbdx6841E41VUVDduuFTva42yIFwCz3fpHTjLo898i4nkyIYVAwgihE3TIBLVMSydocFJfE8i5SWt/oURIDTAlBgJwevHnuFzf/Qf6e45w8GXn+JnT/+YYrHAww9/jdTEKJVVNWze9y7OnTnB+z74SV549qegIBKJTb/kVBCX73scfv0ZhvrOcte7PsS3vvJHCE3jnnveyfmThznd1cvuHVvZ1LmTLXveSbyy/qKOyTKrQ/kIXwRf+rz+1rP85KmvU7Tzq5aluOYI0HVobqlGKkUh55HPu0i58s8vhECzBBVNcb7z8F/yzDOPUCjmyWRSnDzxFkpJbrzlXaSLsGPXfpSSHH37Nfbfcje6piH9oFTc+Egfp4+9wvjoAK+/+Ah79uzl2Se/hxFKcPPNt/L8zx5BNwze/a572f+OT7LrwAfQDXPuxymzRpQFYREKxTzPHfwJrxx+Gsctzt19VSBE4HSMJQxCYYPJZJ58TuK6EsdZ4VKpACOsIQyBXSwyONjL3fe8j1w2w849Bzh6+DV27t7Pn/zP/x/3vvfDmKaFVIrzp99ifLiPH379fxGLV3Hs8IskoiFOHX+DyXSarTv28NrLT7N353Z233gnB97zi0gtQrF4dR77q5WyIMxBKkkun+WJ577P2ycPboiCI6uBrguqa2KEIwJdF5i6RXf3MNIzEWiBBbBUk1wIBIJCIcvffeULbN68nUg0hu973PnO+zh14i3uuOs+dt1wM0IIpO8x0HeaV5//MZYVpqKqnvHBM4RMgYjUEovFyI52cfttt3PDXR+joeMA33vwb+ntOYcVKhc+uZKUS6jNQErJyOggL7z2GP0jZ9Yn4OgKIqVC13RAEIvGsZ2gvuOl0KTByUNHGBkeorm5jV/99X9LKjnO8GA/Nx24kxeeeYxP/INfo7f7DLv33ELPuaO89NT3mBgb4NZ7Pozt2mRHThKOxEnlXeLREDWNHWihaibGxshkUtxx933UN7Sg6/p0zIFSCtf3mcjkKLrB54xYFpXRKJZpoJWXIC6bsiCUkFIyMTHKo88+yPhk/5ICcq43BAIhIDOW5/hbhzEMk1tvfQc/9+FPEQ5HkL7P17/0x3zsE7/C1u17+MF3/oYHPvHLPPmjL5FJTZDLJHnPA/+UkXNvkB7tJlbZQLS6hWh1C8ePvsXQQC//6NO/RTgcxTACoVJKIZXCcT3ShQJffPxndI+M4ZfOjyagrbaGX3vfe2isrkTXlmjllFmQ8tEr3Xn6B/v43qNfYTxZFoOFEEIQDkXobN/Fnp0HKORz6JpOS8smzJLTz7aLROMJWto6AUU0FiebS1Pf0sn4cB/7br+PQmoEO5+ion4T9VtvwSbMQF8fN+2/i3/66/+BeLwCwzCmxWAim+Ohg2/we9/+Pv/py9/k9NAIZjhMXW0dtTU1GFaIs8Oj/OH3HqZ7ZPRqcftuWK57C0FKyfnes/zV3/0v6hvjaOUsukXxPMkD7/s0586c5C///H9QW1vPv/sPv080FoQS23aRr/3d/6a9bSubO3eTzaW4+573MzLUTf/5E7R1bgflY4aiKMAKx4nFqqhIVKFps6cG6XyBZ4+e5LFDb1FwXaxQhOa2TWjRRLCEMhWPoBQU8/ScOc6u5kb+1Ufej7HMRKoyF7iuLQQpfSaSYzz006/T2Jwoi8ElKBRyeL5HLF4BAjTdwAqFpi9k13XwPJd0LsVjj3yLtk1bkEoSjiXYuuc2QtEKwhX1GKEYuhWd9mG4rotSwaKu63m8fPIMf/Ddh/nBK69jhKO07dxH64696IlqhGEiROAEFUIgNA0RidHUuY3j/YP0jI6VLbzL4LoVhCD6sItvPfRF0Apzd5dZAKEJnnrhIQzDQCB4/wc+XkrDDoKNzpw5SnVdE76A2vpmqmvq8H0PTdfRNA00nWIhz0B/D28fOshD3/0yf/Vn/y+vvvwUUkomszm+//JrfPmp55i0XVo2b6duy06saBxhGIvXZhQCK5YgHI1yemAYWRaEFXNdCoKUksGhfh598ru4fqocDbtEDF2nu/9MEItgGLS1dUzXOXjr8EEsK0Q0UYGSkv233B1MI5xAbKVSnDp2iMd//CB2oUBLawfv/cDH+ZXf+G3uedfPkbMd/vTHj/OT1w+TqKmjdcdeIlW1Sy/hrmlUVlYzmk6XLYTL4LoTBKUUQ8MD/OCRr1D0k2UxWAbhcJRCMU+2mMEwzOmCr0IIbr3tXbS0dDDc283A2TNU19TOem4+l6GuoZmf/+QvsXn7LhqaWmlr20JlVS39E0k+9/0fc25klJbObVS3b0EzzcUtggUQQlCRSDAwMbmi/I0yAdeVIEgp6e49x5988X/gi8JyxlsZABTN9a2cOvcWe/fdSiwRFCnxXJeertN85a/+iDPHDrNz903EE7OLwcbjFdTWB2XTNU2ntqaJeKySZDbHn/3kcQaSk7Rv3kasrnFZQnABgbDCFJzVa4RzPXLdCIJSimKxwEOPfou2TbUodW0HHa0VVihEV+9JGptbEEKQyaT43rf/muPH3iTRWMtt995Pc8smQqE5dQtKTkBdN6itbiQcipIt2nz5yWcZSWdp3bIDq7pu2kG5EhzdIh6LXbpUfZlFuW4EwXZsvvvwNyh6KRy37ERcMSJoHzeS6ufoyTeYmBxjz813UdFQjxGx2Lr1Bvp6zs3LTJTSJzk5ztnzpzjXfYqe/i6eOPQWb/f0UdvUSriyZt5zLqBA+kiniJvLBkuNi+DYl460LLM410UcglKKt46+wVMvPoTQ7bm7yywDKSX9g334rkYuW8R1fZQChU80GuEffeyXqYxXUlvXAIBSEt+XnD57lMNHXiOXzwTbow30iUaq65upad+y+DRBKSy3wPnzXdiFPFIptuzZj1igBLvpFikM9fCfPvHzWEa5Z8NKWEySryny+RzPH3wCoZXF4HKQUjI2Nsn4aIHhkVEKTgal59GsPJppk81P8tXv/C2TmRSU4hKOHDvEt773RV569WfTYoBmMK4qscIxqprbFxUDzfcY7T7DoTdfY2JijFwhh+M6OM58K0BJyfjwII2VleWchsvguhCEkbFhzLAsryhcBlJKurr6ONfVixR5InEIRcAwQdOD0vChMBTdDD978Ulsu4jjOJw7fwLbmV3e3Y62UdCitG3dgbbAnR5AuQ5njh5mZHgQhUKIYCVB13Usa359BOV7TCbHSSV7ePixr/HjJ77L8wefZnR8hKJdxPfXto3dtcI1P2VQSvHS60/z2ttPXvPZi2uF67p0dw8ykUxihSX6RaxxJcGgktv3305ycpx8ITvjQhS4ZoJBYxP1rR1UNLcv6ETUpM9Q12lGx0YC/8EMKiqqad+5F2YlMSmK48OcP3OSHYkUUTWJABzXI5stUpmooaGuhUS0hq2bd7C1czuWFULXSgFTZaa55gXBtos89PhXGBjpKt8hVoCUkr6+YQYGhwnHVJBGcBGUAumEaW9unZd5qBCkIh0UQrV03HBzYF7MQUlJZqCb3v7eeWIAsG3XPkIV1bOnGUqSGuhhdKCHvfF+lD93aqiTTmdAaeRyNqBz055b2LvrJja1bqaiohJNaGhaEBJ9PXONC4JidHyYhx7/Mplccu7OMpdAKcXIyARd53uJxBQzgwaDC2fq4lHTYqsUuEWdTU3tmObMC16ghSs4L9rp2LkXM1E133egFE4myekTR0AphKaRqKolMzmBkj6GYdC5ez+h6IUajQDCczl/9E0azDRVsm/WvpkopZHPFykWbQzDJJlMo2shbrxhP5s7tnPb/ruIRqLTeRLXI9e0ICilOHn2LR595psL3m3KXJxMJseJE+fQLY+ZU30hBFUVtbzrjg/i+R4vvf4kE5OjwU4FdkGnrbGV8IxqR0poTIY7ENWbqN+yC7GAqS7tAiffeg0pJbGKKurbOonE4kwMDzLcc5ZwJErnDfvn1FhUpPu7GR3sYVtkBEtlZ+xbGKUCLVIKBBrpdIFsLkc4FOX2m9/BDTv20rlpO6axsH/jWmb+WbnGSGeS5anCCvA8n+7uAYQ+Vww04rFK/v5H/xkHbnwHt9/8bv7hA78xvV8RXHFzj7gyYmRVmERt/YJ3X6UkEyODKAXVDS20bbuBaLwCITRilVUopWisb0Kf48CQnkdqcoKo7mKxtPqLU28fGDmSREWIpqZqqqpDnOl5g58++yDf+OGf8cbbz5PKJPGuI4fkNS4IitNdRxYcgGUuTiqVIZfPY84paRiyQnzsA5+mrakTQzcwdIOKePWsxyglppf+hCawfYezXScxdEG0qnb+VAFwCgXGR4aIV1bT2L4ZwzQD0x0wlcQ0TOL1TfOe66RTFPI56kNFUAs3hLkUQoCmiVL6u8R2coxNDPDcKz/lz7/8Ob7xvS/x/MGnyeVzc596zXFNC4KUklNdb69r/8WrEaUUqVQWXZeznPma0GiobWFb5w3T3nkpJWMTwzOeC1KCoRsIHfrGztI70IOPSU1rJ2qRaMTC+CChSJS2bbvR5wYVZVNU19Sh5i5vSJ/hvi6iBkTk+Ox9l4lSCs8vopsOA6PH+f4jX+e1Qy9f85bCwmfnGkApxWR6gkx2ckM3V9mI+L5POpPBnJOOEApF+PD9/xBjxhze8z0ee+570387RRCaYjjVTc/waXzfx/MgVNVCtKp++nEz0aTP2PgE9Y0taHOWMYRSnBsYpLZl02xLTynyE6MUi0UajDE01uYcCyFIpbLYxSx/9+BfYjtzVzCuLa5ZQQDIFTLoelDMo8zSKRQcXNeZa53T3NBGY13rrG2Z7CSjY4NQsg58L5iX+zIw36UPSmrEGrdgzE14InhSJjWJ0DTi1bNTpgGUENyw7yb0cGT2dqUYHRogYkjihgsqyKJcPB9i5aRSk/ieSy6fYzI1cU1bCat/9DYICkU+n0WbUca7zKUIBrrneQhtfmBndVX9rEAeKX1Onn0L2wmceUoGPzMte9cBzCix+vZFpwvSKdLQ0LTwfiHwjNmODKUkhdEBivkcbaEkmrRRgKGHyGYL+J6GwMSxPTRhXFbHKiXB0Aw0Tec973g/tTULO0WvFRY4A9cIKhiw4hr+imvJQkPecYILb4p8IcfBN382HQHqOMETp2YUSoHnghZKEI7Pro8wjQhSqisbmuc5DBfDt20GB/qoCXuEVQqlfIRQOG6eaNRCNyS+dIiEowyPjDM+lsb3BL4PnivRtaCq86WQEpITOTzPIRar4iPv/wTGXD/GNcaGuFpkqQFHrmiTyuXJFoo4rofn+/hSXizb9aLkClmEWOGTr1sUpmkg1fzIjdHxQVzXQUqJ73u88OoTJFNjULp4XDvIb5jpiFQK0HQisfiFjbMQhCprkUstlSYlxeQInmNTp0/Mu6yn7t6aJvCVQ319JfUNlSAC0dANnUSsmnh0EYGamvr4itHhcZLJERxH8sH7PkFzQ1AD4lpm3QOTXM/jSE8fTxw+Qvfo2PQ6dsg0aa6u4tZtm7mxs4OaeGxZJ0NKn1cPP8tDj/0ddYusfZeZSzAU8vkibx85RSQuZ920hdDY2rGb22++l56+M7x6+NlS4hIUc4EoROIXBEEpyKVBj1Sz6+/9Owxrth9gOQhAUz5eMcPAqbep1ArUMFhaKlQLrCQt73wH40OjWHBIpdLksll830Up2LPrdn79058hPMePcS2yroLg+T5PHznOd19+jba2dmSsOjiP0ic90M1EchIlfUxD55ff+y4ObOkkVFqfvhS+9Hn25Z/w2lvPYppLvPtc9wRDoVi0OXToJJHE7GVHSkuPmqYhVXARSqnwPShkIZqY7T9QKtgulcXWn/tN4o0dM19q6lEoKVHSQ0kflI+SEt8t4OfGCBXH8TKDjA+dIWSaxKJxouEImhAIFAimO0rNZ8GNJQS+76OUwtCivPnWYVA+iVhk1vjS9Rj/5d/8Po31zUsad1c76yYIvpS8cuosf/fsS9Rv2oIRi8/yECspkU6RYjbF+PAg0nXZ2tTAL9x7D+11tZfMefd9j5889W26eo8hVxiwcn0QnH6lFJ7nU7RthoZGGRtNoVuKSGTx62pqmuAUg6mCGZrvBnAdKBZ0Gm+6n+YDHwAl8T0bv5DCnujGTvbg2RmUk8N3bTTlYeqCaCiEoRuYhoGuaeiaFvRgAFhUAFj0wwajXOF5Etv2GRoaxnVdLNPE911AoQltRhSjoKqint/45f9Aa0t7qQfmtc+6CULedvifD/2EkYJLXef2BWPbITiT0nUY7ztPJp2iPhHj19//HjY3NgTZaXMfX8L1XL75w/9DJpvE8col0+ailEJKief5uK5LKpVhdDSJ4zoYpsL3Fa4DkVhw15+6UJQKfqQPdiHwwlvhhcVg6vH5jCDauI32uz+KM3aWdPeruPkkQvloBCXdE/EE0Ugc0zRLF+aFi3NxFn+AUoETxPODik0aJufOn6dYLFJdVYljFxDawgvSQghMw+LT/+BfsX/fbdeNGLCegjA8meJ3v/4dNu+8AT8UvejJBUBJnHyWwbMniVoWv/ied7B/c8e8FFtKg6FQzPG5P/+PNNU3U7AvnfByrTN1mqeEIJlMMzQ0FgiC52CYEs0I5v9CBBe6XQzu8LoBlhXYEq4dWAZKgm4GRVFmdlabi5JQyEE4amGEdaRXIBKKUlfTgGEYGIYx3RtyNou84EWYsgKUAseWnDx9hmg4gq4LPNdF0wW6piHlXH/DbAzD5B9/8je5df89030nrhfWRRCUUpwdGua/PfhDttx8x9KDSZTCy2cZ6j6LkB7//AP3sbejfZ4o5As5jpx4jS9+63Ps3bl/OkjmekNKhe/7FIs2+XyRbDZPPl/Admyk8jCM4GLXtIWvPyXBdcEtggym62g6aAaY5mx/wUJIH4p5ME2T2vo48VicaCQaCEApT2E+C2+9GFIqPNcnly+SmkxTLBZB+RimsYJXE+zecRO//ov/lnDo2ncizmXdBOFk/yC//92H2HbgruU5a5TCdx2GzhxD+T6f+cgH2NXWggA8z+XIiTf42ne+yOj4CEbYZu+um5b3+lcpSgU1CZRSFIsOo6NJUqkMruviS4luSILrUF0IOlriYVGKwDwoPf6Sh1OBL6GQFYQsix07NhEKhxAlc/wCl3qhxVFKITDo7x9mMjVJ2DJRyMt4xYB4vJp/888/S+N1sMS4EOsoCAP8/ncfZtvNdy7uP1gMpXBzaXrPnKC1popfe9+7qY9H+MYP/ow3j77C2HAOKSWRmOC2A7fh+e7cV7jqmGvyKxXM8ydTSVxHYds2juNh2w6+dBCaQmgKTbswDbjsq2UJBFMNgfQETU11NDTUYppT0aKX9wGkVAihMzg4TC6fR3o+KIlhLM2snzmlANA0Hcf18KUENKoqavjFf/Ab3HjDgetuqjDFugnCqf5Bfv+7D3PD/gM4+pwc2+BBF25LCyq1wpscp7vrDC1VCbaERhkbO4/j2pw6fRa7GDiVWlqbaGmuwzSNq0LxZ174wU9Qvdj1PCYnkxQLLoWig2O7SBk8RuhqutippoF2+dfeslEKPAccWxAJh+nsbCE2awlvZR8oEECFkjpnz50nn88RCVsY+uLlzuZe+CAQQiOTKyCEjudLdE0nEo6wfetu9u+5hbraejraNlNVWX3digHrJwjQNz7OZ7/5PbZs2YZK1My66IVSpIf7sW2b+tpaZLRiYStCKUZ7zpIcHaIp4tNsDjA+McrQcB++r/DcYEksHApTV1dDc3Mduh5MmBcZS2vPdATg/MPuOC7ZbJ5MJovr+jiOg+9LCsUiSgUxATMdf1N3/xVea6uCUoGj0XMFhqHT3NRAVVWc0HS1pJV9OKVA1wy6ewZITqYJWSZKupgXtQYEruuTL9h4UiKlRNdN2ls62bX9BlqbNxGPxUnEK6irqaeutoGQtcDN6DpmXQQBYCyd4T9/9dvEKqup2bRllmPRdx16ThzFtvMooKGukdpNm4Nb4Fw8l8GzJ0inU2ytyJEZOMRkanz6gpMyyMDzHIGSgpqaauKxCJFoGMsyCVkWohTtttgdZzZTj5lxJ4cLcRFKoJTCKYX4ep4XtCcvLdf5vsT3JLbjUCzauK6L67rYjlP6DCCmzHwtqGM4bfJvEFSp5oHnAMogHotRV1dFdVVVMI+f/qzL/9BKgW17DA+NMTo2TjwepSIeo1CYXZxkyoJyPYlUgnAoRjSSoKmxldamdja1dtDWsonGhiZM0yoFL5U+z3Qw0/I/37XOuglCtljkvz/4EEnXo2XrbsQMM035Hj0nj5DLZkAINAR1dfU0dGydH/OuFF4xT//ZEyi3QGjsBez8+LTpPeNhQSquEkgffDdIlzUMI7gISzX/NU1DKYWmzR8wolR8U6lgQPq+h+sFKxhTPvOpt/W8oOyW7weJP0IHbcqhN8OpF7z3VMTd1GBd0bW05qhSspLnCAzDoq21iWg0TDgcWoagLoxSQcTjua5eHMdB18AyjWnhBdA0DcOIMDI+gecr6ps6sY0q2lo28an33EtrQyPRSDSIY9BEKZ5h5Z/pemTdBMH1PP72yWd5/XwvLTv2oM8o3CeUoufUUTLpyeltmtCor2+krq1jXuUcpRR2apyB82dJZA6Rmzg7TxDmolQw1qQsrauX/r740y5MNdQF23/aYTf1W5u6EZXu9heevTEv9MUIhA98T6B8gWWGicdjRGMRamuqAXnZF5xSCs+DkZFxkslJNCGxSv4e31f4UmFYYYoFh2hlPUXCRCoaEOFKPHQQAl3TqUnEuX//Pu7esxND0zeURXU1sW6C4EvJwZNn+Osnn6F9+w2YsfisqyU71Edvb/es1t4CQX1dPbWbts6yKCAYvZnRQexTPyI7fuaSglBmEVRwGjxX4DlBcZOamirq6qqJRkMLOtxUyfGnKRNfeRjmpa9GpRQCncHBCfoH+6iIRUtTI4FUYDs+tuOjGyFEtIFw7Sa0SGVJYRd+fUPX+dhdt/LuG/eg6/oijypzMdZNEBSQzuX5j1/5JtFEBTWbts3Km/XtAl3H38ZxZ/fx04SgpXUTFc3ts7YDCCWZePXvSA0eLQvCMvH9wCfg+2AaIaorK4nFI1RWJjCMBRy6UyhwiornnnyDaCzCrffswLQuHrGkaxa9fUOkUimk7xIOBYFKtu0SCsVIpbPE6zbhh6oxE40ofenl0E1d51PvvJN79uyaF7BW5tKs2xETQCIa4eN33ko2k8K3Z+cbaFaIikQFAFYojG4EWY5SKQb6e3DSE/PteyGgnLdwSdSUU9ANIgkLGQ3phKhM1LBj21b27d1B+6ZGamoqLioGvi85d3KQP//8txgfS3HrPTsxzMXFQEpFarLAq68dIpUcwzICP4HnSzJZB1daZGWU+NZ3IBr2YlS2LUsMAFzf58HnXublE6dL8QVllsO6WQiUrIThyRR/+N2H8a0w9Z3bZqw2KIqT43SfPcWmXfsQQpBLp0hPjFHMZ4lHY7Tt2IOYEQevI0m98mXGBo+XLYSZlNwdvhf8KCkAnUQ8TjweJRoNE42GAzNbXHpJVikoFhxefeEEh187ASj+8a99mOq6xWpWCMbGJhkbS+K5NuFQcJEXHRcpNXQzil7RghZvQIQqLjhjVogA4pEwH73zVu6+YWfZUlgG6yoIlKolfePZF3jm2Cnad9yACEWn9/l2ke6TR2jZvJ1QPLAWpO8xNtDH5NgwrS1txBtbZ63J5d/6HiNdBxcomHGdULr41ZSzVAqkBKROKBQiFDKpqEhQVZUoCUAwb18qUirGh1O8/vJpjh4+SaIixi/8048QrzLnX8NKMJnO0tc7iOvaxKNhQOB6Pp4vQA+hR+tINO/EZpF0yRUiBERDIf7hvXdzy7Yt5aauS2T9BUH6nO7p5n898hS+ZrBp102l9LngVqRnJhiZTFHTvnl64CopSU+OM9HXTeeOGxDhkogoRe7EM4yeehSlrq9Oz9IH6YvACigtr4Ysi1gsQiIRI5GIYVnGyhuaqsAR3Nc1zk8fep7JZAbTNPjIJ+9l2+7Zcf9KKZTSOX26i2w2QywaxjB0fE9SsD2k0qis74SqDpQZQ81TktVBCEE0ZPHrH7yPHa3NZVFYAusqCMVigRdeeZYnn/sRfkUbg7KC9s3biVTXT98tlJQMnT5OfccWjJklrJQiNz6CriThuiYEIJO9jB1+hMxEPwgboV1bVoJSF+78UynIUoL0NcIhi1AohGWZxGIRKiuD2gIrufYXwvcUrzx/jBeefiPIE4lG+OBH7wnEoLTOKggKmY6MTNDb10usFPzluj6+JJgexOqpat1NXlyk8soqIoSgtaaaf/ah+6mvqrwC73h1sy6C4Ps+qfQkf/ftv8QnjxI2aCbnnFZsQnTcsB9hlCrjKkVmdIj85AT1W3aizejqo5RCFfNoloXff5iR4z+hrWkTmXSGrq5+NN3HDAUBjqt1Yaw5Uyb/nItfeuD7QbCNbmiYhkE4HKK6uoKqqkTpDn1h/r8iK2ABlFIUCx4/+c6LdJ3tRSlJOBzik5/+AI2tlaWahsH0oJD3eOvIMaIRi0jYQkpFNl/EMKMoM0rlpgO4WviyfQTLRQjB9pYm/vmH30d0RgPaMvO54oJgO0Veef0FXjn0DGg2iKm7uEBpFmeLzZjxGuo7d1xwGEpJdrAHZYaI1zfOrp/g2TjdL5E6/zJ1VdVEwpHA6VUsMjQ0TiqVQSoPTS+FAZdCgSnNM68IcyoYS1naVgqIuvAjSqHPQRx/KBTCMDTC4TCWZRAKWYTDwbbA+RdUFVqti38u0ld0nxvi4LNH6O0ZAgWJiig//6l309xeg6YFnzWbLTI0NEYulyUSNlASEAaZfJFIZRPRus34oepS6PnafNZLoWsa77lxDw/cfRvmArEUZQKumCAoJclmMzz82HeYSPdiu/MbZyoErl7D6VwlDZu2EKtpnE5qUr7HSNdpapvbMGKJ4Am+Q+bkT8l0v0ZzQwvRyAWHJKW7m+f5jIyMMzmZxfc9pAzShzVdITR5YYyWWoRPP3fGJTy9fW4k44zt03+rCy8yFQGppED6CqWCi1gr1QhUKgj31XUdw9CwLIO62joi0VDpQg9edC0v+sVwHZ9zpwZ49IcvUCzYaJpGQ1MNv/gbHwUt8M/YjstkMsf57h6qK2MIBPmii26EKHhQ1bYXEW+8aDDRQoipL1/KV1gtLMPgVz/wHvZ1bir7ExbhigiClJKhkT4ef/b7jKcGL+7wExp5vYnz+ShNnduJVNVd2FfIUsznCdc2gHTJHn+ETN8hWhqaCS/UJmwGU0IQ9Br0S/+/UFfAdT1838dxHZQMmpLMZOpxM5mb7yBEUB9Q03RCIQtN07Asq5SvHyT9GIaOXioeqghyGHQtqCE4245YP3xPcfDZo7z64hGKRRshBJ1b2nj/A3dQWR1c+BPJLD29/YRDQVUi15XoRoi8I4k37UKvaEJpC5VGW4RSBaVQKEyssoqKmjrymRTjQ4P4q9iOvSoW4zc/8j421dddcZG9GlhzQfB8l9PnjvLMyw+TL2aWdGKV0Bn0GskatbRsu2FWngMELvXsyZ+SPn+QpvpmYtHY7P3LZPZHuvTnWxqzheJqQCnIZ4s8/8TbvH3oRFCcVBPsvWkn933kAJZlkS/Y9PQMkUwmsSyzdOw09FCccE0bRvXmUm21pX/pUDhMKBqnprEZLVEZiGPJalN2kYneLjKpJH4pkexy0ITgho42fuPn7sec22W6zNoKguPZHHzjSQ4dfQnHtZd1sUl0hlUrOaue5i07p7sCK9/FPvsU42dfpKOlo5StuPTBV2ZhlFQ4tuTv/uJHJCfSKKXQdY1b79zLXe/Zi2EajI9nOXvuHIIgxRuhoYRBy+YbKUYa0YzQ7GyuiyA0DdM0aenYDIlq9KnSznPPZeBcgXyG3tPHcR1nSTeVi2HoOh+5/QD333wjhr60z3u9sCaCoJRiMj3OC6/9lHPdx3C92fkIS0WKEL1eE6KqnbqWTSCgOPAmE2//iMaaeuLxKe96mctB+pKh/kke+f7zjI0mAYjGwhy4/QZue8cNuK5PT+8g6XQgFAqBbkXRE03EG7agWYlZeSgXQ9d1IrEEVY3NmBVVaKWCq5dGIYtFkr1dpJPjl6ycfDEE0Fhdxb/66AepSSSW9vbXCasuCFJJbLvAt3/0F0wkh5GXGTEo0ejxOzCrmqmoijP43J/S1thOJBKarkFQZuVIXzLcn+GbX/4xjh3UnjRNg/d84Hb23rKV8bE0Pb19pQtQoIRGoq4Ds2kvQjdALN4bYxoh0IRA0w1atmzHqKwpxS5c8pnzUNIn09vF2PAg6nJEQQg+duet3H/gxnJo8wxWVRCUUowlh3j0Z99iZKx/7u4V44oop3JViIm3qA15NNQ1li2DVUApOPJGF88+8RrZTB6AUMjiI598D1V1UYaGx8hms9NxEVqsjnjzDZiJumDJc+4LLoQQhMMR6jdtJlRRNa+WxYrwfZzRQfp7ui7LUqhNxPm3n/h5ahKLNaK9/lhVQZhMj/HwE19ldHzgsud5M1FA0ZaMTfTT1tR+URNPiNL8tsxFkb7i5WeP8tIzh/D9IDAiHA5x7/vuIFEbYmx8otS/EaQRId6yl1BVM5oWzPUvcgpKCKxQiIaWVkK1TUE4+sVO3DJRSpIb6GGkv3fFloImBO+9aS+feMcd5RtMiVUThKKd5ydPfYPu/lOXpdqLEfiW5CXXj7tODdN1pp+733UAzfQwraBEWpkLuI7Hs48d5u1Dp6anCZZlcs/9BzDCAsexkUogjBAVm/YjItVoZnhJVoEQAk3TaNvUiVZVi2ZNRSauAdJn7PRx0pMTK74JbG1u5DMPfIjQRdK2rydWRRCUUrz8xpO8cvgpPG9lPRCCC16VlroMpK/w/CBeIJfPIaWPUhCLxtA0EfQA1ARS+uh6ENwDCs9VPPPYm5w+0U11bQU337ablvYaYvEQWtmjjF10efmZo7z20hE8z0cIQSQa4sbbdhKK6whNx4pWEapux6xqRekXshAvdVnrukGiqpqqplb02NIdjZeF5zJ44m0KueyKRCFsWfyrj36Arc1Nc3ddl1y2IKhSH8W/+db/wHaKJQN/YYK3Kg0uARDUwzOMKKfOdJHOZBFCo72lg+bGViwzRFNDIyfPnOJnLz0ZLIVpeqmA5tTwVJimiWkYVFYk2LFtM9lsimOHenjmyYMIIYjGwuy5aTu337MzeK62lEai1x6u4/GT777EmZPdeF4QHBaOWOy7fTvRijDRWBWx1n344Qthxks5TEIIDMOkY9ceVCR+ZYRgBno+zZkjh1dkmWpC0NFYx7//xEcvaX1eD1y2IEgpOXTsRZ59+Uf4cuEIRE0zmZzMks0VCIeiCDSqK2vRNINEvDIomd28iYb6RmqqamedGN/3+eFTj/LkiT58NEyhAtFRPp5j4zhFhPRAujh2AVMWUU6WXGaSydEUIz0TjI6OgYKauio2dTZyxz03EYlfX4U4pQ8Pffs5zpzonq4EbZomt71rL/Wbt6FXtKJFa5BCnxWJfSksK0R1cysVDU1IfRmRiauIUpJU9xnGhwbn7loS0ZDF7/7CJ6mKx5b0na9lLlsQFIpiMc9Dj3+FseTQdDSZrutYZpi25i1s7dhHLFJBRaIyCDGeaYIKMV0jf+pnCqkU46kkn/v298nYcgHbo7Rl1o7gD6Ekwiti5yaZPHeOwwdfoZjPIwjCh9s2NfHO9x4gURUKWo1NZe1daygoFBwe/tZzdHcNTN9FDdPkjvvupfXmO/D05Wcg6oZBTU0dFW2dKNNad6ecLOToP/72vJDzpWDoOv/4Pe/gjp3bL2RvXqdctiBMYTtFkqlRbKeIQGBZIeLRCiLhWCkrb36fg0uRKRT48x/9lHNDowuIwRJRCiV9iskJRs6e4sTB53EdJxAGU6e+oZZEZYQtW9vZtqsl6J9wjUwplFJk0w6PfO95urv6kTLI4DItiwPv/xBNu/eiW8uoVFSKJ6htbCJS04ARS6w4nmDVkZKxM8dJTYzN3XNJNE2wf0snv/L+9173kYurJgirjZSSN8+e58tPPIPjeQihYYUsfN8PouWmMuGWkRGnfJ/c8ACnDr7AWF83jm1PL1kZhkFFZZyOzc10bmuhtr6CSNREN/Sr8q6hJGTTRX783efp7R5EyqCHghWOsP/+D9C8bz/aYjEB08e31E1ZgdAE0WiMWFUtZkUVZiQKQqAAoeloho42t4nOlUQpRCHLuSOHlu1LECJIevrsP/kUlmluBHlbNzasIOSKRb7ww0foGR1HCI3mTR1YVbX4SqEphfRcXLuIKOYZGR4KKuyWvsqlvpL0PDKDfXQdfI7+8+dRKsh6nEIIQWVVgvrGavbdtIOObQ0oAo/8cq2ctWbm5zb1MIZu4Ho+J4938dzjbzA2OjEtBuFojFt//uPUbdm+YF8LRdBkxnNcBk8cITnQz4F9e9nU2kplZQWxRAWO5+M6DpphMprJcPTUGXp7e9h33wfp2HczQmio9TpGSjJ26hipyQUqcl8CIQS/+v73cGDblqvyBrBabEhBUErxyGtv8pNXD1FRXUNFUyt6bKoa73w0FMqxyU4m8Yp5ipkU2Uxm7sPmoPAdh+HjRzj3xkEmx0bnCYmm6yQSCTRNsXl7K+2bGtiyvRWhr/8h0zWTVDpLPlcgny9g2x6pdAopFZmJAqeP9JLN5FClmgtVNbXc+MGPUNO5dcHGubnJJKne8+xqa6UmZLB1yxY2b96MaZYchYsce0rt6Y8dP8HIRJJ4eydebRO5UHzl07wVopQi09/NWH/PvHO5FDY3NvCZB36OSKkq9PXIhhSEZDbHFx56FD8cI97aUUqHXWRAzmTqqyiJKuZJDw8wMTaKkrMtgGlKprFvFxk8/BrHX3kJxy5OP1YIQfPmrew6cBupsVH6z5wgm06xfUc7t9xxA9GEgaaXlkCX8PFWipQKTej4vqJ/YAjX8UlOTiKnvlepelI0UsHkaIrXnn8Lx3EDMdA0QpEo7/7FXyVSUzdLDJRSOLksoyeOcfeenbzz7ruIRaPTltByluGkvOD09RUM+4KzjoZjWFfQYlD4mRQ9x99e9rQBoCYR5//6+IeprwwqfF+PbDhBUErx+Jtv8eTR09Rv242a0XdhWZQuds1zyCQncLNpJifGFhUH6fukB3rpP/42fcePTKfZapqGFQ7Tun03bTfsI1pRQXp8DCefIxI2aK6NEjZs8vlJDFPD0DVqamqwTB3Xt+FSXYaVKlVnCnonep5PMpnEcbygg7QPxaJNumTxBJ89SBNOVNQirQq0UAwlLHqPnebI88/iuaUGtJpGU0cnB37uo4Rq6oI5vwq6tGTGRmmOmLRVxjlw440kEolSoZbZn3Xm3wsdt8WQCtL5PANFnyFh4UauTKCSjuL8mwdx7OWvNliGwW999INsb2madxyuFzaUICilmMhk+f0HH6J28w6M+OLThGUjJZb0GB3sI5OcwLOLF+6w0yik5zNx5iSnX32R5MhwKUIyMLvDkSjbb72Dpt37MOOJ6ZqGuvIRhTGczCjF3AR4Np5no+s6VRWVxGLBXTe47mcXWCwUi6QzGQrFQqnOQHAc5IzPZRgmaCa6GcKKVmHFazHj9TgEYukVi5x76VlOvHoQzw0iRTVNo7K+gTs/+Y+IVNcGYuD7ZCfGKQz28Z6b93HX7XdgmhdKs+u6XirnFtSYmFtrQkqJ67pBi/tS9amp47fYMJJScr6vn15pUKhpBiu05hfb5NkTTIyNLPqZLsb7bt7Hx+6+/brNgNxQguBLyeNvvMWzJ85QuWUX2txKSauEpiR2JkU+OU5ydBg5Y2AHKPxCgd4jh+h6/SC5TFAHYIpEdQ2tO3bTtucmwqU7bzDGBbpQCDeHk5vEs7Mo18aiiGfncewCvu/jei6WaSG0oL5iKBzDMCykFsIHPAwsK4xmhpDomOE4TsGl98QJajs2E69vLAmlojg6wuEnf8pQ19lpM1loGi2bt3Lg45/CjMQAhe66DB17mz2bWnn3O99BfV0dpmkSj8eJRCJYVlDGfa4ILIRSCtd1KRaL2LZNLpcLsiIvMpRyhQJHevrpD1cTa2xZPaFfAG9ihJ4zJ1eU9NRSU82/+XsfIR65eEm+a5UNJQhFx+GPvvcjzNpGRGVwoa0pShFCMTrQg51OkctmpqP4gt0Sd3KC4y8+y9CZUzh2MdhRCqbSDZ0d+2+hoq2D6pYZxV+DZ88JmJpi5sZLfL/Sbt91ee3BrzHQdQ5N09h2wx7Myhpcz+X8oTdwioXpi9EwTTr27GPf+z8UJBZJiUxN0GZpvPsd91BVWUkikaC6uppE4kKBmUuJwGJMvW+xWGR8fJxMJoO3SKkzKRUneno57prE2joWdG6uBrr0OffmBWtpOYQtk3/9wIfY3NQwd9d1wYYRBCkl54ZG+JsnnqNq+w2zejauNUpJhJTgFEkND5IaH8PzAqecKi1xZgZ6OfbsUyRHhpAzREPTNDTdIBKL0bp1G9WbtlDdtgnNCgcDXpSqB0ufyZ4uTr/yInXtnWy+4x3zl/4WQXoeL3/9Swx1d0HJAhCIwPdQ+oyitKy4513voXXfzeiWBUrBUB8//667aW5qoqqqisaGBsLh8LTjcDWRUuJ5HsPDw6RSqQUtBl9KDh8/SW+8gfAaWQpKSibOHGNyYnzurkuiaYL79+/j4/fccSm5vibZMIKQt22+8MNHKVoRoi0dqz5Yl0ZwgVlKMT7Yh5PPksuk8VwXJSV+Mc/5N16h78RRsskkcmbuxgzPvGFabNq+E6OqBsuygjl3OknX8WM4dhFN17n3F/4p0YbmJV0QSklS/X28/dMfMT48NMcUFlghi4bOLey8+53Em1rRdB3lOljjw9x3x61s7uigpqaG5uagndlaH1spJRMTE4yPj+M488vn+b7PkZ5+esI1WDUzqmqvFkoxfv40k8Mry23Y3d7Kb37k/VjXYRHWDSMIXUMjfOHhR6nfvgczFr+0OX0lUBJTSVJDA6ST4xTz+aC3Qz7Lsacfo//saTzHmRfYNBMxt2CLEOi6wbt+4ZeJL+MOqZREOS49r75A/5nTOMWg7b0VjrD7rndSvW0nmm4gtGA64w1288A776a1qYmamhpaW1vXXAhmopQin8/T3X0hmWomnufz9OEjyN23lKo0ry6ZgV5Ge7sWPS8Xo7mmmv/r4x+mIjqjdeB1woYQBAW8cPQk3331EM27blyyKX1FkRJdeuQmJyhk0ri5DCPdXQwce4vxvm6Sw0O4pTlrcEQXOKxCYJgmO2+/m813vmvFc2g1IypTCIEVDhOJVxCOJzDCEUzHpj7Zxy033khLSwt1devXgyCTydDf3z99bGaSTKV5YTCJ2bljycK4VHSnyNnDry0oRpeiIhrhP3zqAeoqZvqErg82hCC4nsffPvEsE8JCr7lyzhyhFMouIF2HkBBEPRvLySOLQVakAIxIFM+KkDEjTGZzaKFIYMFoGiGhyI0NMzE2ipdNc+6VFxjt6yWbmsS1i/iOje/7aJqOEQphhSPsuOU2anfuW7Ho6bqOaYXQDAMrHKGlfRNF40IGqea7JM4f447dO2hvb6e6unrdxICSpTA2NsbIyMi8YCEpJcfOdtHXtA1hWqsqCkpKxk6+RTqVmrvrkpiGzr/5+EeuS8fihhCEsXSG//2jx6jYvAuuhDPRczHSE0SLGSoNjep4jHg4hK7rQXXg0g+BPxCpFJ6UpNJpRsaTnOrtQ1XWEd+yAz0adDKS0gffQzo2+VwO03NwMikmJiaQ0iccCqMZBsIwUSUR9H2PxYqQBCdFEYlE0A0TzbSorqnFt0IYVtDBdtppOfUKSmGND3KgwmL3zh1UV1cvK9pwrZBSMjAwQDIZlHifQimF7bg8fPg4FftuW93AJaXIDPQw0nt+7p5Lomsa777xBj71zrvm7rrm2RCC8Pb5Hr758ptUbd65uoNiJkqhey4RN09orJ/OxgaqYjE0PeizSMn8Dh564ZDMPTy+7+NLiW3bPPPiQUTnDlRVHUa8Yv4UYEYmppj6u/RbliIUDSEIabNFQQFFqfCVQhdakHE0vSqwkHwE6HaejoneICFp08bqX1gsFunu7p7nZJRKcbx3kL7a9lW/GfjZNN1HD807h5dCCEFlNMJ//+V/tKGO4ZVgQ3zbt7p6CEVjwcBfA4RSmIUMke5jHIjr3LJ9K/VVlUTCISricZqamujYtIlt27axbds2Nnd20tzURCIexzTNWUt0QeEXk0Q8zofufw/vaqlGHn4Be2x4fiCMEMESoaYFQqfrCF1HGAa6aWKYFhgmtmZQnPFja4ElYZgWwjAQml7q/XiR4yMlbtdJtnV2TK8mbCRCoRB1dfNXFAQQw8Mq5qb9IquFFgoTiSzfMaiUouA4ZIv2Qp6ga5p1HzWO69E9Mooejlx8wK8UzyU00sMulePuPbuojMdpbGhg29at7Nixg82bN1NXW0sikSBkWYQsi1gsRm1tLR0dHezYvp1tW7fS1NhILBabNR/XNC0Qhve8m87cCNmTby37brRaeOlJGjRJY0MDoVBo7u51RwhBdXU10ejsDt1CCDa1tTH89huoRUrwrRShG6VIzeWPKykV6Xxh1UVqo7OugqCAVD5P3vWoqamZu/vyUAppF9GOvcotDZW01tVRVVXF1i1baCgF5yzlLqppGuFwmNraWjo7Oti2dSuh0Ox4fMMw2LdzB7fWxkkdfTOoTnIlUZLxl59mz87tC96FNwpCCKqqquY5OTVNY29LA2KVLz4lBOF4YiV6gALGUumyhXBFUYp8sYimG2S81Tv0Skr8zCTOmy9w687t1FZV0dmxibbW1iXF6i+EKAUdhUIhNnd20lBfP0tQNE1jU1srWy1FcXgA5k4f1gqlsJPj3LZnF+2trUsSufViShCmayzMoLoigVbIzt18WQgBiarqlegBqpRot14W33qx7qOn6DjEYrFVG8hKSrzUBAOPP8T9tx+gvbWFzo6OVXsPIYKeEPX19TQ0NJT6QVzYd/Oe3dSN9+Glk1fM3NSdIps7Ns3KTdio6Lq+4FJobXUVfcePztp2+QhEOIaxwojDyVxu7qZrnsu/Qi6TyXQW3bRQK9LxOSiFsm3GnnuMf/jAR9jU1sam9nYsa/WrAgshqKutpbGhYVpoRCmF+PYb9xIZOo/yF07yWV0UWjZFyDQXvPNuRCorK+efD6Woii3fAXgpJFDbsPxeoEopRidnZ7leD6y7IIwmJ4klKpZ9whbCyWWZePFxPv7B99Ha0kJjY+OsO/hqI0qOsuo582LTNDmwuZ2J155HrSBSbtlkJoMYilWwgK4EpmkSDs9OL9Z1nUQ0ujZWVShSitdYOlP+rTX4NBuadR1BChhOpVDmZXrFS9mEE0de50P33ElrczNtbW1rKgZTaJo27aScSUUiwT07tuBl07O2rzpK0X/65LSP42pgato1d1s8Hpu1bVUQIFZYlCWVu5BWfr2wriPI8zwmC0UKshSws0KklJx69knuaKmjtqaahsbGK3px6LpOS3PzrLmqpmlUxqP0Pf/Eqi+nzUR4HjWVldO1EK8WFhLrYnH5Zc8ujSBRUYW+TD+CUoqi62AvkINxLXPlrpo5KAVF22Esb1+e/0Ap7EyKrWHBrh3baW5qIrqCYJTLQQhBJBKhqXH2XDUejRLKTZIfH1uzO42SPuFwCMtam+pSa8FC1ozv++SKxWWb9ktBajqh0PIrILmej+N6l3WzutpYN0EARbZQwFeKy1mgU1KS7znLOw/sJ5FILOywugIIIaisrCQej09v03WdD7zvffS++sL8KMZVQgBV6/SdVxOpFEOjyy9oshQUUFE1f2XjUri+jzcjs/R6YN0EQZXq7Akg6P+zMoqTE1RnxqmurqZpjZ2Il0IIMcvBKISgrq4Od3RwzYKVhGGQy+dXzQJxHIdisbhguvKaIgQtO3bN3bpqiJU4FpUimclexui8+lg3QZhCwYqnDEpKkscP8447bqNhA4TsBo6x+KyKvbqmsaujfZGcxlVA0+jv6yN3GWvmvu8zOTnJ//jc5/joRz/KfffdxwMf+xif//znGR0bm1VdebWYmwo9lpzErF67KMt4ZdWKzkHv6Piqf/eNzLoJgihdLMtV7ZlI36OzOkFNdTWVFauzdHm56LpOTW3tLCshGrKQk2OoNbASfCVIpdM4pT4Sy8VxHH74wx/y0Qce4LOf/SxPPvUUB195hccff5zf+d3f5d3vfjd//Cd/QrF4oYHN5aJK3Z5mMpgrsnauV/A0ncgKKikPT06u2ve+Glg3QQAIWxaGrq+4Br5MJTHtArW1tfOWsdaToP3bhe/U1trKuaceRfmrLwgIkKUaC8tBKYXv+zz00EP8+j/7Z7z44ovYtj3dq0KWUrxPnjzJb//2b/OHf/iH2CtofrIYU4KglKJQKPD4sy9cli/pkgiNRFX13K2XJFh6nLv12mVlV+IqIYRYceUgUJx88ifs2b2byoqN1XrLMILmJ5S+Y0VFJa899wy+s3oX1AUEibZOpJTz7roXQ0rJU08/zb/4l/9y0QrJlC5Yx3H4/Oc/z5NPPjl394rwPI98Pg+l1z9y9Bjtt95ZSvFeI4TA05a39AgwMD5R6qx1fbCGZ+DSmIZOVTS6gpkdKKmo0hWbNrVvKOuAUgzClHMzcCzWAmrNQplDLZvw5Xwz/GJ4nscXvvAFJpdoEucLBR566KFVcTam0+lZtQ57x8apWcM+DVOY5vJD2KVSeGth2W1Q1vYMXALTMIhbxvIFQSnc5Bi7t20jEoks+ySvNaIkClPouo4i6K+w6giBb4YYGBmdV43oYvi+z9tvL70pqlKKs2fPLtqEZal4nsfYWBCXoZQiXyjw5pkutFWulrQQagWCoxT4axhYttFY/hFaJYQQGLqOJiX+EgflFEopBk4eY/v2bYSugoAcIQQoiecu/YJdKgKoaGjii3/3VZJLvNtPUSgEpdyXSr5weaG8SinGx8enrQwpJc8//wJNe/ZfxtRx6RgrshAkjlcWhCuCYRgYpWaqy8Vwi1RWVMzLIdioNDasUTi1EMQqq2i+/Z10ne9e8h0fIYjFlp47IIQgepnh0Z7nMTExMX2+c/k8b/f0seWOe9CugCBE4/Fl+ylUSciuF5Z3dFYZ0zQJGdqyD7gQ0FBZiWmaK851X0tUyYM/k61bt2KuIHx2qbTs3c/h4yeWPMfXNY39N920ZJHSNI33ve99Kw6R9jyPvr6+6SmHlJKjx09QsesmhLb2YgCghL7s6klSSpwlHtNrgaWNhjVCAGHTwtKWH5pkiaCf4VIH9EIopSgWi7z44ov81m/9Fh/4wAd4//vfz7/4F/+Cl156acXLbAsJ3MFXX12TDkVTmJEoJ8ZSHDt+fMH3n4thGHzyk5+cVw5uIXRd5773vpd//hu/saLjrZQimUzOCp7KZLM89eobtO2/9ZLvv1r4BGOmzOIs/+yuMlUVCaxLj9/5eJen2r7vc+7cOT7zmc/wK7/yKzz88MMcO3aM48eP8+Mf/5hf+ZVf4Xd+53fo7e2d+9RLIpWa1RBWKUVVdc2aOs6EptF6+z387Ve/Nu20uxiapvGpT32K/+9zn6O+vn5eyLcopSh3dnby7//dv+Mb3/jGiioyKaVIpVKMjo5Ofybf93nu4Ku0veO+oMfEFUNQU728WASpFO6VqGmxQdA/+9nPfnbuxitJMpvjfDKNb13oPnRpFNrYIDs62qmbERW4VJRSnD9/nl/6pV/itddemxWQo2YE5Rw/fpxoNMrtt98+74K5GI5tz3LwOY5DPlFHuLl9TZfWNCtE6+atDB47zPatW9F1fdFjI0rVnW688UYOHDjAwMAA0WiUeDxOY2Mjmzdv5mMf+xh/88Uv8qEPfYhoNLps60CVgo4GBgZmTRXOdnVxNO/TvPfAmh6PuQjA9G0m5zSMuRimrnP7zm1Ur0Wthg3IlTsbi1ARjzGRTi8z+EPgiwtr/cslk8nwu7/7u3R3X9wJ53keX/rSlzh+/PjcXRdFzmjQopQik81RddNta+5JF5pGNhznzb5hXnzppSUtEVqWxfvuv5+HH3qIp596iicef5ynnnySxx97jP/5+c/T3Nw83ZtiOUyJQU9Pz/RyqJSSEydP8rc/fpyGfbegrYf/R1+elTbVtet6YZ0FQRCzQhgrSW/SzXmOu6WglOLw4cO88cYbFxWDKTKZDH/xF38xd/NF8T1vlsmec72160g1B2FaNNxzP9/72QscPXZ8ybEJoVCImpoaOjo6aGxsXNH0YApV8s309fXNaICrGB4e4dkT53jnr/zLoDHPOuAu574DwPICvq52rswoXQQhIGoZWHqpieIycF13xVl4Dz744HTo7KWQUvL222/P3XxRZi6tKWAglUEu/2OuGCU02u//CJ/5L7/La2+8sWRREKUOVSsVAkoXfjab5fz589NOWSklyXSGrz/7Em3v/RCaaS5jeri6OMs8ESsYXlc16yoIALqmUxeyll0vwKyuwV9m/P4Ul5oqzGU5UxPbtsmXAn6kUkxOpugv+ste7roshECPxPjwf/o9vv/iazz6xJOlprNL/84rYSoKcebyouf7nO3u5ZHj59j+vp/HDK9vZKlpLG/6o5TCLQcmXTks0ySuwXJX6LOuxPP8ZUfbUTKPlzooDMPg/vvvn7t5QZRS5GcUK/E9j+899BDhts6SS+vKoocj1N/9Xr79wms8+P0f0NUV3LVXUximnLCO43Du3DmGh4fxSlMmx3UZmZjkjaxH7Y23EYpdqCa1LgiBscy8FwXL9G9d3ay/IFgmMcugmF9G1x4hiLW009PXh71Ec3gmv/mbv7mkCEchBJ2dnfzqr/7q3F0LokpLbFN25sjYGNambZjR+BJNZBU8t+SUnPsztW85aIbJjT//SY6oCP/rr77I8y+8yODg4IrrJ8xESkmhUKCvr48zZ84EYlPqbJ3OZHnlbA9v+GGqtu9ec4fqUtHWqKHwtcK6LzsKIUim0hwbmSSUWHoaszBMRk8eZXt767LqKIpSVaOnn36a0dHRubtnUVNTw3/7b/+Nffv2XfL1p6yDkdFRVMnH8fbps6itezAisxuczkMpfMfGzmaw05MUJsbJjg2TGR4iPTJIdmwEJ5XEyWbwHBtNCDTdWKLIBKsPlQ1NJLbfwLEzXRx9/VW8YgHXdWdFHi7Ff+D7Pp7nkcvl6O3tZXx8fNrq8H2f5OQkR8+e50RR4bdvQ4/EYJnhwmuJJiXJocHSvX8JCNi/pZPmmuXFL1ytCHW5t4lVoGdomL995W2iTe1LHuQAxZ6z7I/Ae+9917yuwhfD931eeOEFPvOZzzAxMTFrtUKUoh/r6+v5whe+wK233rqk0myu63K+u3u6stDxk6d45tgpNn/g4/PvjqXAJc8uUOjv4cTTP2Ww5zye4+C7DtJ18T0X3/ORUiKEwCi1kNctCzMcoaFtE/sf+PuE65vQlxESraSPl89hujanH3uIzvpa3nPvvUQjYSzLwjCM6UYqM8Uhn8/j+8HnmRIF3/fxfR/HdekfGORHP32M3R/6e8jKGoxI7IqtrCwHYRc4e+i1JVev0oTg1z74Xg5s2zJ31zXJhhCEVDbH/37iBcLNm5YVqKJ8j+bxXu7YsYXOjo5l1UVwXZfz58/z4IMPcuLECfr7+9E0jdraWvbv389HP/pRduzYsaRcCaUUY+PjDA8Po5QinU7zncefpum+ny+1ub/wOOnYpPu7OffSc3S/+SqZ5AS+586KbFwKmq5jhsK0797LDR/8KHU79iwrQUgpiXQc8iOD5Af7kKkJKkyN9qYmaqsqicdiGIYe+BsUgMKXQbGUQrFAMpUmlc0xkc1TNEJUdm4l0tAMofAVy01YEa7NuTdfWXIVbE0IfvUD7+WW7WVBuGI4nsdXX3iNsXDlMgeTQo0NcVdViK2dHfP6IiwFVaoIZNs2ohSua1nWkqPylFJkczl6enqQpVWPhx/5Kf6um4m1bJq2eJSU+HaRQ1/7a0688iJOMXCGTvsHVogQgnA8zid/9w+wmlqXefwuoHwP1y4ibQfp2oSkh+Y6yFwG3/eJRCJo0TiYFjlf4hsmmhXCsELoprUsy25dWaYgAPzy+97Nnbu2z918TbIhBEEqxaOHjnDE1hHLTQCSkthoL/d0NNHW2jqvz+JaMuU36Ovvx3EcpJQcPnKUI65B/a59F6YKSlGcHOeFv/4Tzr/9Jrqm0dzczL59+/jZz3625JiIi1FRW8eHf/v/JdbUOndXmZmUBeGiLO02uMZoQlCfiFMhln6SptE08rUtHB0YoX9ggHT6ynTslVIyOTlJdyk01/d9uvv6eGuyQP3uC2KglCI/NsIPfvffMHDiKHv27OEv//Iv+f3f/33eeOONFS2bLkQ2OcHAsbeXvQpR5tJcifG0UdgQggAQtUy6e7rnbl4SSjfoD1dzun+I3v7+WZGCq42aEaM/ODQ07WgbGBnliK3RcPPsYqHKc3nlG3+Dnc/ziU/8Pf7kj/+YXbt28Ud/9EezMgAvFykl2f4uhO9i5JNYEz1YEz2YEz0Y6SGEZyOkFwSArdJ7Xi+kV7ERzkZnwwhCRTiEY9toS10OmokQEI3RZSY4OzBE/+Agg0NDuK67aidSljIgR8fG6O7pIZPNBl52KTnX188bEznMls7ZYblKkR7oo+uNV6ivq+WXf/mXicVi/PEf/zFvvfXWinIxLkY4O0bnwGu09L9Gw/Db1A2+RU3/m1R1vUTl0UeJn3ya6PlXsSZ60OwcXEe1Ai8Hx/OvGw3dMIIQC4VoSUSXXPFnPgKVqOZsqJqusUnGxsc5f/48mUwGWUptXi5TDj/XdRkcGqKrq4uR4eFAaEq+j5PdvZwxqwhv3jVveVEphZccRfo+733ve6mpqWF8fJxnnnlmVaMFmYqvCOvodoaQUERMk1jIoiISoTIaocoyqPDzRCbOEzt/kPipn2GNnC6JwvKPzdWKv+KvuuInXlVsGEEIhyyqdIWxxPXhxZCROKf1GEfH0ownk/T09tLX17ds34KUklQqRX9/P6fPnGFiYgLXCzoBK6XI5fO8MThOd0ULoqp28TX30vThoYceYmRkhFQqtSZTGsPQ6WhvXtChqgkN0zSJhiNUJSqJhcKYbo5Y/2FiZ19Ay6fmPuWaZSVH/XrqAL0hVhkoJcY8+sJLHHZNrIrqy17GEkpijA+xWRXY1NqKoQcXRSKRoKJUnFUrvYcQYtoaKBaLTE5OkslmpxN0Zh4iXyqGcwXeLoBIVKEu9jmVojAxxnf/02/hOjatra1kMpkl90JYKkII3nPvXXzi5+8DJXHsIn6peO3Uz0wUwTJorljAdl18M0yu8078RP1lH/eNjufY9Bxa3irDHbu28en3vgtjGXEeVysbRhCklBw6foKnBpKoyrrVGZhKQSFHtVcgkZ9kc0szmggSlsxSRJ6h6yAESkpcz5tOzFGlpJ2pqcHg8AjFeA0pYZBUOuoSa+8ChSVdKpPdPPfgt3jxpVeRpdTb1Tzkuq5z56038tv/+pewLLPU0FThK3BdH9su4rge6WyeTDaYPk2hUEF2pm3jGWHyrTfi1lyInbgWWZEg7NzGp+8rC8IVRSlF/8gI33r9CLKubXUHpZLg+/S89iLFoQH2bN1MR2MdVRUVVCQSCDGViyhQBFZCKp1hMpujKHQGcw5GawdaNH5xiwAAha4kNW6KTfYQDfEQgwND/M5//7OSI3LpA/FiaJpGOGRx52038plf+wfEYpFpi2cugUWgSOUKDI2MzsrIBHA9l0w+h48gt/ku3KqWDZV/sJqsRBBu3b6FX7r/3ZhGWRCuKLlCgS8//QL5ujbUGg5Ip5Bn4OQx4kLSWFuLrgX3VTMcRugGOcdjNJWmsrEZI16xZHESKGJulk5vnLaQR2U0hKYF05G3jnfx9e8+wqG3jyPlwqb8pZhKPhJCsHVzO5964H7uufVGQqGlh2x7vmRgZIzRsdltzh23JApmmNyOd+OFE6xHyvZasxJB2NbSyGce+BDWEsLYr3Y2lCDYrssPnn+ZvmgdcoUhuEtCBRnugln/zN+/RCEAsLwiDcVRths5GqrjzM2yVUphOy7PvnyYV988ysnT5xkcHl3yakMsGqFzUysd7c3s2bWFd915M+GwtahVcDGkUoxOpBkoxVFMUXRscoU8XqyO7NZ3IM1LJ3VdbaxEELY2N/KvH/gQllkWhCuK70seP/gqXUacrFj6XW89ESiq7SQdxUHaa2JErcUrHQd+CRWkD+eLDI0l6e4bpqurm8lsEcfxyGWzoAmqKxJUVcZobWmmtamO5oYaKipihEwT3dDRlpCqfDGkUgyOTDA0MjJtKSilyBXyFF2XfMct2LVblmwdXS2sRBDa6mr495/8KKFlJM9drWwoQZBScujESR45P4RV17LhB6NQisbiCNvUOM01iempx1KZEgipZBD4UrJMIPjqQgg0oSE0sSJL4FJIpTjfN0xyMjktCp7vkcpkcCsayW57J2otLbV1YCWCUBmL8n//k79P2Lr2BWHtJuorQAhBdSKBIf2VRSxeQQSK+sII2/wRWmsSGMsUA0rfV9c1TMPAMg0syyRU+rFME9Mw0HVtTcSAUg5JW1Md1oxmKYZuoOs6enYM3NXJs9hICAKRXQ5KqeumjNryjswVoKoiQXs8ir+BC1sKFBVulh1ylNb6qqu6LJdp6EQjswusWKaJQGFkLl5R6mpE0zWikQs1KpaCuo4KrW4oQRBCEI1EiOBjiI2ryKZ02ZQ+R2NNxZrdva8UQghM05jlj9BL0wSxDLP6qmKZp0wB/rV6LOawoQSB0t2pIhxC26CJNwJFVW6E5soolrHhDt+KWPhbCPzQ+jRTWUsCAbSW5ZCVpQrS1wMLj4V1RAhBR2szEeUHkYYbDCF96mWWqti1sSSnVBCOPdO3LKUPQqDCiVmPvRYQiGWV6aM0ZfBWKaBso7O8I3OFaKypYXJiduDMRqHWz1Kl2Wj6hjx0y8aXknyxOGub6/sITUcZFyoyXzOIoKjOclBK4SyhT+a1wPKOzBXCNAw2VVegXWbm41oQSQ0SC4eWOw3dkCgFo8k0hfyF1QSlFJ7n4oeW2kvi6kLBsjuJKqXwNugUdrXZsIJQHTJQ7vKbsKwpSmH5RWLL9FJvRJRSjCbTDA4OImcIr1MqKuPHa9c0fHy9UIA7Hamq0FAYSHQkWulvMUcylALHLQvCuqHrOnXxGH4hN3fXuhLCQ/NsTH15d5iNhFJBPsNYKsvg0DByxrRMKYXjOijdwK1ouiYTnIRSmNKlXuTYoqfYaSTZbU5yg5Vml5Vmh5limz7JVj3JFj1Ju5aiWmUZHx0gnZ7ALgb9KTbidHY12FCRijMZHBvnyy8fQm9Y5czHy6DCy7EtfYrtLbVLLtO+EpRSKBWkJysV/D3FlHdcBH/MvpNN/S49PnidUhq3CvwFBcdjYiJJLpebZRkopUq5DAVkVQvpzXehllsBe4OjuUWik71Ex84S0SBcCv6aDlQSwXFwPRfbcXBcF1/6SBUc96CRjUVzSyedW3YRT1QSDkcxLQshtGWtXGxUNqwg5ItFvvr8K0zEatGNjREyWuHn2Jk5x5am1Q1GCs5A0BPR8xTpvM1Ecmw6OEvNSsa6IAKLjb+pM6pKfRaVlEgVhIbLBebCSilsxyFXLOCGE+R2vBtphqfe8ZpAKElTboD6dC+6EIglRh4Gx1BOZ6g6rk0qm0EphRWOEA5H2bx1Nzt33YwViqBpV7cwbFhBcD2Pbz1/kF49jjGj+9F6ElcOW8aOsKu9Dn0VLASlgiY1+UKRVCZHJpMNTPbSKQlCm02YDtISoFSp0rM/LRIrHYBKKTzfp2gXsT0XP5Qgt/lO/OjlV6zaSJhIWjO9VGcHlywEF0Oh8Dwfx7HJ2QVs28awQjQ3b2Ln7ptpbN6EaV6dKzQbVBAUrufxxJtvc6IIXnid24iXEEqyZegN9rbVEQ2t3JxWSuH6ku7+YXK5THD3KdU+FEIjUVlDQ3Mnp8+e54477569bq4UUvo4dpH+vrP0dp8kl8tiGgYhw8KYUcRjplAERsiFqUTRtim6dmB9CA2noon8pltQVuTasgxQtOaHqE/3IFZ51UqhoGR5FewiqWwaBdTUNHDvfR8jnqha06nlWrChBEFKSSGf5eyZo4wO9zOYdzlUCNO0fc8q6Prq0JYfoM0ZoqOpbtknWypFoegyOj5BOpvFdT00Xaeispa6xnYqKmsJR+MYpoVS8PLLL3L33e9Y8H2UUigl8TyXH37vG3T3DVJ34HYMr0AoN4buu9NedAhqKCqmsisVUgiUbuFUNuNWteLH61C6ec2JQZWXpXPiJMIPIg2FCIQ3HDIJh0PTx1apIC3ddlwc11t2uTtVstzydoFMLksoHGXnDQfYvedWLCu0YivuSrMhBEEphevY9Ped49Drz2GZBqbQKCidp5M6rTfsB31j+BFM6bFt8iQNlkdTXc2SfAlKKXwpGUtmGBwexpcSTWiEIjG2776F6tom9Dnt3aWUHHz5Jfbuu5FEYvGIQSl9fvrTn/DSK6/R8oFPIqpqEb6HcPJodhajmEYrZtC8YAlXGiZetAY/WokMVaDM0DW5mgCgKcnmTBeVuZHgb00jEYtQU5WYl7/BlMiW6nK4rku+YJPJ5vHlBR/CpZgShslsioJt07ZpG/e88+cIR2Lz3m8jsu6CoJQik5nkpecfZWigm+a6xun5uacETyV1Kjp3YkUTG2ZeG/MKdIy9TXXEorWxtlSsJNgXmObT/6CUYnwyw1gySb4QtIo3YpWEI1Xs33/HrNTjmUwJwo6du6ipqVl0MEkpefXVV/nRT35E07s+iNG2de5DrlvC0mbnxDF0t4gQgqb6ahLx6KLHciGkDByu+aJNMplZcpKTUopsPkcyM0l9fSvvft/HicUqlvXe68G63hqUkgwOdPPIQ19lbKSf1obmWc46XShuqotSyOU2zJQBIGeEOde4nz4vxInz/YxNpskVHDL5IhOTaQbHkpzrHeD4uR4OHTtFT/8gBReceAPjzTdxuuFmzgxOXtI8F5ogn8vO3TyPaDSKAOR1El67VDTfQ3eDsOyqiviyxQBA0wSRcIiaygQd7Y3UVldgGsYlzlzgv4nHYtRW1TA62s/Pnvg++VywOrGRWTdBkNKnu+skzzz5fVy3SF1lzbyDLIBamUXYG61Qh6AoTPprdnC2di/nnAhdw0lO9wxwvn+YgZExJjJ5HC2M27iD4dabOd9yK731e0hG6/GETtZ2p/s+LEYiUUEsvvh0gdLAC4UCj7Z/ide77tA0KBV8qaqML1sMZiKEwDQMaqsraG+tp7am8pLTRYEgGopQW1nNyHAfzz/zIxxndt7IRmNdBEFKycT4CAdfehzfc2moqV+05r2GxMtnNmBeg8ATOjkzTle8g+P1++lvu4PRjjsY7byL/o67OVm/n/OxdtLhGmwjjC/0UlCsANPEu0hvRyEETU3N6Iscl5lomlbyw2ywUO/1Ruigm4QsA2OVktGmhKGmKkF7S8MlhUYIQTQcpSKWYGiwh7OnjiwYC7JRWJ2jtAyUUmTSkzz+6LexiwXqaxvQL3JAQRARPp5dnJ6XbzSU0IK7vhYiqUWZFGEKWgip6ch5kfElIgk8f/E7uhCC2poaotHIRQfcbDbm8VkvfE3H1axAVJd8DJeGEIJwyKKhtoq2lvoFnZRTCCGojFdg6QaH3niWifGNW4lqHQRB8tbhF7GLOWorazAWOYgAmqZTXVlBcyKMzGeuqfHuhiI4ziW6U5eKeSwVw7URF3u96wxXCWzNXNOyGoEFEKKjtZGaqsWdhpqmUV1ZhePYvP7q03jexiy4csUFYaD/POfOHCEeTRC2Fh7sQghi0SitLY3UVcfZVhdjaHh4VaLMNgp6JIZ7kSnDchDX6LLh5aKEwDajeFcgGUnXNWqrE7S3NhFZJBvW0A1i4Qjjo4OkUhNzd28IruhIKhZyvHbwKUzdpGqRtXXTNGmoq6GxvpqwGcSFN0c0TE3hzinkcdUiBERijCeTS27UcjGmohOV61w31YGXhiAZrsV2vCtStDeYRhi0NNZQX1czL6BMCEEiVoHr2rx+8Cn8i0wZ14srJghKKYaGekmnk8SjsVJT0gsIoRGLRmlurCURi6CXPLgCCOtQGzbxS8E11wKaafHqG4cuKQjuEmr5uVOrC5d4resNBWS0ELloLZl8EAOy1gjA0DWqK6I01ddgzWnuYug6iWicocEekhNjV+QzLYcrKAiSrjNH0TWNaGh22W8hBDXVlTTVVxMyjXn+H03AzU0JTOlfM44zpemMpSbJ5S9e82Fs7OKDRilFOpUKHnONpSuvDoLhSAPj6fwVLaUuhCARj9DUUD3LUhBCELJCSOnT230KtcFWz66IICilSE6M0tV1gnh09jKNrus01tdSXRm76LpuR0zhZJLXjtNMCJo2byOZnJy7ZxajY6MXjVdQSnH02FGklIhIbNW96Vc7Cpg0EiSjjYxPXvnAoEg4RHtLPeYMS8HUgxoMgwPnp3MmNgpXSBAkvd2nsUyLyIxQ3WBprZp49NI1Ci1NINz8xiurdhl47TvIFS7uF1FKkcstbEUopZiYmOD06dMI3SDc1FoyWsvMRAHnIy0MEyOTu/JBbiHLpLb6wgqEpmnEIlGSyTGUunJWy1K4IoLgeR5DQ70lZSz5BkpiUBFbWiaYoQkqLJ1CLjN311WLNEzOjYxi2/bcXVAK4BodHWVkZGRBX0Mul+PhHz2MVNBw4G60ytq5DylTQgmN85FWevI6+aJzRSeegTMxQqi0qiaEIBaJYhfzuK7Dmq6LLpMrIgj5XIbx0UEsM1QyaQWRcITKxNKDbjQBO+sryE4mN9QBvCyERnemyBNPP8Xo6AiO4+B5XpBpl89z+uxZjg6N87MXXuDs2bOkUilc18VxHCYmJnj5lYP09A9QuWMvoR37yj6Ei6CAohbiVLyTMxlB3vZn1ZNcazRNUF97Idx5yq8wMtS/oVaG1jzbUSlFX88ZHn/0W7S3dKApia7rtLU0YM0o5rEUCj585VSWRNtW9GUE7GxonCLpV59BJUeorKgkGo1SLBaxHQfV2I61cz/FM0eYOPwKlRUJ4vFEMI3I53HNELEbDmA2tsE11qV5LbGQtDhjdPjj1FfFMHTtiky0fF/SNzhK0Q6qYg2MDrF1+z7ufMcHlxSifiVYc0GQUnL07YO8+eoztDQ0I4BEPEZjXdWSrYMpPKl4qCtPpqqVcGzhOIarEumjJ0dIdp3GK+YxwlGqd92IH6sMLColYWKEyZNH0CyLiupqtOZOZLjkRFzmcSwTFE9JJPuozw+zq7mSeDR8Uaf2cggsD8FCLzcyNslkKoNUirHJcYxQhI998tcxNkjd0DUXBN/3eObJHzA+OkBNohIhBC3NTURDy1dEqeDQuMchJ0aspmHu7qubUgUkVLACIeZe6EqBkqXdwbSrLASXRyE5xtjZE9RaijubY2xtnlr2vrzjWnR8JibTNNZVTcfTTJHLF+kfGkNKSTI9iTAsPvapjSMIa+5DUFIyMT48XefANC3C5sreVhPQHBXkJ0avneXHKYRAaDpC14MainMHpRCg6QhNDyoczd1fZtmEwhE8BUN5yU+7szx9Yoj+sfRlxytYpo7juEyksvOWOS3zgmNd07QNM1WYYmVX5jKw7SKFQh6rNOcPhywuZ+k1YWqY0sPbcDUSylxtGKaJEEGGTN5TvDHu8KPT45zuG8V2vBW7+jQBVZVxUqk0mfzsFSRdL5VpF4GltxrVu1eTNf806XRyVjSW7XuXdXOzdKgK6eRLtfHLlFkpvtBnxW0oBaNFxeO9eQ6dH6ZQsFcsCvFYBEM3SKezc1YzBKYZWAVCCCKR5VdxWkvWXBAK+aAE2JSZNJGcuKysRUMIttXGsXPZ0mJSmTIrQwhBRcVs57QAMq7i6f4ib3aP4TiXziVZCEMTVFZWUCjaFO0ZUxAx/Q9KKSoSVbNEab1Zc0GgNFfSNB1PSkLm7LVyFZS2XzJCwA3VBoVsGnE5c48y1z1CE8QTFXM3A+ApeHnE5lTfKLa7eOj4xUjEgjTosYnJ+WO81M+hrqH1+rIQTCuE7/t4novrOsRis3MZ7Bk18JeCACxNUhcxcQu5aydIqcw6IJAX8e7nvcBS6BtNL7na8kx0TRGLxSkWi3h+aZzOGK4KRUVV3fUlCNOOm1Kz0Uj4Qs9AqRRdff1zn7IkmqI6FLPzlbdMmSWiAKkF43MhBJB2FYcHM6SyxWWPNSEE0XBgEWezFyqHe75fcipqVNbUL/r+68GaC0JVZanDkQhMpLBlBbE2SpHO5jAMfVlORgUUbJfB8930Dw6hlS2EMpeBsYS4g5Npjzd7J1bkTwjGtwiWMpUCgm7cKDCt8IXO0xuENf80pmURS1RStG2EYWLqFw5+Kpujoa5hXrGUi+G4Hi+/eZzzJ0/jODZOefmxzGWwYAHcOfgK3hp36BpJLzv/YUpsLoiJAAS+7xOJJRALhTOuI2suCJqm0dG5E7/UVnvqAEilyOTyJMLmki0EpRR9Q6O89MpbJAf6sceGKS6SGlymzFIwTOuSFgJAwVe83Jcmlckva7nbMGZbIL4MWr0lMyn23njnvDJr682afxohNJqa2rHtYtCFqHQspZR4vr9kMQBwPJ8TZ3tIZfIA+GMjOHax7Fgss2LMkLWk3pZSQX9B8vZACs9fuoNR04JApKkL3/V8hKaz96Y7aWrp2HAFctf80wghqK1rpqa2YVaap+9LxDKKQygFXb39nOsZJRSOEI/HMfIZnEJ+Q6WPlrm6kGhLvykpODJeZCSZXpaVAGCVaiHkCkXiiSq2bL9xOtXd87wF612sB2suCABWKMTem+5E1/RpdfWVWlbPAc/3Odc3yvBocvpkSNfBTY6iNsjBLHMVIgStLS1zty6IAiZsxbGhNLnCwkVtFkPXBJ6vmJhI8fk/+Wvuffd7+PSnP81//s//mb/5m7/hxIkT+KtUlv9yuCKCIIRGR+cO9t50F5PZHFIpPM9blrnUNzLOyTO9Qe1AIVBKEQ6FcCaT6BuwnHWZq4d4ZfXcTRfl9XGPoYnMkuJnZKknRDgSZWg0yZnuQVKZAhUVFZw+fZovfelL/Jf/8l+499572b9/P3/6p39KOp1eN3FY+hV5mQihUV1Tz+DIML4vS6HMlz6gSkGuYPP28TOcO9fD8NAQyYkJhoeHOXbkCEPdXaQnNm5rrDIbHCEoiOVlHPoKTowXSGUDX9bFcFwX3/fp7h3gtbdO8dxLhzBNi0g4TEtzM3ffdRe33nor27dvJxaL8Xu/93s88MADPP/888uelqwGV1AQBI2NbRhWmJ7BYZSC4iK1BGeilKSrr5/HnnqZ0dExMpkMY2NjZDMZfN9Hy6VJDg+VHYtlVowv9GV5+5WCoymf4wNJira76G1NKUU2b9PdP8Y3f/AkTz5zkHQmSIkWpZoXUkp0TaOmupqG+np27NjBm2++yUMPPXRtCwKAFQpz2x33M5qcpKu/H9tZ/GBSOqAjyRRPPf8G4xOT+FLOO0jJwUHyyfEgjLlMmRWg68sTBICM7fLsuVEOHzuL4/oL3o9yBZeBoTF+9sLrDA2P4nk+sjSGlVIYhoEVCjEyOkp/fz/HT5zgxIkTCCHYvn37vLF+JVjziklzUUoxmRzjzKm3OHv6bfbu2EEiElrQ05vNF/jOT57k4Ueex3FccrkcmqYRjUYJhUKEw2Fcz6Pzrnex7Z33kWhqKxcOKbNshO/RfeiVJXXJmqLo++THR5DHXueffOrD7NraTjwanp4G267P+Z5BHnnyZV585U10XUcqRTabxTRNHMfhfFcXlVVVdHR0sHnzZtrb29m1axcf+tCHqKmZ3wruSnDFBYGSKPi+x+sHn2ao/wz7dmzDmFM5xpeSlw4d4//5gz9jeHgU13WnHYq6rqPrOpZlUVtbR217O6H6Zuoam/A0A6kUCoWmGeiGjm4Y6IaBZphYoTCaFcKwLIxQGDMUwij9bVohdNMELpQwE0IgtJl/B+vKU3/PJdg0f3uZ9SBIpV10gE8Nfd+l+81XcJ2g+Kmaep5SgCpFHCuk9PFcF+m6OK7LxOgIAy88RW1NNR++/x3s2tFJbU01KEXRdvnm9x7hmRdewXU9mpubp39aW1vZvXs3W7ZsobGxcfoGNzWudT0Id14P1kUQKIlCanKcpx57kKbaaprra6drJvhSMjg2SWXDZlIZh6GhIQYGBnCcoElLRWUlUkoqKypobm7Gl5LxiQmklBi6TiabxXEcXNcN1nl9H9/z8TwPzw9+BxmYHo7n4ns+vpT4pf2+UvgKJCCFhhQCSfBbCS340YNyZ5puoOk6mjHjt6aDpk2nfQe/NYQWJHm5rkM0GqeqthZN1xeVDyl9PLs4a0QLXQchMLQg4Hv+2VsgKkMFGjXlFNd0HV3TEJqGHgohtOBvXdfRTQvNMNB1HaXpKCHQhMCRCoW4oIFCAMG+QBxZQAgvfJKZn3Pqgpv+S834XTKnhQC9VGdSSYlyHaSU+HYR3/Owi0XymTR2sYjyXGSpCI/rSaTv4fse0vPxPQ8pfZRfMtelRPk+SvpIX+K7Dp5dxE0nqUgksAydWCRoD+C7Dp7jkM1kyGcyOK4DKvCHWaaBaZqELItEIkEsGqGmpoYb9+2ls6Odmpo6lNCIRmNUVlbOClCa+bNeF/5irJsgUBKFsdEBnnnqh9RWVtBQU4XtuEykczS1b2P3nlvRV6nXwNTXXOz31P8v9SOVQkmJlJJsNks2lyOTTpNKp0mlUqRL/3ddD6Ukfmkg+r4//X9d16moqKC6uprKyiqMOQ1BS5+m9Gv2BX5h+Cw2kOacTjFTOIILUUqJVBLf87EdG9t2sG0b23GwHRun9H/HdvBLnzcSjVJfXw+AphuEK6rQTYO62jo6NneAZuCJYJBLpZAyuKMGx0th+xLbl3i+h+/YePl80GPCdXALBexcFtu2yUwmyadT6JqGJjR0XcMKWYStEKFwiLAVIhyyCFkhTMvEMk0i4XBQq1DTKRQL5PN5ctksmUyGTDaL9H1isdj0T3zq//E4sViMRDxOKBzGKN2Z516oM89/cEiDfTMvcEpRiXOfe7WxroIwRTo1wdkzR0lNjpGoqKaldTMNja2rJgZl1p+FhtnMbXMvorl/l7kybAhBCD7ClOkYDIbygChT5sqzIQShTJkyG4Mrv65RpkyZDcv/H5uAzdErVA1DAAAAAElFTkSuQmCC;" parent="1" vertex="1">
                    <mxGeometry x="253" y="191.3" width="78.46" height="67" as="geometry"/>
                </mxCell>
                <mxCell id="20" value="jaeger" style="text;html=1;align=center;verticalAlign=middle;whiteSpace=wrap;rounded=0;" parent="1" vertex="1">
                    <mxGeometry x="256.96000000000004" y="253" width="70.54" height="33" as="geometry"/>
                </mxCell>
                <mxCell id="21" value="" style="shape=image;verticalLabelPosition=bottom;labelBackgroundColor=default;verticalAlign=top;aspect=fixed;imageAspect=0;image=data:image/png,iVBORw0KGgoAAAANSUhEUgAAAF0AAAB1CAYAAAAsju2YAAAAAXNSR0IArs4c6QAAAARnQU1BAACxjwv8YQUAAAAJcEhZcwAAEnQAABJ0Ad5mH3gAABS7SURBVHhe7Z13fFRVvsC/905PmSSTXkgkBAihSDf68Imu7blrr6gIrquC+p66uhZ0d10VXQvrooJbLFhABBYWG+qi0jFSBAwdDOkF0snUO/e8PyYEcmdCEkiYEOf7+eQPzu/MneQ7l3N+97SRhBCCEKcUWVsQovsJSQ8C0ok2Ly6Xh8LCMgqLKqk6WIfd7uIEL9WjMZoMqF4VqzWclGQbmZlpJCbEIEmStmqH6ZR0j0ehsqqGPXtLqKxqIMoaSWysDas1EpPJqK3ea1BVL3a7k9q6BqqqDoLwkp6eQL++KdhsVmS5cx9Ah6U7HC7WrN2GR5FJS0shJiYKg0GvrdbrEUJgtzupqamjpKSU5KQozhqb06k7v13pQkBlZTUfLviGc84eTUZGqrbKzxYhBJs378DhqOPSS3KJCLdoqwSkXelFxZWsW7+DIUNyiIuL0YZDAPv2F1JdXcVFF4wiLMysDftx3OylsbGJr7/ZzOCQ8OPSLzOduNhElny8GlVVtWE/2pTudit8tXwjg4fkEB8SflwkSaJfv3RiY+PJ27CzXfFtSt+xswBrVAzpfZK1oRBtMPzMHKqqGqmtbdSGWhFQusejUF5RS7/MDG0oRDskJyexZ1+JtrgVAaXX1x/Gq8qYzSZtKEQ7xMfbKCioRFG82lALAaXv2l1IXKwNWQ4YDnEcLBYzZrOF4pJKbaiFgFb3F5Rjs0Vri0N0kOTkRH76qUxb3IKfdCEE1dUNhIeHaUMhOojNFkVFZY22uAU/6S63B1mW0en8QiE6SHh4GA0NTdriFvzMClUQE23VFofoBLIsE30ch37SAeobDmuLQnSSg4dqtUUtBJQeonsJSQ8CIelBICQ9CISkB4GQ9CAQkh4EQtKDQEh6EAhJDwIh6UEgJD0IhKQHgd4tXSgg3NrSoNNrpcuuUgz7HsK4ayq6+tXAcReynVJ6pXTZVYJx1+3oiv+GXP4Bhu0T0dd9q60WNHqddEmpRf/TNKhZfbTQWY5+7++QD289tmrQ6FXSJaUGw577kCsWgtAsbWvcjmH3PciHt7UuDwK9R7rwYNj3CHLFIn/hvgpI9Rsxbr8B2b5LGzyl9BrpkqcG6fBObbE/TQcw7LkfyVWujZwyeo10YbAh4i4B2tsRIZBqV2LMvx7JVawNnhJ6jXQkA+70x6DPJJAN2mhrhECq34Bp521BEd97pAPIRlyZMxApt7QvHqB2PcZ9D4NSp410K71LOiB0EbgzX4LEX7Xf1AiBVLUUS/414G3QRruN016606WwOq+Idz7awsatvkWbQm/FNfAdn3ipnT9RCETNOky770LytL3+sCtp5zfq2bg9Xv6zsoD5S/PJ21zC3MU/8s3aAwghELIFV/9XIeEy7csCIJCqPsW4/xEkb9trELuK01a6EIL1G0v4YsU+vF5fXu5weliybCfrN5WiqgJhTPHd8dEj229qVA9S2QcY997b7eJPS+keRWV1XjELP9mB19t6x4PH4+XjL3fxQ75vUb7QW3ENWwax57Xf1CCQKhZhKHiyW0cn2/stehxCwJq8Yv71+Q4UjfAj1DU4+WDxVjZu8z0ACX007oFvgHWYtqo/qge55C2MRX/utpHJ00q6qgq27qhkybKduFyKNtwKh8PDok+2s333QQBUcyauYZ/5xLe3pVx1oT/wEqgebaRLOG2kq6rg+x/KmPPRFtye4ws/Ql2Dk/lL89m9vxoAYYjDnfMuRI3WVm2NBN6kmzuW658Ap4307bsPMu/f+Thdnbv7DlY3MfOtPPYX+taLq2E5uLP/iWRsa0OyhEi4AtfAv7ff+Z4gp4X0/QdqmbNgK25354QfQfWqzFvyIwXFvidPNWwQrpGrIHKwn1gRdzGefi+2Kutqerx0IQRfriygye7ShjpFWUUDb837gdIK325mNWwAngEzITyzpY6IPR939t9RzX2PeWXX0+OlS5JEQqylU+epBEIIOFTTxOw5G6iucQDgjToXz8BZSOFZEH8p7pwPEMbu35bf46UDXPaLLMYOT+v0CUKBaLK7Kak4Os7ijT4fx6h1OHM+RBjiWtXtLk4L6WEWAzddlcOZOSd/F5rNBmzRmsNw9FGgO3X7Zk8L6QAWs4GbrhxM/75xfk2NXi8TEWYkMsKE2WTwix/BFhPG5OuHk5bc9nbDU0GPll51qImlX+5lb4Ev3YuymrhjwnCGZCciSRIR4SbGjc3g7ltHM2XSaKZOGsOU20Zz7S9zSE2KatUcxUSHcfNVQxmYZWv32ai7kRxOV6tnXafDxZz3v+KmGy8/tviUIgRUHmzi+dfW4HJ70OlkpkwczZDseCRJoq7eydKv9nLtZQOJCA98Sp6qCtZvKmHBx9sRAiZedyZjhp9889QRVFWwYMFSptx9lTYEgPTtio2tpLvcHjZt3s+vb7/+2OJTyoHiOuYu/pHisvqWMlt0GBOuGsLQQQnQ/MG03LFCaR4L9yJ0kaCLgOY/Pn/3QTxuLyOGJnVJR9wRVFUw+433uPCCkdoQAJLHo7SS7nC4ePvdZdx4Q3DudK+qMv2vayivavQ7XDMi3MSDd+aSmhzZXCKQD/+Icfed4K5DCIFstKCk3ocn8XaQ9b4hq2M/oFOAqgoWLvqYe6dcow0BIOv1OrQ/bXVE3YkQvjb8TzNWUVbZ4CccQK+TiYxobk6Eir5yHsYtl0D9FnAcQHIWIhp2odv1AKadE5HcVUicWuFHkCTJz+uRnx7TkdbUOZi3JJ+qQ22fS3DO6D5YI32nLemrPkK/50Fw+6bYJIMVyWTzDVIJBalyMYaCP4B6ck+y3UGPkC6E4M25P7Brn28YNhA6nUxaSnOqpzrRlcwGT71vgCptMs7cPThyf8Iz4nMknS8P11V8hL72q9YX6gEEXXp1rYNZ72ykoPj4k8K2KAtJ8b4OUj68FclZCICIvQBX1qsIQwzoLHit4/BkPgWyEaE6wHFAc6XgE1Tpildl0ac72bG3Shvyw2IxEBHuG9+WXQeQlHqQJLwxF4F8TNooyb7RQ9ni6yg8RzOgnkLQpDucCu/M38oP+WWoqn+nqUVVxdF6sgkh6X3rVpQan9xjUQ6D8PqGbbtpIuJkCIr0xiY3Cz/ZwaZtpdpQmzQ2uamtdwLgDRuGMCQCoKtciOQqOTqfqTQiVy0B1e7Lwoyxx16mRxAU6bv2HiLvh+MfGKml8bCLioO+pRHCnI4c2d8XcBRg2nQOpj33YCp6Bsu2i5ErfculRVgWavT41hfqAQRFusOpdKhJORYhBI2NzemfpMfZfzZEjfS14a6DSCXvIO2bjqjb7Gta9JEofe5HtWRpLxV0giJ9YFYs6amdO/cxM93GiKFJLf8WplTc2W9DwhVIsq65eWl+9IzIRsn+G0ry7a2u0VMIivTEuHBuvnoI1oj2zxqXJEhKiOTXE4YTH9t6zFsNH4QzZx7ukStQBv4FNetZlKELcI5cgZJwHUi6VvV7CkGRDpCRFsXdE0eTlhylDbXijLQY7rplJLExbZzCL+nwWseipN6DO/1hlLgrQN/WTH/P4JRLl1yloPqykMyMaG68YjDRUYGFRlvDuPmaoSQnHRngOh6S38x+T+XUSVedGAqnY8kbhHnzechNPyJJ0D/Txk1XDiXa2lp8YnwkUyeNok+KtUtUCiFwOOw0NNRjtzehKApCCBRFwW5vorGxAafTdzN0N37fieFwuPjn259xw/W/Orb45BBejEVPIxe+7ntwAUR0Lp5Bb7VkF1u2V7Hwk3yqa+0kxkdyyzVDGZBp01zoxNm0KY+P5r9PRXkp0TE2zsjoS1R0DHV1tRQWFtBQX0dqWh8m3Hw7Q4acqX15p1BVwaJ/fcL/3XudNgTdJV1uykd27EWJvRyQMJT+Bd2e3x99gGlGsg7CMXIDyAaEgJ8Ka9myvZKzR6WS0qEmpWPY7U1cclEu+/btQZIkv2HjI0PZQgj6ZQ3gvfeXkJl54qnmqZeuurB8NwDhqkJNvRNhTkVX+Ap4/I9Blc3x2Mfmg/5o+thqRqgLOHy4kSl3T+Tr5csYf/5FXH3VjZSWFlNSWoTL6SQi0kpGRl+s1ijenfN3du/ewf0PPM5vH5qmvVSHCYJ0D+bvssBZ4evYdCbw+reVks6EJ3s2SuIt3doBfvvNl0y67VpSUtJ46+2PyBk8DFVVm78sRCBJUvPh/BLL/7OMyZOvIzUljZWrtxAWFq69XIdoT3rXd6SyAWXgLDAl+JqTAMLRR+Dp/wJK4q3dKlxRPKxe/S2KojBu3Pn0zeyPJEnodDoMBgMGgxG93oAs65BlmV9ceCnjxo2npKSID95/y6857Cq6Xjqg2C5FyXoOSRfgOzVkPcoZ01CSfq2NdDm1NTVs2pSHJEmMzf0vLJbAqekRdDodd9xxDyaTmUUL59LQ0D077rpFOpIeJeEWPIPfRdIf8xQp6VEzn0Tpcz/IAT6QLqao+ADb87chyzK5ueM6NPfbL2sAyckp7N27m+Ji30RJV9M90gEkGSXuapSs58Dge+qUJBlV172rq4QQFBUdYPG/5jPr9Rk0NR1mzNhz6NOnY18fFBMTS3pGX5xOB7NnzeDTTxdTXl7ql/GcDN0nvRklaTLevtN8qZrqRr/vCfTVn2irdQmK4mHZ50u58zcTePSR+/hime99LrjgEhoa6nG5XHi93oACVVXF7Xajql7i4uIB+PeSBTz04BTu+s3NfPXlZ+1+U1dH6frspQ2MJTOQ9z8DQsGb/TqepMnaKieF1+tl/ofv8sjv7kWWZdIz+pKYkERe3lqEEPTvn016+hlYo6Ixm83odLqWTlwIFZfLRUN9PcXFB9i3bw+K4iE391zKyoopLCwgPj6ROe8tYsSIMdq39qO97OWUSUd1oa+aj+RtwpNyd5ePANbV1TL17ltZs2YFEyZM5rFpT+Nxu3l15gusWbOC2roa7E1NuN2+u/3Yu9aX0egxGo2EhYUTFx/P2Wf/Nw/+dhoul5M/PfUon36ymDFjcvn405Wt3jcQPUc6NKdg7XdmJ0JdXS1TpkxkzapvuOaam3h2+itYo6JwOp3U1ByiqqqShoY6nA4HHo/HT7reYMBsNhMVFU1iQhJx8QkYjSZKSop46MG7WbXqG3Jzx7Fk6det3jcQPUx69+H1elm44AOmP/sE1dWHSE3tw6TJd3Hm8FEkJ6cSGWnFYgnDaDRhMBiamxdfx6uqXjweDy6XC4fDTl1dHRUVpXyft5Z5c+dQVVVBRkZf/vnW/A6Ny/xspAO4XC6+/34dr818gbVrVwISUVFRRMfYiImxYbVGEx4WjslsQq/3ifd6m4U7HTTZm6ivr6Outoba2hoaG315+kUX/5L7/vdhRo4c26GvlvtZST+Coih8OG8O0x6/H0Xx7TkNNNAViGPrmc0WZr72Jpdffm2HcvwjtCe9/Y/tNENVVXbu+JGvly9rOahBlmWmTH2AflkDWuoZjUb+57IriYz0PTdIksT48Rfx7PRXiIjwrSRTFA9fL/+CAwd+6rJ0kd4ofevWTTz4wF189dXnxMbFkZmZhRCCpKQUpk17hoEDB2GLjeOeex/i5RlvcNXVNxAREcmIkWN46OEnsdlicTgcDBo0hOgYG4sWzmXqlIls3LC+Q/9TOkKvkS6EYPv2bVx95YXs3JlPZmYW7763mNsm3QVAfv4Wzht/IStWbWH7jlIefewpbLZYXnxpFnv3H+Kzz1czfPgo3nv3HwgheOLJZ5n56puk9Uln29bNPDf991RWdM0Jd71GellZCU//6TFcLidpaenMfPVNRowYzdix52A0Glm7dhUFBfu1L2tBCMHy5V+Ql7eO7OzBjDv3AsaPv4g//OHPmExmNmxYz6OP3Ed1ddsriztKr5FuMBiIjvJNhpSWFjNz5gsUFxcy7MyRjD//YsrKSnj26WnY7YEP0KmsrGDW6y+j0+m44caJmEwmdu/eydtvv4HL5cRoNBERacVgCLzHqTP0GukJCUm8+PJsXnxpFukZffl6+TIm3no1ixbO5YUXXyNn0BDWrl3BU398hPLy0paOUQiV8rJSnpv+JFu2bKRf1gBGjT6LOe/8jdsnX8d361fTf0A2L770Oq/89R9YrcdfMtIRel3KqKpeNm/ewKzXZ7D8P58TEWHlg3lLKS8v5YnHH6C2tpoxY8/hkkt+RXxCIuVlpXz55ads3pRHcnIazz3/Crt37+DPz/8RnU7PlVddz9SpDzIwO6fDaePPLmWUZR2jR+dy6613IEkS1qgo4mLjGDPmbJ57/q9YLBbWrV3JH//wO+6ZchvPPP043+etJSYmlqeffZkzh48iNbUPiqKg1+u5acJtZA8a3GHhHaHXSQeora1h9qwZeDweigoLyD1rEMOHZfCbO25qczbo4MFKbp90HcOGpDN1ym3QvIpg4Udz8TQ/YHUVvVL66tXfUFR0gLj4+JP6iY2LY/13q6mqrNC+xUnR69r0nkCn23SPR8HTwTOyQrTNkSGIQPhJN5tNXdpp/BzxehUs5rYn3v2kG416dDr5hM/LCgGNjXZiYnyDZoHwkw6QmhJLQ+gb1U+Y6upaUlPaPiUpoPT+WWkcqj7+ZtoQgRFCUF5eSVa/NG2ohYDSM/sm01DfgKIEPlY1RNs0NjYhyypJSW1vpQwoPSzMgtkk43AEWIcY4riUl1fRv3+qtrgVAaXrdDIDB6azafOPofSxE9jtTurra8nsm6INtSKgdIC01HiSEiL4MX9Xl82Y9GY8HoUVq9YzoH8KEeHHP/muTek6ncz480YiSwqFRR3fTv5zxOv1snXbDoYM6kP2wIx2NzX4DQNosTtcrFuXj9EUQWZmH/R6vbbKzxqHw8muXfuw2SycNWaQNhyQNu/0I4RZTPz3ucMQwsGKlXk4HD3vpKBgcai6js8+/5bU1ChGjzy60qA92r3Tj2XnrgNs315IbHw8SYnxhIVZMJlOfvrqdEEIgdPpoqnJTklpOU5HE7ln5ZCU2LldgJ2SDtB42E5p6UHKK2qoq3PgditERIRjMPTeZkcIgcvlpsluJyLMRHRMOGmp8SQnx2I+gZuu09K1uFxuDh6q8zU7J3WlnossS0REhJGQENMlg4EnLT1E5/l/F8WzgXU8+FMAAAAASUVORK5CYII=;" vertex="1" parent="1">
                    <mxGeometry x="7" y="188" width="58.5" height="73.6" as="geometry"/>
                </mxCell>
                <mxCell id="22" value="" style="endArrow=classic;html=1;" edge="1" parent="1" target="19">
                    <mxGeometry width="50" height="50" relative="1" as="geometry">
                        <mxPoint x="62" y="225.3" as="sourcePoint"/>
                        <mxPoint x="186.96000000000004" y="224.3" as="targetPoint"/>
                    </mxGeometry>
                </mxCell>
                <mxCell id="25" value="" style="endArrow=classic;html=1;entryX=0;entryY=0.5;entryDx=0;entryDy=0;exitX=0;exitY=0.5;exitDx=0;exitDy=0;" edge="1" parent="1" source="21">
                    <mxGeometry width="50" height="50" relative="1" as="geometry">
                        <mxPoint x="-13" y="211.6" as="sourcePoint"/>
                        <mxPoint x="-111" y="225" as="targetPoint"/>
                    </mxGeometry>
                </mxCell>
                <mxCell id="26" value="&lt;b&gt;Otel Agent&lt;/b&gt;" style="text;html=1;align=center;verticalAlign=middle;whiteSpace=wrap;rounded=0;" vertex="1" parent="1">
                    <mxGeometry x="4" y="266" width="71" height="30" as="geometry"/>
                </mxCell>
                <mxCell id="27" value="&lt;b&gt;Monkey Patching&lt;/b&gt;" style="text;html=1;align=center;verticalAlign=middle;whiteSpace=wrap;rounded=0;" vertex="1" parent="1">
                    <mxGeometry x="-98" y="181" width="95" height="31" as="geometry"/>
                </mxCell>
                <mxCell id="28" value="&lt;b&gt;OTLP/grpc Port:4317&lt;/b&gt;" style="text;html=1;align=center;verticalAlign=middle;whiteSpace=wrap;rounded=0;" vertex="1" parent="1">
                    <mxGeometry x="121" y="235" width="95" height="31" as="geometry"/>
                </mxCell>
                <mxCell id="29" value="&lt;b&gt;OR&lt;/b&gt;" style="text;html=1;align=center;verticalAlign=middle;whiteSpace=wrap;rounded=0;" vertex="1" parent="1">
                    <mxGeometry x="140" y="207" width="39" height="14" as="geometry"/>
                </mxCell>
                <mxCell id="32" value="&lt;b&gt;OTLP/http&lt;/b&gt;&lt;div&gt;&lt;b&gt;Port:4318&lt;/b&gt;&lt;/div&gt;" style="text;html=1;align=center;verticalAlign=middle;whiteSpace=wrap;rounded=0;" vertex="1" parent="1">
                    <mxGeometry x="112" y="171" width="95" height="31" as="geometry"/>
                </mxCell>
            </root>
        </mxGraphModel>
    </diagram>
</mxfile>